<?xml version="1.0" encoding="utf-8"?>
<!-- Generator: Adobe Illustrator 19.1.0, SVG Export Plug-In . SVG Version: 6.00 Build 0)  -->
<svg version="1.1" id="Layer_1" xmlns="http://www.w3.org/2000/svg" xmlns:xlink="http://www.w3.org/1999/xlink" x="0px" y="0px"
	 viewBox="0 0 361.6 251.6" style="enable-background:new 0 0 361.6 251.6;" xml:space="preserve">
<style type="text/css">
	.st0{fill:#FFFFFF;filter:url(#AI_Shadow_2);}
	.st1{filter:url(#AI_Shadow_2);}
	.st2{fill:#FFFFFF;}
	.st3{fill-rule:evenodd;clip-rule:evenodd;fill:#FFFFFF;filter:url(#AI_Shadow_2);}
</style>
<filter  height="130%" width="140%" id="AI_Shadow_2" filterUnits="objectBoundingBox" y="-15%" x="-15%">
	<feGaussianBlur  stdDeviation="6" result="blur" in="SourceAlpha"></feGaussianBlur>
	<feOffset  dx="8" dy="8" result="offsetBlurredAlpha" in="blur"></feOffset>
	<feMerge>
		<feMergeNode  in="offsetBlurredAlpha"></feMergeNode>
		<feMergeNode  in="SourceGraphic"></feMergeNode>
	</feMerge>
</filter>
<path class="st0" d="M30.3,196.2c-0.5-0.5-0.6-1.3-0.4-2.3l2.5-14.4c-0.8-0.8-2.5-1.8-5-2.7c-2.5-1-5-1.7-7.3-2.3
	c-0.9,1.1-1.9,2.9-2.8,5.3l-0.6,1.6c-1.1,2.8-2,5.1-2.8,6.9c-0.8,1.7-1.6,3.1-2.5,4.1c-2.8-0.5-4.3-1.5-4.5-3
	c0.9-0.8,2.4-4.1,4.5-9.8c1.8-4.9,4.2-11.4,7.1-19.5c3.3-9.5,6.3-17.4,8.8-23.8c2.5-6.4,4.9-11.8,7.2-16.1c2.5-4.8,4.6-7.1,6.2-6.8
	c1.6,0.3,2.7,0.8,3.4,1.6c-0.5,2.7-1,9.9-1.5,21.6c-0.5,11.7-1.1,19.3-1.8,23c-0.6,3.4-1.2,9.1-1.7,16.9c-0.6,8-1.3,14-1.9,17.9
	c-0.4,2.5-1.9,3.5-4.3,3.1C31.6,197.1,30.7,196.8,30.3,196.2 M33.4,172.7c0.2-1.6,0.5-5.7,0.9-12.2c1.3-17.3,2.2-27.6,2.7-30.9
	c0.1-0.5,0.2-0.9,0.2-1c-0.8,0.6-2.4,3.7-4.7,9.4c-2.3,5.7-4.6,11.8-6.9,18.4c-2.3,6.6-3.7,11-4.2,13.2c3,1.4,6.2,2.3,9.6,2.9
	C31.7,172.8,32.5,172.8,33.4,172.7"/>
<g class="st1">
	<path class="st2" d="M59.3,201.2c-1.7-0.8-3-1.6-3.9-2.3c-4.3-4-5.3-13-2.8-27.1l0.5-3c0.1-1,0.3-2.1,0.6-3.5l0.5-2.6
		c0.6-3.5,1.1-6.2,1.5-8.2c0.4-2,1-4.3,1.7-7.1c0.7-2.8,1.5-5.1,2.2-6.8c0.8-1.7,1.9-3.7,3.2-5.8c1.3-1.9,2.6-3.4,4.1-4.3
		c1.5-1,3.3-1.7,5.5-2.1c2.1-0.5,4.4-0.5,7,0c1.1,0.2,1.9,0.6,2.4,1.2c0.5,0.6,0.7,1.3,0.5,2.2c-0.1,0.8-0.5,1.4-1,1.9
		c-0.6,0.5-1.2,0.7-1.8,0.6l-5.2-0.9c-1.4-0.2-2.9,0.5-4.3,2.1c-1.4,1.7-2.7,3.9-3.7,6.8c-1.9,5.3-3.1,9.6-3.7,13l-0.1,0.5
		c-0.5,2.9-1.2,6.4-2.1,10.6c-1.1,5.2-1.8,8.8-2.1,10.6c-0.4,2.5-0.7,4.8-0.8,6.9c-0.1,1.4,0,2.6,0.1,3.7c0.1,1.1,0.3,2.2,0.7,3.2
		c0.3,1.2,0.8,2.1,1.4,3c0.6,0.8,1.4,1.5,2.4,2.1c1,0.6,2.1,1.1,3.5,1.3c0.9,0.2,1.7,0,2.5-0.6c0.9,0.2,1.7,0.5,2.3,1
		c0.6,0.5,0.8,1.2,0.7,2c-0.5,2.9-2.8,4-6.8,3.3C62.7,202.5,61.1,202,59.3,201.2"/>
</g>
<g class="st1">
	<path class="st2" d="M86.7,205.2l0.6-4.3l0.6-4.2l0.8-3.8c-0.1-0.9,0.7-9.2,2.5-24.7c1.8-15.6,3-25.4,3.6-29.6
		c-4.2-0.8-6.9-1.8-8-2.8c-0.7-0.6-0.9-1.3-0.8-2.1c0.1-0.6,0.6-1.1,1.4-1.5c0.8-0.3,1.7-0.4,2.5-0.3c1.6,0.3,4.1,0.9,7.4,1.8
		c3.1,0.9,5.6,1.5,7.4,1.8c0.3,0.1,0.6,0.1,0.9,0.1l0.9,0.2c2.3,0.4,3.3,1.5,3,3.2c-0.1,0.9-0.6,1.5-1.5,2c-0.8,0.4-1.7,0.6-2.7,0.4
		c-0.8-0.1-1.7-0.4-2.8-0.9l-2.1-0.8l-0.2,0.5l-0.2,0.6c-1.2,7.2-2.5,17.8-3.6,31.7c-1.2,13.9-2.4,24.5-3.6,31.8
		c-0.1,0.9-0.7,1.6-1.6,2.1c-0.9,0.5-1.8,0.7-2.8,0.5L86.7,205.2z"/>
</g>
<path class="st0" d="M120.2,213.5c0.4-2.2,1.2-6.3,2.4-12.5c1.2-6.2,2-10.3,2.4-12.5c0.9-5.2,2-12.1,3.2-20.7
	c1.3-8.6,2.3-15.5,3.2-20.7l0.1-0.6c0.2-1,0.4-1.8,0.5-2.5c0.2-0.7,0.5-1.4,0.9-2.3c0.4-0.9,0.9-1.5,1.5-1.9
	c0.6-0.4,1.4-0.5,2.3-0.4c3.2,0.6,5.8,1.7,7.9,3.5c2.1,1.8,3.5,4.1,4.3,6.8c0.8,2.7,0.9,5.7,0.3,9c-0.4,2-1.1,4.1-2.2,6.2
	c-1.1,2.1-2.5,4-4.1,5.7c-1.6,1.7-3.2,2.9-4.9,3.7c3.5,3.3,5.8,7.3,6.9,11.8c1.1,4.5,1.3,9.3,0.4,14.3c-0.4,2.4-1.7,5.2-3.9,8.4
	c-1.3,1.9-2.8,3.5-4.3,4.7c-1.5,1.3-3.3,2.2-5.4,2.9c-2.2,0.7-4.5,0.8-6.9,0.4l-0.4-0.1C121.3,216.3,119.9,215.2,120.2,213.5
	 M136,171.1c0.9-0.6,1.8-1.5,2.6-2.6c1.3-1.8,2.7-3.9,4-6.5c0.7-1.2,1.2-2.1,1.5-2.6l0.6-3.6c0.2-1.3,0.1-2.7-0.3-4.2
	c-0.5-1.5-1.2-2.8-2.1-3.8c-1-1.1-2.1-1.7-3.3-1.9c-1-0.2-1.6,0.8-2,2.9c-0.6,3.3-1.2,7.3-1.9,11.9c-0.7,4.7-1.3,8.5-1.8,11.4
	C134.2,172,135.1,171.7,136,171.1 M133,210.3c1.9-1,3.4-2.4,4.6-4.2c1.2-1.8,2-3.9,2.4-6.3c0.5-3.1,0.8-6,0.7-8.7
	c-0.1-2.7-0.4-4.8-0.9-6.3c-0.5-1.4-1.1-2.6-1.7-3.6c-0.6-1-1.1-1.7-1.6-2.1l-0.7-0.5l-3.6-0.6c-1.2,9-3,20.3-5.3,33.8
	C129.1,211.8,131.2,211.4,133,210.3"/>
<g class="st1">
	<path class="st2" d="M154.2,220.8c-0.6-0.7-0.9-1.5-0.7-2.4l0.5-2.7c0.1-0.7,0.2-1.4,0.3-2l0.3-2.2c0.2-1.1,0.5-3.3,0.9-6.5
		c0.4-3.2,0.7-5.4,0.9-6.5c0.6-3.7,1.6-8.7,2.9-14.8c1.3-6.1,2.3-11,2.9-14.8c0.1-0.7,0.3-2.2,0.5-4.4c0.1-1.9,0.3-3.4,0.4-4.3
		c0.8-4.8,2.7-7,5.5-6.5c1.3,0.2,2.9,0.7,4.8,1.5c1.9,0.8,3.5,1.6,4.8,2.5c1.3,0.9,1.9,1.8,1.8,2.6c-0.1,0.7-0.5,1.3-1.2,1.7
		c-0.7,0.4-1.4,0.8-2.4,0.9c-2.9-1.6-5.4-2.7-7.4-3.3c-0.1,1.4-0.3,2.9-0.6,4.4c-0.3,2-0.8,4.4-1.5,7.3c-0.8,3.5-1.3,6-1.5,7.3
		l0,1.6l1.7,0.2c0.6,0.1,1.2,0.2,2,0.3c3.3,0.6,4.8,1.8,4.4,3.6c-0.1,0.7-0.5,1.3-1.2,1.8s-1.5,0.6-2.4,0.4c-1-0.2-1.9-0.4-2.8-0.7
		l-2.6-0.4c-0.2,2.6-0.6,5.2-1,7.7c-0.4,2.4-1,5.5-1.8,9.1c-1,4.5-1.6,7.6-1.8,9.2c-0.7,3.8-0.9,5.7-0.8,5.7l3.4,0.4l4.2,0.6
		c2.6,0.4,3.7,1.5,3.4,3.2c-0.2,1-0.7,1.6-1.6,2c-0.9,0.3-2,0.4-3.2,0.2l-8.6-1.5C155.5,222,154.8,221.6,154.2,220.8"/>
</g>
<g class="st1">
	<path class="st2" d="M186.5,226l0.6-4l0.6-4l0.8-3.5c-0.1-0.9,0.7-8.6,2.4-23.2c1.7-14.6,2.9-23.8,3.4-27.7
		c-3.9-0.8-6.3-1.7-7.4-2.6c-0.6-0.6-0.9-1.2-0.7-2c0.1-0.6,0.5-1.1,1.3-1.4c0.8-0.3,1.5-0.4,2.3-0.3c1.5,0.3,3.8,0.8,6.8,1.7
		c2.9,0.8,5.2,1.4,6.8,1.7c0.3,0.1,0.6,0.1,0.8,0.1l0.8,0.1c2.1,0.4,3,1.4,2.7,3c-0.1,0.8-0.6,1.4-1.4,1.8c-0.8,0.4-1.6,0.6-2.5,0.4
		c-0.7-0.1-1.6-0.4-2.6-0.8l-2-0.7l-0.2,0.4l-0.2,0.6c-1.2,6.7-2.3,16.6-3.4,29.7c-1.1,13-2.2,23-3.4,29.7c-0.1,0.8-0.6,1.5-1.4,2
		c-0.8,0.5-1.7,0.7-2.6,0.5L186.5,226z"/>
</g>
<g class="st1">
	<path class="st2" d="M212.6,230.6l0.6-4l0.6-4l0.8-3.5c-0.1-0.9,0.7-8.6,2.4-23.2c1.7-14.6,2.9-23.8,3.4-27.7
		c-3.9-0.8-6.3-1.7-7.4-2.6c-0.6-0.6-0.9-1.2-0.7-2c0.1-0.6,0.5-1.1,1.3-1.4c0.8-0.3,1.5-0.4,2.3-0.3c1.5,0.3,3.8,0.8,6.8,1.7
		c2.9,0.8,5.2,1.4,6.8,1.7c0.3,0.1,0.6,0.1,0.8,0.1l0.8,0.1c2.1,0.4,3,1.4,2.7,3c-0.1,0.8-0.6,1.4-1.4,1.8c-0.8,0.4-1.6,0.6-2.5,0.4
		c-0.7-0.1-1.6-0.4-2.6-0.8l-2-0.7l-0.2,0.4l-0.2,0.6c-1.2,6.7-2.3,16.6-3.4,29.7c-1.1,13-2.2,23-3.4,29.7c-0.1,0.8-0.6,1.5-1.4,2
		c-0.8,0.5-1.7,0.7-2.6,0.5L212.6,230.6z"/>
</g>
<g class="st1">
	<path class="st2" d="M235.1,234.9c-0.6-0.7-0.9-1.5-0.7-2.4l0.5-2.7c0.1-0.7,0.2-1.4,0.3-2l0.3-2.2c0.2-1.1,0.5-3.3,0.9-6.5
		c0.4-3.2,0.7-5.4,0.9-6.5c0.6-3.7,1.6-8.7,2.9-14.8c1.3-6.1,2.3-11,2.9-14.8c0.1-0.7,0.3-2.2,0.5-4.4c0.1-1.9,0.3-3.4,0.4-4.3
		c0.8-4.8,2.7-7,5.5-6.5c1.3,0.2,2.9,0.7,4.8,1.5c1.9,0.8,3.5,1.6,4.8,2.5c1.3,0.9,1.9,1.8,1.8,2.6c-0.1,0.7-0.5,1.3-1.2,1.7
		c-0.7,0.4-1.4,0.8-2.4,0.9c-2.9-1.6-5.4-2.7-7.4-3.3c-0.1,1.4-0.4,2.9-0.6,4.4c-0.3,2-0.8,4.4-1.5,7.3c-0.8,3.5-1.3,6-1.5,7.3
		l0,1.6l1.7,0.2c0.6,0.1,1.2,0.2,2,0.3c3.3,0.6,4.8,1.8,4.4,3.6c-0.1,0.7-0.5,1.3-1.2,1.8c-0.7,0.4-1.5,0.6-2.4,0.4
		c-1-0.2-1.9-0.4-2.8-0.7l-2.6-0.4c-0.2,2.6-0.6,5.2-1,7.7c-0.4,2.4-1,5.5-1.8,9.1c-1,4.5-1.6,7.6-1.8,9.2c-0.7,3.8-0.9,5.7-0.8,5.7
		l3.4,0.4l4.2,0.6c2.6,0.4,3.7,1.5,3.4,3.2c-0.2,1-0.7,1.6-1.6,2c-0.9,0.3-2,0.4-3.2,0.2l-8.6-1.5
		C236.5,236,235.7,235.6,235.1,234.9"/>
</g>
<path class="st0" d="M275.9,238.9c-0.7-3.4-1.2-7.2-1.3-11.4l-0.1-3.5c-0.2-10-0.5-15.7-0.8-17.3l-1.2-0.2c-0.3,2-0.7,3.8-1,5.4
	c-0.3,1.6-0.7,3.5-1,5.6c-1.6,9-2.1,16.1-1.7,21.5l-1.6,2.5l-2.8-0.5l-1.1-1.7l1.3-6.8c1-5.7,2.3-15,4-27.9
	c1.6-12.5,2.9-21.8,3.9-28c0.6-3.2,2-4.6,4.2-4.2c2.4,0.4,4.5,1.2,6.2,2.4c1.8,1.2,3,2.7,3.9,4.5c0.8,1.8,1,3.8,0.6,6.1l-1.2,7.1
	c-0.2,1-0.5,2.1-1.1,3.3c-0.6,1.2-1.2,2.3-1.7,3.1l-2.6,3.3l-2.1,2.7l0.3,10c0,5.2,0.2,9.6,0.6,13c0.3,3.4,0.9,6.6,1.7,9.6l0.4,1.4
	c0.2,0.8,0.4,1.4,0.5,1.9c0.1,0.5,0.1,1,0,1.5c-0.1,0.7-0.4,1.3-1,1.7c-0.5,0.4-1.1,0.6-1.8,0.5
	C277.7,244.3,276.6,242.4,275.9,238.9 M277.1,198.6c1.1-1.6,2.1-3.5,3-5.7c0.9-2.2,1.4-4.1,1.7-5.8c0.2-1.3,0.4-2.3,0.4-3.2
	c0.1-0.9,0-1.9-0.1-3c-0.1-1.1-0.6-2-1.2-2.7c-0.7-0.7-1.6-1.2-2.8-1.4l-0.3,0.6c-0.2,0.3-0.3,0.6-0.3,0.8c-0.6,3.4-1.2,7.4-1.9,12
	c-0.7,4.7-1.3,8.5-1.8,11.5C274.8,201.3,275.9,200.2,277.1,198.6"/>
<path class="st3" d="M355.8,129.9c0.4-1.2,1.1-3.1,0.3-3c-1.4,0.2-3.1,0.6-4.9,2.1c-3.1,2.6-7.6,9.1-10,12.9
	c-4.2-5.8-7.1-15.2-10.6-21.1c-3.6-6.1-11.9-13.9-16.6-18l0.2,0c-1-0.5-5.7-21.8-6.6-33.9c6.9-6.7,16.1-18.4,16.4-19.1
	c2.5-4.9,3.6-15.9,5.6-24.3c0.6-2.8,2.9-7.4,3.7-10.2c1-3.7,3.5-4.2,1.9-7c-2.5-4.7-5.5-6.1-10.6-3.3c-3.5,1.9-5.6,4.8-3.2,8.7
	c8.1,13.3,3.7,22.2-1.7,34.8c-2.2,5.1-6.7,10-11.6,13.9c1.5-3.2,2.9-6.6,5.2-9c5.6-5.7,8.3-11.8,7.8-20.1
	c-0.4-7.1-9.4-17.3-17.6-17.7c-10.9-0.5-19.9,5.3-21.8,14.8c-0.1,0.4-0.1,0.8-0.2,1.1c-0.6-5.9,0.5-11.8,4.7-18.7
	c2.3-3.8,0.3-6.7-3.2-8.7c-5.1-2.8-8.1-1.4-10.6,3.3c-1.5,2.8,1,3.3,1.9,7c0.8,2.8,3,7.4,3.7,10.2c1.9,8.4,2.4,17.6,5.5,25.3
	c0.3,0.8,12.6,15.4,19.5,20.9c0.1,0,0.1-0.1,0.2-0.1c1.2,13.3,4.3,33.1,4.3,33.1l0.2,0c-0.5,1.2-1.4,3.4-1.2,3.3
	c-4.4,15.9-11.3,41.9-16,58.9c-4.4-3-23.5-4.7-14.9,1c4.7,3.1,8,6.4,11.6,9.5c4.1,3.5,4.9,3,6.4-6c2.7-16.8,9.5-40.4,15-53.4
	c0.9-2.1,1.8-3.6,2.7-4.6c0.5-0.5,0.9-0.9,1.4-1.1c1.5-0.8,3-0.5,4.8,0.5c9.5,5.4,15.4,25.5,23.3,37.9c0.9,1.4,2.8,2.2,3.6,1
	c3.2-4.6,6.7-9.8,9.1-15.4C354.2,133.7,355.1,131.9,355.8,129.9 M294.8,21.9c8.1-2.9,17.9,1.6,21,9.7c2.8,7.4-2,17.4-9.7,20.2
	c-8.2,3-15.8-1.4-19.1-10.9C284.4,33.2,288,24.4,294.8,21.9 M288.9,52c3.4,2.8,7.8,4.9,13.2,6.2c0.5,2,0.7,3.8,0.5,5.4
	c-0.1,0-0.2,0-0.3,0C297.3,60.4,292.1,56.5,288.9,52"/>
</svg>
