<?xml version="1.0" encoding="utf-8"?>
<!-- Generator: Adobe Illustrator 19.1.0, SVG Export Plug-In . SVG Version: 6.00 Build 0)  -->
<svg version="1.1" id="Layer_1" xmlns="http://www.w3.org/2000/svg" xmlns:xlink="http://www.w3.org/1999/xlink" x="0px" y="0px"
	 viewBox="0 0 361.6 251.6" style="enable-background:new 0 0 361.6 251.6;" xml:space="preserve">
<style type="text/css">
	.st0{fill:#FFFFFF;filter:url(#AI_Shadow_1);}
	.st1{filter:url(#AI_Shadow_1);}
	.st2{fill:#FFFFFF;}
	.st3{fill-rule:evenodd;clip-rule:evenodd;fill:#FFFFFF;filter:url(#AI_Shadow_1);}
</style>
<filter  id="AI_Shadow_1" filterUnits="objectBoundingBox">
	<feGaussianBlur  stdDeviation="2" result="blur" in="SourceAlpha"></feGaussianBlur>
	<feOffset  dx="4" dy="4" result="offsetBlurredAlpha" in="blur"></feOffset>
	<feMerge>
		<feMergeNode  in="offsetBlurredAlpha"></feMergeNode>
		<feMergeNode  in="SourceGraphic"></feMergeNode>
	</feMerge>
</filter>
<path class="st0" d="M28.2,198.9c-0.5-0.5-0.6-1.3-0.4-2.4l2.5-14.4c-0.9-0.9-2.5-1.8-5.1-2.7c-2.5-1-5-1.7-7.4-2.3
	c-0.9,1.1-1.9,2.9-2.8,5.3l-0.6,1.6c-1.1,2.9-2,5.2-2.8,6.9c-0.8,1.8-1.6,3.1-2.5,4.1c-2.9-0.5-4.3-1.5-4.5-3.1
	c0.9-0.8,2.4-4.2,4.6-9.9c1.9-4.9,4.2-11.5,7.1-19.7c3.4-9.5,6.3-17.5,8.8-24c2.5-6.5,5-11.8,7.3-16.2c2.5-4.8,4.6-7.1,6.2-6.8
	c1.6,0.3,2.7,0.8,3.4,1.6c-0.5,2.7-1,10-1.5,21.8c-0.6,11.8-1.1,19.5-1.8,23.1c-0.6,3.5-1.2,9.1-1.7,17c-0.6,8.1-1.3,14.1-2,18.1
	c-0.4,2.5-1.9,3.5-4.3,3.1C29.5,199.8,28.6,199.5,28.2,198.9 M31.3,175.3c0.2-1.6,0.5-5.7,1-12.3c1.3-17.4,2.2-27.8,2.8-31.1
	c0.1-0.5,0.2-0.9,0.2-1c-0.8,0.6-2.4,3.8-4.8,9.5c-2.3,5.7-4.6,11.9-7,18.6c-2.3,6.6-3.7,11.1-4.2,13.2c3,1.4,6.2,2.4,9.6,3
	C29.6,175.3,30.4,175.3,31.3,175.3"/>
<g class="st1">
	<path class="st2" d="M57.4,203.9c-1.8-0.8-3.1-1.6-3.9-2.3c-4.4-4-5.3-13.1-2.8-27.3l0.5-3c0.1-1,0.3-2.2,0.6-3.5l0.5-2.7
		c0.6-3.5,1.1-6.3,1.5-8.3c0.4-2,1-4.4,1.7-7.2c0.7-2.8,1.5-5.1,2.2-6.9c0.8-1.8,1.9-3.7,3.2-5.8c1.3-1.9,2.6-3.4,4.1-4.4
		c1.5-1,3.3-1.7,5.6-2.2c2.1-0.5,4.4-0.5,7.1,0c1.1,0.2,1.9,0.6,2.4,1.2c0.5,0.6,0.7,1.3,0.5,2.2c-0.1,0.8-0.5,1.4-1.1,1.9
		c-0.6,0.5-1.2,0.7-1.8,0.6l-5.2-0.9c-1.4-0.3-2.9,0.5-4.3,2.1c-1.4,1.7-2.7,3.9-3.7,6.8c-1.9,5.3-3.1,9.7-3.7,13.1l-0.1,0.5
		c-0.5,2.9-1.2,6.5-2.1,10.6c-1.1,5.3-1.8,8.8-2.1,10.7c-0.4,2.5-0.7,4.8-0.8,6.9c-0.1,1.4,0,2.6,0.1,3.7c0.1,1.1,0.3,2.2,0.7,3.3
		c0.3,1.2,0.8,2.2,1.4,3c0.6,0.8,1.4,1.5,2.4,2.1c1,0.7,2.2,1.1,3.6,1.3c0.9,0.2,1.8,0,2.6-0.6c0.9,0.2,1.7,0.5,2.3,1
		c0.6,0.5,0.8,1.2,0.7,2c-0.5,2.9-2.8,4-6.9,3.3C60.8,205.3,59.2,204.7,57.4,203.9"/>
</g>
<g class="st1">
	<path class="st2" d="M85,208l0.6-4.3l0.6-4.3l0.8-3.8c-0.1-0.9,0.7-9.2,2.5-24.9c1.8-15.7,3-25.6,3.7-29.7c-4.2-0.8-6.9-1.8-8-2.8
		c-0.7-0.6-0.9-1.3-0.8-2.1c0.1-0.7,0.6-1.1,1.4-1.5c0.8-0.3,1.7-0.4,2.5-0.3c1.7,0.3,4.1,0.9,7.4,1.8c3.1,0.9,5.6,1.5,7.4,1.8
		c0.3,0.1,0.6,0.1,0.9,0.1l0.9,0.2c2.3,0.4,3.3,1.5,3,3.3c-0.2,0.9-0.6,1.5-1.5,2c-0.8,0.5-1.7,0.6-2.7,0.4
		c-0.8-0.1-1.7-0.4-2.8-0.9l-2.2-0.8l-0.2,0.5l-0.2,0.6c-1.3,7.2-2.5,17.9-3.6,31.9c-1.2,14-2.4,24.7-3.6,32
		c-0.2,0.9-0.7,1.6-1.6,2.1c-0.9,0.5-1.8,0.7-2.8,0.6L85,208z"/>
</g>
<path class="st0" d="M118.7,216.3c0.4-2.2,1.2-6.3,2.4-12.5c1.2-6.2,2.1-10.4,2.4-12.5c0.9-5.2,2-12.2,3.3-20.8
	c1.3-8.7,2.3-15.6,3.3-20.8l0.1-0.6c0.2-1,0.4-1.8,0.5-2.5c0.2-0.7,0.5-1.4,0.9-2.3c0.4-0.9,0.9-1.5,1.5-1.9
	c0.7-0.4,1.4-0.5,2.3-0.4c3.2,0.6,5.8,1.7,7.9,3.6c2.1,1.8,3.5,4.1,4.3,6.8c0.8,2.7,0.9,5.8,0.3,9.1c-0.4,2-1.1,4.1-2.2,6.2
	c-1.1,2.1-2.5,4-4.1,5.7c-1.6,1.7-3.2,2.9-4.9,3.7c3.5,3.4,5.8,7.3,7,11.9c1.1,4.6,1.3,9.3,0.4,14.4c-0.4,2.5-1.7,5.3-3.9,8.4
	c-1.4,1.9-2.8,3.5-4.3,4.8c-1.5,1.3-3.3,2.3-5.4,2.9c-2.3,0.7-4.6,0.9-7,0.4l-0.4-0.1C119.8,219.1,118.4,218,118.7,216.3
	 M134.5,173.6c0.9-0.6,1.8-1.5,2.6-2.6c1.3-1.8,2.7-4,4.1-6.5c0.7-1.3,1.2-2.1,1.5-2.6l0.6-3.6c0.2-1.3,0.1-2.7-0.3-4.2
	c-0.5-1.5-1.2-2.8-2.2-3.8c-1-1.1-2.1-1.7-3.3-1.9c-1-0.2-1.6,0.8-2,2.9c-0.6,3.3-1.2,7.3-1.9,12c-0.7,4.7-1.3,8.5-1.8,11.5
	C132.7,174.6,133.6,174.2,134.5,173.6 M131.6,213.1c1.9-1,3.4-2.4,4.6-4.3c1.2-1.8,2-3.9,2.5-6.3c0.5-3.1,0.8-6,0.7-8.8
	s-0.4-4.8-0.9-6.3c-0.5-1.4-1.1-2.6-1.7-3.6c-0.6-1-1.2-1.7-1.6-2.1l-0.7-0.5l-3.6-0.6c-1.2,9-3,20.4-5.4,34
	C127.6,214.6,129.7,214.1,131.6,213.1"/>
<g class="st1">
	<path class="st2" d="M152.9,223.7c-0.6-0.7-0.9-1.5-0.7-2.4l0.5-2.7c0.1-0.7,0.2-1.4,0.3-2.1l0.3-2.2c0.2-1.1,0.5-3.3,0.9-6.6
		c0.4-3.3,0.7-5.5,0.9-6.6c0.7-3.8,1.6-8.7,2.9-14.9c1.3-6.2,2.3-11.1,2.9-14.9c0.1-0.7,0.3-2.2,0.5-4.4c0.1-1.9,0.3-3.4,0.4-4.3
		c0.8-4.8,2.7-7,5.6-6.5c1.3,0.2,2.9,0.7,4.8,1.5c1.9,0.8,3.5,1.6,4.9,2.5c1.3,0.9,1.9,1.8,1.8,2.6c-0.1,0.7-0.5,1.3-1.2,1.7
		c-0.7,0.5-1.5,0.8-2.4,1c-3-1.6-5.4-2.7-7.4-3.3c-0.1,1.4-0.4,2.9-0.6,4.4c-0.3,2-0.8,4.4-1.5,7.3c-0.8,3.6-1.3,6-1.5,7.3l0,1.6
		l1.7,0.2c0.6,0.1,1.2,0.2,2,0.3c3.3,0.6,4.8,1.8,4.5,3.7c-0.1,0.7-0.5,1.3-1.3,1.8c-0.7,0.4-1.5,0.6-2.5,0.4c-1-0.2-2-0.4-2.9-0.7
		l-2.6-0.5c-0.2,2.6-0.6,5.2-1,7.8c-0.4,2.5-1,5.5-1.8,9.2c-1,4.6-1.6,7.6-1.9,9.2c-0.7,3.8-0.9,5.8-0.8,5.8l3.4,0.4l4.2,0.6
		c2.6,0.5,3.8,1.5,3.5,3.2c-0.2,1-0.7,1.6-1.7,2c-0.9,0.4-2,0.4-3.3,0.2l-8.6-1.5C154.3,224.9,153.5,224.4,152.9,223.7"/>
</g>
<g class="st1">
	<path class="st2" d="M185.4,228.9l0.6-4l0.6-4l0.8-3.5c-0.1-0.9,0.7-8.6,2.4-23.3c1.7-14.7,2.9-24,3.4-27.9
		c-3.9-0.8-6.4-1.7-7.4-2.6c-0.6-0.6-0.9-1.3-0.7-2c0.1-0.6,0.5-1.1,1.3-1.4c0.8-0.3,1.5-0.4,2.3-0.3c1.5,0.3,3.8,0.8,6.9,1.7
		c2.9,0.9,5.2,1.4,6.9,1.7c0.3,0.1,0.6,0.1,0.8,0.1l0.8,0.1c2.1,0.4,3.1,1.4,2.8,3.1c-0.1,0.8-0.6,1.4-1.4,1.9
		c-0.8,0.4-1.6,0.6-2.5,0.4c-0.7-0.1-1.6-0.4-2.6-0.8l-2-0.7l-0.2,0.4l-0.2,0.6c-1.2,6.8-2.3,16.8-3.4,29.9
		c-1.1,13.1-2.3,23.1-3.4,29.9c-0.1,0.8-0.6,1.5-1.4,2c-0.8,0.5-1.7,0.7-2.6,0.5L185.4,228.9z"/>
</g>
<g class="st1">
	<path class="st2" d="M211.7,233.5l0.6-4l0.6-4l0.8-3.5c-0.1-0.9,0.7-8.6,2.4-23.3c1.7-14.7,2.9-24,3.4-27.9
		c-3.9-0.8-6.4-1.7-7.4-2.6c-0.6-0.6-0.9-1.3-0.7-2c0.1-0.6,0.5-1.1,1.3-1.4c0.8-0.3,1.5-0.4,2.3-0.3c1.5,0.3,3.8,0.8,6.9,1.7
		c2.9,0.9,5.2,1.4,6.9,1.7c0.3,0.1,0.6,0.1,0.8,0.1l0.8,0.1c2.1,0.4,3.1,1.4,2.8,3.1c-0.1,0.8-0.6,1.4-1.4,1.9
		c-0.8,0.4-1.6,0.6-2.5,0.4c-0.7-0.1-1.6-0.4-2.6-0.8l-2-0.7l-0.2,0.4l-0.2,0.6c-1.2,6.8-2.3,16.8-3.4,29.9
		c-1.1,13.1-2.3,23.1-3.4,29.9c-0.1,0.8-0.6,1.5-1.4,2c-0.8,0.5-1.7,0.7-2.6,0.5L211.7,233.5z"/>
</g>
<g class="st1">
	<path class="st2" d="M234.4,237.8c-0.6-0.7-0.9-1.5-0.7-2.4l0.5-2.7c0.1-0.7,0.2-1.4,0.3-2.1l0.3-2.2c0.2-1.1,0.5-3.3,0.9-6.6
		c0.4-3.3,0.7-5.5,0.9-6.6c0.7-3.8,1.6-8.7,2.9-14.9c1.3-6.2,2.3-11.1,2.9-14.9c0.1-0.7,0.3-2.2,0.5-4.4c0.1-1.9,0.3-3.4,0.4-4.3
		c0.8-4.8,2.7-7,5.6-6.5c1.3,0.2,2.9,0.7,4.8,1.5c1.9,0.8,3.5,1.6,4.9,2.5c1.3,0.9,1.9,1.8,1.8,2.6c-0.1,0.7-0.5,1.3-1.2,1.7
		c-0.7,0.5-1.5,0.8-2.4,1c-3-1.6-5.4-2.7-7.4-3.3c-0.1,1.4-0.4,2.9-0.6,4.4c-0.3,2-0.8,4.4-1.5,7.3c-0.8,3.6-1.3,6-1.5,7.3l0,1.7
		l1.7,0.2c0.6,0.1,1.2,0.2,2,0.3c3.3,0.6,4.8,1.8,4.5,3.7c-0.1,0.7-0.5,1.3-1.3,1.8c-0.7,0.4-1.5,0.6-2.5,0.4c-1-0.2-2-0.4-2.9-0.7
		l-2.6-0.5c-0.2,2.6-0.6,5.2-1,7.8c-0.4,2.5-1,5.5-1.8,9.2c-1,4.6-1.6,7.6-1.9,9.2c-0.7,3.8-0.9,5.8-0.8,5.8l3.4,0.4l4.2,0.6
		c2.6,0.5,3.8,1.5,3.5,3.2c-0.2,1-0.7,1.6-1.7,2c-0.9,0.4-2,0.4-3.3,0.2l-8.6-1.5C235.7,239,235,238.5,234.4,237.8"/>
</g>
<path class="st0" d="M275.4,241.9c-0.8-3.4-1.2-7.2-1.3-11.4l-0.1-3.6c-0.2-10-0.5-15.8-0.8-17.4l-1.2-0.2c-0.3,2-0.7,3.8-1,5.4
	c-0.3,1.6-0.7,3.5-1,5.6c-1.6,9-2.1,16.2-1.7,21.7l-1.6,2.5l-2.8-0.5l-1.1-1.7l1.3-6.8c1-5.8,2.3-15.1,4-28.1
	c1.6-12.6,2.9-22,4-28.1c0.6-3.2,2-4.6,4.2-4.3c2.4,0.4,4.5,1.2,6.2,2.4c1.8,1.2,3.1,2.7,3.9,4.5c0.8,1.8,1,3.8,0.6,6.1l-1.2,7.2
	c-0.2,1-0.5,2.1-1.1,3.3c-0.6,1.2-1.2,2.3-1.7,3.1l-2.6,3.4l-2.1,2.7l0.3,10.1c0,5.3,0.2,9.6,0.6,13.1c0.3,3.5,0.9,6.7,1.7,9.6
	l0.4,1.4c0.2,0.8,0.4,1.4,0.5,1.9c0.1,0.5,0.1,1,0,1.5c-0.1,0.7-0.5,1.3-1,1.7c-0.5,0.4-1.1,0.6-1.8,0.5
	C277.2,247.3,276.1,245.4,275.4,241.9 M276.5,201.3c1.1-1.7,2.1-3.6,3-5.7c0.9-2.2,1.4-4.1,1.7-5.8c0.2-1.3,0.4-2.3,0.4-3.2
	c0.1-0.9,0-1.9-0.1-3c-0.1-1.1-0.6-2-1.2-2.8c-0.7-0.7-1.6-1.2-2.8-1.4l-0.3,0.6c-0.2,0.3-0.3,0.6-0.3,0.8
	c-0.6,3.4-1.2,7.4-1.9,12.1c-0.7,4.7-1.3,8.6-1.8,11.6C274.3,204,275.4,203,276.5,201.3"/>
<path class="st3" d="M355.8,132.2c0.4-1.2,1.1-3.1,0.3-3c-1.4,0.2-3.1,0.6-4.9,2.1c-3.2,2.6-7.7,9.1-10.1,12.9
	c-4.3-5.9-7.1-15.3-10.7-21.3c-3.6-6.1-11.9-14-16.7-18.1l0.2,0c-1-0.5-5.7-21.9-6.6-34.1c7-6.7,16.2-18.5,16.5-19.2
	c2.6-5,3.7-16,5.6-24.5c0.6-2.8,2.9-7.5,3.7-10.3c1-3.7,3.5-4.2,2-7c-2.6-4.7-5.5-6.1-10.7-3.3c-3.5,1.9-5.6,4.8-3.2,8.7
	c8.2,13.3,3.7,22.3-1.7,35c-2.2,5.2-6.7,10.1-11.7,14c1.5-3.2,2.9-6.6,5.2-9c5.6-5.8,8.4-11.8,7.9-20.2c-0.4-7.2-9.5-17.4-17.7-17.8
	c-10.9-0.5-20,5.4-22,14.9c-0.1,0.4-0.1,0.8-0.2,1.1c-0.6-5.9,0.5-11.9,4.7-18.8c2.4-3.9,0.3-6.8-3.2-8.7c-5.1-2.8-8.1-1.4-10.7,3.3
	c-1.5,2.8,1,3.4,2,7c0.8,2.8,3,7.5,3.7,10.3c1.9,8.4,2.5,17.7,5.5,25.4c0.3,0.8,12.7,15.5,19.7,21c0.1,0,0.1-0.1,0.2-0.1
	c1.2,13.4,4.4,33.3,4.4,33.3l0.2,0c-0.5,1.2-1.4,3.4-1.2,3.3c-4.4,16-11.4,42.2-16.1,59.3c-4.5-3-23.6-4.7-15,1
	c4.7,3.1,8,6.5,11.7,9.5c4.2,3.5,4.9,3,6.4-6.1c2.7-16.9,9.6-40.7,15.1-53.8c0.9-2.1,1.8-3.6,2.7-4.6c0.5-0.5,0.9-0.9,1.4-1.1
	c1.5-0.8,3-0.5,4.9,0.5c9.6,5.4,15.5,25.7,23.4,38.2c0.9,1.4,2.8,2.2,3.6,1c3.2-4.7,6.7-9.8,9.1-15.5
	C354.1,136,355.1,134.1,355.8,132.2 M294.4,23.5c8.2-2.9,18,1.6,21.2,9.8c2.8,7.4-2,17.5-9.7,20.3c-8.2,3-15.9-1.4-19.2-11
	C284,34.8,287.6,26,294.4,23.5 M288.5,53.8c3.4,2.8,7.9,5,13.2,6.2c0.5,2,0.7,3.8,0.5,5.4c-0.1,0-0.2,0-0.3,0
	C296.9,62.2,291.7,58.3,288.5,53.8"/>
</svg>
