<?xml version="1.0" encoding="utf-8"?>
<!-- Generator: Adobe Illustrator 19.1.0, SVG Export Plug-In . SVG Version: 6.00 Build 0)  -->
<svg version="1.1" id="Layer_1" xmlns="http://www.w3.org/2000/svg" xmlns:xlink="http://www.w3.org/1999/xlink" x="0px" y="0px"
	 viewBox="0 0 361.628 251.604" style="enable-background:new 0 0 361.628 251.604;" xml:space="preserve">
<style type="text/css">
	.st0{fill:#FFFFFF;filter:url(#AI_Shadow_2);}
	.st1{filter:url(#AI_Shadow_2);}
	.st2{fill:#FFFFFF;}
	.st3{fill-rule:evenodd;clip-rule:evenodd;fill:#FFFFFF;filter:url(#AI_Shadow_2);}
</style>
<filter  height="130%" width="140%" id="AI_Shadow_2" filterUnits="objectBoundingBox" y="-15%" x="-15%">
	<feGaussianBlur  stdDeviation="20" result="blur" in="SourceAlpha"></feGaussianBlur>
	<feOffset  dx="8" dy="8" result="offsetBlurredAlpha" in="blur"></feOffset>
	<feMerge>
		<feMergeNode  in="offsetBlurredAlpha"></feMergeNode>
		<feMergeNode  in="SourceGraphic"></feMergeNode>
	</feMerge>
</filter>
<path class="st0" d="M29.991,199.618c-0.459-0.519-0.6-1.294-0.421-2.326l2.469-14.245c-0.843-0.842-2.509-1.745-4.998-2.708
	c-2.49-0.962-4.914-1.722-7.271-2.277c-0.922,1.086-1.847,2.831-2.776,5.234l-0.607,1.598c-1.075,2.818-2.001,5.093-2.777,6.827
	c-0.777,1.734-1.599,3.094-2.465,4.079c-2.81-0.487-4.284-1.493-4.423-3.02c0.878-0.837,2.377-4.094,4.497-9.772
	c1.83-4.848,4.178-11.311,7.043-19.387c3.312-9.391,6.217-17.268,8.713-23.631c2.494-6.363,4.881-11.674,7.158-15.932
	c2.511-4.767,4.55-7.015,6.115-6.744c1.565,0.271,2.682,0.795,3.355,1.571c-0.469,2.704-0.976,9.852-1.519,21.444
	c-0.545,11.593-1.128,19.185-1.751,22.778c-0.592,3.415-1.157,8.996-1.693,16.742c-0.61,7.955-1.254,13.888-1.932,17.8
	c-0.425,2.454-1.848,3.472-4.266,3.053C31.267,200.499,30.45,200.137,29.991,199.618 M33.098,176.307
	c0.165-1.583,0.479-5.614,0.942-12.092c1.25-17.149,2.161-27.358,2.728-30.631c0.092-0.533,0.165-0.851,0.219-0.951
	c-0.835,0.589-2.401,3.705-4.699,9.352c-2.297,5.646-4.583,11.744-6.853,18.293c-2.271,6.549-3.648,10.899-4.131,13.05
	c2.952,1.355,6.118,2.325,9.497,2.911C31.443,176.35,32.208,176.372,33.098,176.307"/>
<g class="st1">
	<path class="st2" d="M58.814,204.538c-1.73-0.795-3.009-1.556-3.835-2.286c-4.296-3.968-5.231-12.942-2.808-26.92l0.509-2.934
		c0.131-0.967,0.313-2.125,0.547-3.477l0.453-2.614c0.604-3.485,1.112-6.2,1.522-8.144c0.41-1.943,0.965-4.302,1.666-7.075
		c0.7-2.772,1.439-5.026,2.216-6.76c0.777-1.734,1.84-3.638,3.189-5.712c1.246-1.909,2.602-3.341,4.069-4.296
		c1.465-0.955,3.301-1.662,5.506-2.123c2.056-0.449,4.382-0.449,6.979,0.001c1.102,0.191,1.894,0.595,2.374,1.208
		c0.479,0.614,0.649,1.331,0.507,2.149c-0.129,0.747-0.476,1.365-1.036,1.853c-0.561,0.49-1.164,0.696-1.81,0.62l-5.122-0.888
		c-1.423-0.247-2.844,0.451-4.264,2.091c-1.42,1.641-2.632,3.876-3.636,6.706c-1.862,5.246-3.083,9.541-3.663,12.884l-0.092,0.533
		c-0.499,2.881-1.178,6.372-2.035,10.473c-1.085,5.197-1.783,8.704-2.098,10.517c-0.432,2.49-0.699,4.77-0.801,6.841
		c-0.057,1.383-0.039,2.603,0.051,3.663c0.091,1.06,0.316,2.135,0.678,3.223c0.313,1.153,0.766,2.13,1.36,2.929
		c0.594,0.799,1.388,1.504,2.381,2.116c0.951,0.641,2.121,1.082,3.508,1.322c0.888,0.154,1.727-0.03,2.514-0.553
		c0.924,0.16,1.671,0.501,2.241,1.02c0.569,0.52,0.785,1.172,0.65,1.954c-0.499,2.881-2.758,3.973-6.777,3.276
		C62.192,205.866,60.544,205.333,58.814,204.538"/>
</g>
<g class="st1">
	<path class="st2" d="M85.979,208.554l0.627-4.252l0.618-4.199l0.811-3.724c-0.136-0.907,0.696-9.089,2.496-24.546
		c1.801-15.457,3.001-25.232,3.6-29.324c-4.179-0.835-6.819-1.77-7.921-2.808c-0.66-0.63-0.925-1.32-0.795-2.07
		c0.112-0.643,0.581-1.132,1.408-1.467c0.827-0.334,1.65-0.431,2.468-0.289c1.636,0.284,4.081,0.873,7.332,1.768
		c3.103,0.906,5.544,1.513,7.323,1.822c0.32,0.055,0.607,0.087,0.863,0.094l0.906,0.157c2.276,0.395,3.264,1.468,2.96,3.218
		c-0.149,0.857-0.638,1.509-1.466,1.954c-0.828,0.445-1.722,0.584-2.682,0.418c-0.747-0.13-1.668-0.418-2.763-0.865l-2.122-0.754
		l-0.191,0.464l-0.219,0.624c-1.239,7.146-2.433,17.63-3.583,31.451c-1.152,13.822-2.349,24.324-3.594,31.505
		c-0.149,0.857-0.663,1.551-1.541,2.078c-0.88,0.529-1.8,0.709-2.76,0.543L85.979,208.554z"/>
</g>
<path class="st0" d="M119.223,216.729c0.37-2.134,1.169-6.257,2.398-12.368c1.229-6.11,2.028-10.233,2.398-12.368
	c0.894-5.154,1.962-12.003,3.207-20.547c1.244-8.543,2.313-15.392,3.207-20.547l0.102-0.591c0.171-0.985,0.348-1.817,0.534-2.495
	c0.185-0.678,0.467-1.423,0.845-2.238c0.351-0.852,0.847-1.476,1.492-1.872c0.643-0.396,1.392-0.52,2.246-0.372
	c3.151,0.546,5.755,1.717,7.812,3.511c2.056,1.794,3.475,4.044,4.257,6.749c0.782,2.706,0.892,5.684,0.328,8.934
	c-0.347,2.003-1.082,4.048-2.205,6.136c-1.123,2.088-2.471,3.96-4.043,5.615c-1.572,1.655-3.188,2.88-4.847,3.674
	c3.451,3.305,5.743,7.203,6.876,11.693c1.132,4.491,1.269,9.216,0.409,14.173c-0.421,2.43-1.713,5.199-3.875,8.307
	c-1.338,1.865-2.759,3.428-4.263,4.689c-1.504,1.261-3.276,2.222-5.319,2.882c-2.218,0.698-4.508,0.842-6.873,0.432l-0.394-0.068
	C120.363,219.514,118.932,218.404,119.223,216.729 M134.863,174.648c0.902-0.621,1.754-1.489,2.556-2.601
	c1.321-1.766,2.655-3.903,4.003-6.408c0.654-1.239,1.142-2.101,1.463-2.587l0.623-3.595c0.228-1.313,0.113-2.702-0.343-4.168
	c-0.456-1.465-1.168-2.73-2.132-3.794c-0.966-1.064-2.056-1.701-3.27-1.911c-0.953-0.165-1.61,0.803-1.975,2.904
	c-0.569,3.284-1.187,7.235-1.852,11.853c-0.666,4.62-1.252,8.39-1.758,11.312C133.065,175.604,133.96,175.27,134.863,174.648
	 M131.963,213.612c1.847-0.999,3.375-2.399,4.584-4.202c1.208-1.802,2.018-3.886,2.428-6.25c0.535-3.086,0.771-5.962,0.709-8.627
	c-0.062-2.666-0.37-4.739-0.925-6.222c-0.54-1.379-1.109-2.577-1.71-3.594c-0.602-1.018-1.139-1.72-1.613-2.106l-0.729-0.481
	l-3.595-0.623c-1.209,8.922-2.976,20.097-5.304,33.525C128.064,215.084,130.116,214.61,131.963,213.612"/>
<g class="st1">
	<path class="st2" d="M152.936,224.016c-0.601-0.73-0.843-1.524-0.728-2.384l0.461-2.66c0.125-0.721,0.225-1.398,0.301-2.027
		l0.268-2.135c0.188-1.084,0.478-3.247,0.872-6.494c0.387-3.213,0.679-5.377,0.873-6.495c0.643-3.709,1.609-8.598,2.897-14.665
		c1.288-6.067,2.254-10.955,2.897-14.666c0.125-0.722,0.291-2.164,0.497-4.327c0.127-1.905,0.274-3.334,0.439-4.287
		c0.825-4.76,2.649-6.896,5.473-6.406c1.281,0.222,2.862,0.707,4.744,1.456c1.882,0.75,3.479,1.585,4.791,2.505
		c1.311,0.921,1.896,1.791,1.753,2.612c-0.12,0.689-0.506,1.257-1.157,1.702c-0.653,0.444-1.434,0.758-2.344,0.938
		c-2.91-1.553-5.343-2.634-7.301-3.244c-0.147,1.429-0.347,2.882-0.603,4.359c-0.342,1.97-0.826,4.372-1.452,7.206
		c-0.779,3.517-1.279,5.917-1.501,7.197l0.022,1.627l1.642,0.184c0.564,0.064,1.223,0.162,1.978,0.293
		c3.251,0.564,4.716,1.765,4.397,3.603c-0.125,0.723-0.538,1.302-1.24,1.738c-0.701,0.437-1.512,0.575-2.43,0.416
		c-0.985-0.171-1.926-0.401-2.822-0.692l-2.562-0.444c-0.246,2.595-0.589,5.157-1.027,7.685c-0.421,2.43-1.014,5.455-1.777,9.077
		c-0.95,4.502-1.561,7.541-1.834,9.118c-0.655,3.775-0.917,5.675-0.785,5.697l3.325,0.424l4.153,0.619
		c2.561,0.444,3.7,1.487,3.415,3.129c-0.165,0.953-0.709,1.602-1.631,1.949c-0.923,0.347-1.992,0.415-3.206,0.205l-8.52-1.477
		C154.296,225.19,153.536,224.745,152.936,224.016"/>
</g>
<g class="st1">
	<path class="st2" d="M184.997,229.131l0.589-3.984l0.581-3.933l0.757-3.489c-0.124-0.849,0.664-8.513,2.363-22.994
		c1.698-14.48,2.83-23.637,3.393-27.471c-3.857-0.772-6.294-1.642-7.309-2.611c-0.608-0.588-0.851-1.234-0.729-1.937
		c0.105-0.603,0.539-1.062,1.304-1.377c0.765-0.315,1.525-0.409,2.28-0.278c1.509,0.262,3.765,0.808,6.767,1.639
		c2.863,0.841,5.116,1.404,6.758,1.689c0.295,0.051,0.56,0.08,0.797,0.086l0.837,0.145c2.101,0.364,3.01,1.367,2.725,3.007
		c-0.139,0.803-0.592,1.414-1.357,1.833c-0.766,0.419-1.592,0.551-2.479,0.397c-0.689-0.12-1.54-0.387-2.549-0.804l-1.959-0.701
		l-0.177,0.435l-0.203,0.585c-1.161,6.695-2.289,16.516-3.383,29.463c-1.095,12.948-2.225,22.785-3.391,29.513
		c-0.139,0.803-0.616,1.454-1.429,1.951c-0.814,0.497-1.663,0.668-2.55,0.514L184.997,229.131z"/>
</g>
<g class="st1">
	<path class="st2" d="M210.908,233.707l0.589-3.984l0.581-3.933l0.756-3.489c-0.124-0.849,0.665-8.514,2.364-22.994
		c1.698-14.48,2.83-23.637,3.393-27.47c-3.857-0.772-6.294-1.642-7.309-2.611c-0.608-0.588-0.851-1.234-0.729-1.937
		c0.105-0.603,0.539-1.061,1.304-1.377c0.765-0.315,1.525-0.408,2.28-0.277c1.51,0.262,3.765,0.808,6.767,1.639
		c2.863,0.841,5.116,1.405,6.758,1.689c0.295,0.051,0.56,0.08,0.797,0.086l0.837,0.145c2.101,0.364,3.01,1.367,2.725,3.007
		c-0.139,0.803-0.592,1.415-1.357,1.833c-0.766,0.419-1.593,0.551-2.479,0.398c-0.689-0.12-1.54-0.387-2.549-0.804l-1.959-0.701
		l-0.177,0.435l-0.203,0.585c-1.161,6.696-2.289,16.517-3.383,29.463c-1.095,12.948-2.225,22.785-3.391,29.513
		c-0.139,0.803-0.616,1.454-1.429,1.95c-0.814,0.498-1.663,0.669-2.55,0.515L210.908,233.707z"/>
</g>
<g class="st1">
	<path class="st2" d="M233.259,237.941c-0.601-0.73-0.844-1.524-0.728-2.384l0.461-2.66c0.125-0.721,0.225-1.398,0.301-2.028
		l0.269-2.135c0.188-1.084,0.478-3.247,0.872-6.494c0.387-3.213,0.678-5.378,0.872-6.495c0.643-3.709,1.609-8.598,2.897-14.665
		c1.288-6.067,2.254-10.955,2.898-14.665c0.125-0.722,0.29-2.164,0.496-4.327c0.128-1.905,0.274-3.334,0.439-4.287
		c0.825-4.76,2.649-6.896,5.473-6.406c1.28,0.222,2.861,0.707,4.744,1.456c1.882,0.75,3.479,1.585,4.791,2.505
		c1.312,0.921,1.896,1.791,1.753,2.612c-0.12,0.689-0.505,1.257-1.157,1.702c-0.653,0.444-1.434,0.758-2.344,0.938
		c-2.91-1.553-5.344-2.634-7.301-3.244c-0.147,1.429-0.347,2.882-0.604,4.359c-0.342,1.97-0.826,4.372-1.452,7.206
		c-0.779,3.517-1.279,5.917-1.501,7.197l0.022,1.627l1.642,0.183c0.564,0.064,1.223,0.162,1.979,0.293
		c3.25,0.563,4.716,1.765,4.397,3.603c-0.125,0.723-0.538,1.302-1.24,1.738c-0.702,0.436-1.512,0.575-2.43,0.416
		c-0.985-0.171-1.927-0.401-2.822-0.692l-2.561-0.444c-0.246,2.595-0.589,5.157-1.028,7.685c-0.421,2.43-1.014,5.455-1.777,9.077
		c-0.95,4.502-1.561,7.541-1.834,9.118c-0.655,3.775-0.917,5.675-0.785,5.697l3.325,0.424l4.154,0.619
		c2.561,0.444,3.699,1.487,3.415,3.128c-0.165,0.953-0.709,1.602-1.631,1.949c-0.922,0.347-1.992,0.415-3.206,0.205l-8.52-1.477
		C234.619,239.115,233.86,238.67,233.259,237.941"/>
</g>
<path class="st0" d="M273.723,241.992c-0.739-3.341-1.17-7.102-1.29-11.282l-0.1-3.517c-0.215-9.879-0.493-15.591-0.834-17.139
	l-1.232-0.214c-0.342,1.97-0.668,3.757-0.98,5.36c-0.312,1.603-0.65,3.455-1.014,5.557c-1.543,8.898-2.117,16.018-1.725,21.362
	l-1.602,2.512l-2.807-0.487l-1.073-1.708l1.268-6.73c0.985-5.68,2.296-14.904,3.935-27.675c1.544-12.414,2.842-21.658,3.895-27.733
	c0.552-3.184,1.944-4.583,4.177-4.196c2.364,0.41,4.417,1.197,6.16,2.361c1.742,1.165,3.018,2.638,3.825,4.417
	c0.807,1.781,1.018,3.787,0.631,6.019l-1.229,7.092c-0.165,0.953-0.539,2.037-1.122,3.255c-0.583,1.218-1.152,2.253-1.704,3.103
	l-2.553,3.312l-2.089,2.682l0.256,9.936c0.048,5.183,0.232,9.485,0.553,12.905c0.32,3.421,0.87,6.585,1.651,9.493l0.419,1.391
	c0.241,0.752,0.402,1.381,0.485,1.885c0.082,0.505,0.083,0.987,0.003,1.447c-0.125,0.722-0.445,1.292-0.956,1.711
	c-0.512,0.418-1.097,0.571-1.753,0.457C275.504,247.323,274.439,245.464,273.723,241.992 M274.854,201.961
	c1.112-1.634,2.089-3.519,2.934-5.655c0.843-2.137,1.414-4.058,1.71-5.765c0.216-1.247,0.35-2.315,0.403-3.203
	c0.052-0.886,0.022-1.881-0.091-2.983c-0.146-1.108-0.556-2.016-1.227-2.724c-0.672-0.708-1.596-1.181-2.772-1.419l-0.251,0.565
	c-0.194,0.339-0.308,0.606-0.342,0.803c-0.581,3.349-1.204,7.333-1.87,11.952c-0.672,4.652-1.262,8.456-1.775,11.411
	C272.648,204.589,273.742,203.594,274.854,201.961"/>
<path class="st3" d="M352.973,133.814c0.44-1.174,1.057-3.064,0.294-2.936c-1.359,0.225-3.082,0.587-4.843,2.055
	c-3.11,2.592-7.582,8.988-9.917,12.763c-4.213-5.795-7.033-15.117-10.523-20.971c-3.591-6.023-11.777-13.831-16.46-17.876
	l0.216-0.033c-1.012-0.467-5.652-21.58-6.519-33.616c6.887-6.642,15.929-18.267,16.277-18.939
	c2.522-4.899,3.621-15.798,5.525-24.123c0.637-2.784,2.885-7.351,3.637-10.14c0.978-3.63,3.453-4.153,1.932-6.944
	c-2.52-4.628-5.454-6.017-10.523-3.247c-3.461,1.894-5.533,4.779-3.202,8.59c8.059,13.161,3.665,21.977-1.677,34.488
	c-2.182,5.109-6.632,9.934-11.494,13.833c1.491-3.199,2.852-6.527,5.174-8.908c5.541-5.69,8.27-11.661,7.757-19.948
	c-0.435-7.08-9.337-17.164-17.485-17.539c-10.768-0.503-19.714,5.291-21.648,14.673c-0.078,0.38-0.147,0.758-0.207,1.133
	c-0.635-5.841,0.484-11.736,4.673-18.577c2.331-3.81,0.258-6.696-3.203-8.589c-5.069-2.771-8.002-1.381-10.523,3.245
	c-1.52,2.792,0.954,3.314,1.932,6.945c0.753,2.787,3.001,7.356,3.638,10.138c1.905,8.328,2.42,17.482,5.458,25.062
	c0.325,0.81,12.5,15.268,19.378,20.694c0.055-0.037,0.103-0.08,0.158-0.119c1.162,13.185,4.301,32.823,4.301,32.823l0.204-0.028
	c-0.454,1.221-1.352,3.353-1.177,3.276c-4.34,15.78-11.234,41.593-15.865,58.43c-4.413-2.992-23.299-4.616-14.781,1.013
	c4.663,3.082,7.932,6.393,11.509,9.392c4.094,3.432,4.848,2.968,6.304-5.982c2.708-16.629,9.431-40.121,14.898-53.028
	c0.884-2.088,1.774-3.588,2.702-4.583c0.458-0.491,0.926-0.858,1.407-1.114c1.443-0.764,3.006-0.509,4.789,0.501
	c9.472,5.365,15.278,25.339,23.113,37.633c0.884,1.387,2.779,2.148,3.541,1.033c3.146-4.607,6.6-9.701,8.991-15.251
	C351.355,137.6,352.251,135.74,352.973,133.814 M292.48,26.687c8.071-2.898,17.79,1.592,20.868,9.645
	c2.808,7.34-1.944,17.246-9.6,20.024c-8.088,2.932-15.681-1.42-18.935-10.857C282.174,37.853,285.738,29.11,292.48,26.687
	 M286.602,56.514c3.362,2.796,7.756,4.898,13.053,6.108c0.516,1.974,0.693,3.752,0.468,5.334c-0.127,0.01-0.241,0.025-0.335,0.046
	C294.934,64.83,289.807,60.992,286.602,56.514"/>
</svg>
