<?xml version="1.0" encoding="utf-8"?>
<!-- Generator: Adobe Illustrator 19.1.0, SVG Export Plug-In . SVG Version: 6.00 Build 0)  -->
<svg version="1.1" id="Layer_1" xmlns="http://www.w3.org/2000/svg" xmlns:xlink="http://www.w3.org/1999/xlink" x="0px" y="0px"
	 viewBox="0 0 518.2 360.5" style="enable-background:new 0 0 518.2 360.5;" xml:space="preserve">
<style type="text/css">
	.st0{fill:#FFFFFF;}
	.st1{fill-rule:evenodd;clip-rule:evenodd;fill:#FFFFFF;}
</style>
<path class="st0" d="M34.9,308.3c-0.7-0.7-1-1.9-0.8-3.4l2.6-21.2c-1.3-1.2-3.8-2.4-7.6-3.6c-3.8-1.2-7.4-2.2-10.9-2.8
	c-1.3,1.7-2.5,4.3-3.7,7.9l-0.8,2.4c-1.4,4.2-2.6,7.7-3.6,10.3c-1,2.6-2.1,4.7-3.3,6.2c-4.2-0.5-6.4-1.9-6.8-4.1
	c1.2-1.3,3.2-6.2,5.9-14.8c2.3-7.3,5.3-17,8.9-29.2c4.2-14.1,7.9-26,11.1-35.6c3.2-9.6,6.3-17.6,9.4-24.1c3.4-7.2,6.2-10.7,8.5-10.4
	c2.3,0.3,4,1,5.1,2.1c-0.5,4-0.7,14.6-0.6,31.8c0.1,17.2-0.2,28.5-0.9,33.8c-0.6,5.1-1,13.4-1.2,24.9c-0.3,11.8-0.8,20.6-1.5,26.5
	c-0.4,3.7-2.5,5.3-6.1,4.8C36.9,309.5,35.6,309.1,34.9,308.3 M37.7,273.6c0.1-2.4,0.3-8.3,0.5-18c0.5-25.5,1.1-40.6,1.7-45.5
	c0.1-0.8,0.2-1.3,0.3-1.4c-1.2,0.9-3.3,5.7-6.2,14.2c-3,8.5-5.9,17.7-8.7,27.6c-2.9,9.9-4.6,16.4-5.1,19.6c4.5,1.8,9.2,3,14.3,3.6
	C35.3,273.8,36.4,273.8,37.7,273.6"/>
<path class="st0" d="M77.9,313.4c-2.6-1-4.6-2.1-5.8-3.1c-6.7-5.5-8.7-18.7-6.2-39.6l0.5-4.4c0.1-1.4,0.3-3.2,0.5-5.2l0.5-3.9
	c0.6-5.2,1.2-9.3,1.6-12.2c0.5-2.9,1.1-6.4,1.9-10.6c0.8-4.2,1.7-7.5,2.8-10.2c1-2.6,2.4-5.5,4.3-8.7c1.7-2.9,3.6-5.1,5.7-6.7
	c2.1-1.5,4.8-2.7,8-3.6c3-0.8,6.4-1,10.3-0.5c1.6,0.2,2.8,0.7,3.6,1.6c0.8,0.9,1.1,1.9,0.9,3.1c-0.1,1.1-0.6,2.1-1.4,2.8
	c-0.8,0.8-1.7,1.1-2.6,1.1l-7.6-0.9c-2.1-0.3-4.2,0.9-6.1,3.4c-2,2.5-3.6,5.9-4.9,10.2c-2.4,7.9-3.8,14.3-4.4,19.3l-0.1,0.8
	c-0.5,4.3-1.3,9.5-2.2,15.6c-1.2,7.8-2,13-2.3,15.7c-0.4,3.7-0.7,7.1-0.7,10.2c0,2,0.1,3.9,0.4,5.4c0.2,1.6,0.6,3.1,1.2,4.7
	c0.6,1.7,1.3,3.1,2.2,4.2c0.9,1.1,2.2,2.1,3.7,2.9c1.5,0.9,3.2,1.4,5.3,1.7c1.3,0.2,2.6-0.2,3.7-1c1.4,0.2,2.5,0.6,3.4,1.3
	c0.9,0.7,1.3,1.7,1.1,2.8c-0.5,4.3-3.8,6.1-9.8,5.4C83,315.1,80.5,314.5,77.9,313.4"/>
<path class="st0" d="M118.4,317.3l0.6-6.3l0.6-6.3l0.9-5.6c-0.3-1.3,0.3-13.5,1.8-36.5c1.5-23,2.5-37.5,3.1-43.6
	c-6.2-0.9-10.2-2.1-11.9-3.6c-1-0.9-1.5-1.9-1.3-3c0.1-1,0.8-1.7,2-2.3c1.2-0.6,2.4-0.8,3.6-0.6c2.4,0.3,6.1,1,11,2.1
	c4.7,1.1,8.3,1.8,11,2.1c0.5,0.1,0.9,0.1,1.3,0.1l1.4,0.2c3.4,0.4,4.9,1.9,4.6,4.5c-0.2,1.3-0.8,2.3-2,3c-1.2,0.7-2.5,1-3.9,0.8
	c-1.1-0.1-2.5-0.5-4.2-1.1l-3.2-1l-0.2,0.7l-0.3,0.9c-1.3,10.7-2.3,26.3-2.9,46.8c-0.7,20.5-1.6,36.1-2.9,46.9
	c-0.2,1.3-0.9,2.3-2.1,3.2c-1.3,0.8-2.6,1.2-4,1L118.4,317.3z"/>
<path class="st0" d="M168.2,326.9c0.4-3.2,1.3-9.3,2.6-18.5c1.4-9.1,2.2-15.3,2.6-18.5c0.9-7.7,2-17.9,3.2-30.6
	c1.2-12.7,2.3-22.9,3.2-30.6l0.1-0.9c0.2-1.5,0.4-2.7,0.6-3.7c0.2-1,0.6-2.1,1.1-3.4c0.5-1.3,1.1-2.2,2.1-2.9c0.9-0.6,2-0.9,3.3-0.7
	c4.7,0.6,8.6,2.1,11.8,4.6c3.2,2.5,5.4,5.7,6.8,9.7c1.4,3.9,1.8,8.3,1.2,13.2c-0.4,3-1.3,6.1-2.8,9.2c-1.5,3.2-3.4,6-5.6,8.6
	c-2.2,2.6-4.5,4.5-6.9,5.8c5.4,4.6,9,10.2,11.1,16.8c2,6.6,2.6,13.5,1.7,20.9c-0.4,3.6-2.1,7.8-5.1,12.6c-1.8,2.9-3.8,5.3-5.9,7.3
	c-2.1,2-4.7,3.5-7.6,4.7c-3.2,1.2-6.6,1.6-10.1,1.2l-0.6-0.1C170.1,330.9,167.9,329.4,168.2,326.9 M188.1,263.5c1.3-1,2.5-2.3,3.6-4
	c1.8-2.7,3.6-6,5.4-9.8c0.9-1.9,1.5-3.2,2-3.9l0.6-5.4c0.2-2,0-4-0.8-6.1c-0.8-2.1-1.9-3.9-3.4-5.4c-1.5-1.5-3.2-2.4-5-2.6
	c-1.4-0.2-2.3,1.3-2.7,4.4c-0.6,4.9-1.2,10.8-1.8,17.7c-0.6,6.9-1.2,12.5-1.7,16.9C185.5,265,186.8,264.4,188.1,263.5 M186.8,321.3
	c2.7-1.6,4.8-3.8,6.5-6.6c1.7-2.8,2.7-5.9,3.1-9.4c0.6-4.6,0.7-8.9,0.4-12.8s-0.9-7-1.8-9.1c-0.9-2-1.8-3.7-2.8-5.2
	c-1-1.5-1.8-2.5-2.5-3l-1.1-0.7l-5.4-0.6c-1.1,13.3-2.9,29.9-5.3,50C181.1,323.8,184.1,322.9,186.8,321.3"/>
<path class="st0" d="M218.6,335.1c-0.9-1-1.4-2.2-1.3-3.5l0.5-4c0.1-1.1,0.2-2.1,0.3-3l0.2-3.2c0.2-1.6,0.5-4.8,0.8-9.7
	c0.3-4.8,0.6-8,0.8-9.7c0.7-5.5,1.7-12.8,3.2-21.9c1.4-9.1,2.5-16.4,3.2-21.9c0.1-1.1,0.3-3.2,0.4-6.4c0-2.8,0.2-5,0.3-6.4
	c0.9-7.1,3.4-10.4,7.6-9.9c1.9,0.2,4.3,0.8,7.1,1.8c2.8,1,5.3,2.1,7.3,3.3c2,1.3,2.9,2.5,2.8,3.7c-0.1,1-0.7,1.9-1.6,2.6
	c-0.9,0.7-2.1,1.2-3.4,1.6c-4.4-2.1-8.1-3.5-11-4.2c-0.1,2.1-0.3,4.3-0.6,6.5c-0.4,2.9-0.9,6.5-1.6,10.8c-0.9,5.3-1.4,8.8-1.7,10.8
	l0.2,2.4l2.4,0.1c0.8,0.1,1.8,0.1,2.9,0.3c4.8,0.6,7.1,2.3,6.8,5c-0.1,1.1-0.7,2-1.7,2.7c-1,0.7-2.2,1-3.6,0.8
	c-1.5-0.2-2.9-0.4-4.2-0.8l-3.8-0.5c-0.2,3.9-0.5,7.7-0.9,11.4c-0.4,3.6-1.1,8.1-1.9,13.6c-1.1,6.7-1.7,11.3-2,13.6
	c-0.7,5.6-0.9,8.5-0.7,8.5l4.9,0.4l6.2,0.6c3.8,0.5,5.6,1.9,5.3,4.4c-0.2,1.4-0.9,2.4-2.3,3c-1.3,0.6-2.9,0.8-4.7,0.5l-12.7-1.5
	C220.7,336.7,219.5,336.1,218.6,335.1"/>
<path class="st0" d="M266.4,340.2l0.6-5.9l0.6-5.9l0.9-5.2c-0.2-1.2,0.3-12.6,1.7-34.2c1.4-21.5,2.4-35.2,2.9-40.9
	c-5.8-0.8-9.4-1.9-11-3.3c-0.9-0.8-1.4-1.8-1.2-2.8c0.1-0.9,0.7-1.6,1.8-2.1c1.1-0.5,2.2-0.7,3.4-0.6c2.3,0.3,5.6,0.9,10.1,1.9
	c4.3,1,7.7,1.7,10.1,2c0.4,0.1,0.8,0.1,1.2,0.1l1.2,0.2c3.1,0.4,4.6,1.8,4.3,4.2c-0.1,1.2-0.8,2.1-1.9,2.8c-1.1,0.7-2.3,0.9-3.6,0.8
	c-1-0.1-2.3-0.5-3.8-1l-2.9-0.9l-0.2,0.7l-0.3,0.9c-1.2,10-2.1,24.6-2.8,43.8c-0.6,19.2-1.6,33.9-2.8,43.9c-0.1,1.2-0.8,2.2-2,3
	c-1.2,0.8-2.4,1.1-3.7,1L266.4,340.2z"/>
<path class="st0" d="M305,345l0.6-5.9l0.6-5.9l0.9-5.2c-0.2-1.2,0.3-12.6,1.7-34.2c1.4-21.5,2.4-35.2,2.9-40.9
	c-5.8-0.8-9.4-2-11-3.3c-0.9-0.8-1.4-1.8-1.2-2.8c0.1-0.9,0.7-1.6,1.8-2.1c1.1-0.5,2.2-0.7,3.4-0.6c2.3,0.3,5.6,0.9,10.1,1.9
	c4.3,1,7.7,1.7,10.1,2c0.4,0.1,0.8,0.1,1.2,0.1l1.2,0.2c3.1,0.4,4.6,1.8,4.3,4.2c-0.1,1.2-0.8,2.1-1.9,2.8c-1.1,0.7-2.3,0.9-3.6,0.8
	c-1-0.1-2.3-0.5-3.8-1l-2.9-0.9l-0.2,0.7l-0.3,0.9c-1.2,10-2.1,24.6-2.8,43.8c-0.6,19.2-1.6,33.9-2.8,43.9c-0.1,1.2-0.8,2.2-2,3
	c-1.2,0.8-2.4,1.1-3.7,1L305,345z"/>
<path class="st0" d="M338.4,349.6c-0.9-1-1.4-2.2-1.3-3.5l0.5-4c0.1-1.1,0.2-2.1,0.3-3l0.2-3.2c0.2-1.6,0.5-4.8,0.8-9.7
	c0.3-4.8,0.6-8,0.8-9.7c0.7-5.5,1.7-12.8,3.2-21.9c1.4-9.1,2.5-16.4,3.2-21.9c0.1-1.1,0.3-3.2,0.4-6.4c0-2.8,0.2-5,0.3-6.4
	c0.9-7.1,3.4-10.4,7.6-9.9c1.9,0.2,4.3,0.8,7.1,1.8c2.8,1,5.3,2.1,7.3,3.3c2,1.3,2.9,2.5,2.8,3.7c-0.1,1-0.7,1.9-1.6,2.6
	c-0.9,0.7-2.1,1.2-3.4,1.6c-4.4-2.1-8.1-3.5-11-4.2c-0.1,2.1-0.3,4.3-0.6,6.5c-0.4,2.9-0.9,6.5-1.6,10.8c-0.9,5.3-1.4,8.8-1.7,10.8
	l0.2,2.4l2.4,0.1c0.8,0.1,1.8,0.1,2.9,0.3c4.8,0.6,7.1,2.3,6.8,5c-0.1,1.1-0.7,2-1.7,2.7c-1,0.7-2.2,1-3.6,0.8
	c-1.5-0.2-2.9-0.4-4.2-0.8l-3.8-0.5c-0.2,3.9-0.5,7.7-0.9,11.4c-0.4,3.6-1.1,8.1-1.9,13.6c-1.1,6.7-1.7,11.3-2,13.6
	c-0.7,5.6-0.9,8.5-0.7,8.5l4.9,0.4l6.2,0.6c3.8,0.5,5.6,1.9,5.3,4.4c-0.2,1.4-0.9,2.4-2.3,3c-1.3,0.6-2.9,0.8-4.7,0.5l-12.7-1.5
	C340.5,351.2,339.3,350.6,338.4,349.6"/>
<path class="st0" d="M398.5,352.5c-1.3-4.9-2.3-10.4-2.8-16.6l-0.4-5.2c-1.1-14.6-1.9-23-2.5-25.3l-1.8-0.2c-0.4,2.9-0.7,5.6-1,8
	c-0.3,2.4-0.7,5.2-1.1,8.3c-1.6,13.3-1.9,23.8-0.9,31.7l-2.2,3.8l-4.2-0.5l-1.7-2.4l1.4-10c1-8.5,2.3-22.2,3.7-41.2
	c1.3-18.5,2.6-32.2,3.7-41.3c0.6-4.7,2.5-6.9,5.9-6.5c3.5,0.4,6.6,1.4,9.3,3c2.7,1.6,4.7,3.7,6,6.2c1.3,2.6,1.8,5.5,1.4,8.9
	l-1.3,10.6c-0.2,1.4-0.6,3.1-1.4,4.9c-0.8,1.8-1.5,3.4-2.3,4.7l-3.5,5.1l-2.9,4.1l1.1,14.7c0.5,7.7,1.1,14,1.8,19
	c0.7,5,1.8,9.7,3.2,13.9l0.7,2c0.4,1.1,0.7,2,0.9,2.7c0.2,0.7,0.2,1.5,0.1,2.1c-0.1,1.1-0.6,1.9-1.3,2.6c-0.7,0.7-1.6,0.9-2.6,0.8
	C401.6,360.2,399.8,357.6,398.5,352.5 M397.2,293.2c1.5-2.5,2.8-5.4,3.9-8.6c1.1-3.2,1.8-6.1,2.1-8.7c0.2-1.9,0.3-3.4,0.4-4.8
	c0-1.3-0.1-2.8-0.4-4.4c-0.3-1.6-1-2.9-2-3.9c-1-1-2.4-1.6-4.2-1.9l-0.3,0.9c-0.3,0.5-0.4,0.9-0.4,1.2c-0.6,5-1.2,10.9-1.9,17.8
	c-0.6,6.9-1.2,12.6-1.8,17C394.1,297.3,395.6,295.7,397.2,293.2"/>
<path class="st1" d="M517.2,186.9c0.7-1.7,1.6-4.5,0.4-4.3c-2,0.3-4.6,0.9-7.2,3c-4.6,3.8-11.2,13.3-14.7,18.9
	c-6.2-8.6-10.4-22.4-15.6-31c-5.3-8.9-17.4-20.5-24.4-26.5l0.3,0c-1.5-0.7-8.4-32-9.7-49.8c10.2-9.8,23.6-27,24.1-28
	c3.7-7.3,5.4-23.4,8.2-35.7c0.9-4.1,4.3-10.9,5.4-15c1.4-5.4,5.1-6.1,2.9-10.3c-3.7-6.9-8.1-8.9-15.6-4.8c-5.1,2.8-8.2,7.1-4.7,12.7
	c11.9,19.5,5.4,32.5-2.5,51.1c-3.2,7.6-9.8,14.7-17,20.5c2.2-4.7,4.2-9.7,7.7-13.2c8.2-8.4,12.2-17.3,11.5-29.5
	c-0.6-10.5-13.8-25.4-25.9-26c-15.9-0.7-29.2,7.8-32.1,21.7c-0.1,0.6-0.2,1.1-0.3,1.7c-0.9-8.6,0.7-17.4,6.9-27.5
	c3.5-5.6,0.4-9.9-4.7-12.7c-7.5-4.1-11.8-2-15.6,4.8c-2.3,4.1,1.4,4.9,2.9,10.3c1.1,4.1,4.4,10.9,5.4,15c2.8,12.3,3.6,25.9,8.1,37.1
	c0.5,1.2,18.5,22.6,28.7,30.6c0.1-0.1,0.2-0.1,0.2-0.2c1.7,19.5,6.4,48.6,6.4,48.6l0.3,0c-0.7,1.8-2,5-1.7,4.8
	c-6.4,23.4-16.6,61.6-23.5,86.5c-6.5-4.4-34.5-6.8-21.9,1.5c6.9,4.6,11.7,9.5,17,13.9c6.1,5.1,7.2,4.4,9.3-8.9
	c4-24.6,14-59.4,22.1-78.5c1.3-3.1,2.6-5.3,4-6.8c0.7-0.7,1.4-1.3,2.1-1.6c2.1-1.1,4.5-0.8,7.1,0.7c14,7.9,22.6,37.5,34.2,55.7
	c1.3,2.1,4.1,3.2,5.2,1.5c4.7-6.8,9.8-14.4,13.3-22.6C514.8,192.5,516.1,189.8,517.2,186.9 M427.6,28.3c11.9-4.3,26.3,2.4,30.9,14.3
	c4.2,10.9-2.9,25.5-14.2,29.6c-12,4.3-23.2-2.1-28-16.1C412.4,44.9,417.6,31.9,427.6,28.3 M418.9,72.5c5,4.1,11.5,7.3,19.3,9
	c0.8,2.9,1,5.6,0.7,7.9c-0.2,0-0.4,0-0.5,0.1C431.3,84.8,423.7,79.1,418.9,72.5"/>
</svg>
