<?xml version="1.0" encoding="utf-8"?>
<!-- Generator: Adobe Illustrator 21.1.0, SVG Export Plug-In . SVG Version: 6.00 Build 0)  -->
<svg version="1.1" id="Layer_1" xmlns="http://www.w3.org/2000/svg" xmlns:xlink="http://www.w3.org/1999/xlink" x="0px" y="0px"
	 viewBox="0 0 30 60" style="enable-background:new 0 0 30 60;" xml:space="preserve">
<style type="text/css">
	.st0{fill-rule:evenodd;clip-rule:evenodd;fill:#EF7C22;}
</style>
<path class="st0" d="M28.9,42.9c0.1-0.4,0.4-1,0.1-1c-0.5,0.1-1,0.2-1.6,0.7c-1,0.9-2.5,3-3.3,4.3c-1.4-1.9-2.4-5.1-3.5-7
	c-1.2-2-3.9-4.6-5.5-6l0.1,0c-0.3-0.2-1.9-7.2-2.2-11.3c2.3-2.2,5.3-6.1,5.5-6.4c0.8-1.6,1.2-5.3,1.9-8.1c0.2-0.9,1-2.5,1.2-3.4
	c0.3-1.2,1.2-1.4,0.6-2.3c-0.8-1.6-1.8-2-3.5-1.1c-1.2,0.6-1.9,1.6-1.1,2.9c2.7,4.4,1.2,7.4-0.6,11.6c-0.7,1.7-2.2,3.3-3.9,4.6
	c0.5-1.1,1-2.2,1.7-3c1.9-1.9,2.8-3.9,2.6-6.7c-0.1-2.4-3.1-5.8-5.9-5.9C7.9,4.7,4.9,6.6,4.3,9.8c0,0.1,0,0.3-0.1,0.4
	C4,8.2,4.4,6.2,5.8,3.9C6.5,2.6,5.9,1.7,4.7,1C3,0.1,2,0.6,1.2,2.1C0.7,3.1,1.5,3.2,1.8,4.5c0.3,0.9,1,2.5,1.2,3.4
	c0.6,2.8,0.8,5.9,1.8,8.4c0.1,0.3,4.2,5.1,6.5,6.9c0,0,0,0,0.1,0c0.4,4.4,1.4,11,1.4,11l0.1,0c-0.2,0.4-0.5,1.1-0.4,1.1
	c-1.5,5.3-3.8,13.9-5.3,19.6c-1.5-1-7.8-1.5-5,0.3c1.6,1,2.7,2.1,3.9,3.1c1.4,1.2,1.6,1,2.1-2c0.9-5.6,3.2-13.5,5-17.8
	c0.3-0.7,0.6-1.2,0.9-1.5c0.2-0.2,0.3-0.3,0.5-0.4c0.5-0.3,1-0.2,1.6,0.2c3.2,1.8,5.1,8.5,7.8,12.6c0.3,0.5,0.9,0.7,1.2,0.3
	c1.1-1.5,2.2-3.3,3-5.1C28.4,44.2,28.7,43.5,28.9,42.9 M8.6,7c2.7-1,6,0.5,7,3.2c0.9,2.5-0.7,5.8-3.2,6.7c-2.7,1-5.3-0.5-6.4-3.6
	C5.2,10.7,6.4,7.8,8.6,7 M6.7,17c1.1,0.9,2.6,1.6,4.4,2c0.2,0.7,0.2,1.3,0.2,1.8c0,0-0.1,0-0.1,0C9.4,19.8,7.7,18.5,6.7,17"/>
</svg>
