<?xml version="1.0" encoding="utf-8"?>
<!-- Generator: Adobe Illustrator 21.1.0, SVG Export Plug-In . SVG Version: 6.00 Build 0)  -->
<svg version="1.1" id="Layer_1" xmlns="http://www.w3.org/2000/svg" xmlns:xlink="http://www.w3.org/1999/xlink" x="0px" y="0px"
	 viewBox="0 0 21 60" style="enable-background:new 0 0 21 60;" xml:space="preserve">
<style type="text/css">
	.st0{fill:#5AB947;}
</style>
<path class="st0" d="M12.3,35.4c0.2,0,0.4,0,0.6,0.1c0,0.1-0.3,3.7-0.3,3.7h0c-0.1,1.9-0.4,3.7-0.5,5.6c-0.2,2.4-0.6,4.9-1,7.2
	c-0.4,2.2,0,3.4,1.4,3.9c1.2,0.4,2.3,1.2,3.5,1.7c0.6,0.3,2.2,1.5,2.1,0.6c-0.3-2.7-3-5.2-4.8-6.1c0.1-4.8,0.2-9.6,0.3-14.4
	c0.1-1.4,0.3-2.9,0.5-4.3c0-0.2,0.5-3.9,0.3-5.5c-0.2-1.2-0.7-2.4-1.3-3.7c0.6-0.9,1.3-1.7,1.9-2.6c1.3-1.8,3-3.5,4.2-5.4
	c0.4-0.7,0.6-1.3,0.5-1.8c-0.6-0.4-1.4-0.3-2.4,0.7c-1.3,1.2-2.6,2.1-4,2.7c-1.1,0.5-1.3,0.8-2,0.6c-0.3-0.5-0.5-1.2-0.6-2
	c4.7-3,6-7.7,3.4-12c-1.8-3-5.6-3.9-9.2-2.4c-2.7,1.1-4.5,5.7-3.8,8.2c0.8,2.9,2.5,4.6,5.1,5.9c1.2,0.6,2.2,1.8,3.3,2.8c0,0,0,0,0,0
	c-0.2,0.9-1.8,1.9-2.9,2.7c-1.5,1.1-2.3,1.5-4,2.2C1.4,24.3,1,25,1.1,25.7c0,0,0,0,0,0c0,0,0,0,0,0C1.6,26,2.3,26.1,3,26
	c2.3-0.2,4.4-1.1,6.7-1.5c0.5-0.1,1.1-0.1,1.6-0.1c1,4.7,1.7,6.4,0,10.8c0,0-0.2,0.7-0.3,1c-0.8,5-2.4,11.5-2.9,17.1
	c-1.9,1.1-4.8,2.1-5.5,5.2c-0.1,0.5,0.8,0.5,1.2,0.4c1.7-0.6,3.4-1.2,5.1-2.1c0.4-0.2,0.8-1.5,0.8-2.2c0-5.4,1-10.6,2-15.7
	L12.3,35.4z M8.5,14.7c-2.9,0-5.8-2.8-5.7-5.7c0.1-3.1,2.8-5.9,5.9-5.9c2.6,0,4.9,2.6,4.9,5.5C13.7,12.3,11.6,14.7,8.5,14.7
	 M9.5,22.9c-1.6,1-4.7,1.9-6.6,1.9c1.8-1,4.9-2.4,6.9-3.4c0,0.1,0.1,0.1,0.2,0.2c0.1,0.1,0.2,0.3,0.3,0.4C10,22.3,9.6,22.7,9.5,22.9
	 M11.8,21.3c-0.1-0.2-0.1-0.3-0.2-0.5c2.1-1.6,4.1-3.2,6.2-4.8c-1.5,2.1-2.5,3.8-4.2,4.9C13.3,20.8,12.2,21.3,11.8,21.3"/>
<path class="st0" d="M10.4,10c-0.1,1-0.4,2.2-1.5,2.5c-1.1,0.3-2-0.7-2.6-1.4c-0.5-0.6-1.3,0.2-0.8,0.8c1,1.2,2.3,2.1,3.9,1.7
	c1.5-0.4,2.1-2.1,2.2-3.5C11.6,9.3,10.5,9.3,10.4,10"/>
</svg>
