<?xml version="1.0" encoding="utf-8"?>
<!-- Generator: Adobe Illustrator 19.1.0, SVG Export Plug-In . SVG Version: 6.00 Build 0)  -->
<svg version="1.1" id="Layer_1" xmlns="http://www.w3.org/2000/svg" xmlns:xlink="http://www.w3.org/1999/xlink" x="0px" y="0px"
	 viewBox="0 0 415 440.8" style="enable-background:new 0 0 415 440.8;" xml:space="preserve">
<style type="text/css">
	.st0{fill:#FFFFFF;}
</style>
<path class="st0" d="M200.4,392.8c-0.8-2.8-2.3-8.3-4.4-16.4c-2.1-8.1-3.6-13.6-4.4-16.4c-2-6.8-4.7-15.7-8.2-26.9
	c-3.5-11.1-6.3-20.1-8.2-26.9l-0.2-0.8c-0.4-1.3-0.6-2.4-0.8-3.3c-0.2-0.9-0.3-2-0.3-3.2c-0.1-1.2,0.2-2.3,0.7-3.2
	c0.5-0.9,1.4-1.5,2.5-1.8c4.2-1.2,8-1.3,11.6-0.3c3.6,1,6.6,2.9,9.2,5.7c2.5,2.8,4.4,6.4,5.7,10.7c0.8,2.6,1.1,5.6,0.9,8.8
	c-0.1,3.2-0.7,6.3-1.6,9.2c-0.9,2.9-2.2,5.4-3.7,7.3c6.1,2,11.2,5.4,15.2,10.2c4,4.8,7,10.5,8.8,17c0.9,3.2,1,7.3,0.2,12.4
	c-0.5,3.1-1.3,5.8-2.4,8.2c-1.1,2.4-2.7,4.6-4.8,6.6c-2.3,2.2-5,3.7-8.1,4.6l-0.5,0.1C203.4,395.5,201,395,200.4,392.8 M194.6,332.5
	c0.7-1.3,1.3-2.8,1.6-4.7c0.6-2.9,0.9-6.3,1.1-10.1c0.1-1.9,0.2-3.2,0.3-4l-1.4-4.7c-0.5-1.7-1.5-3.4-2.9-4.9
	c-1.4-1.5-3-2.6-4.8-3.4c-1.8-0.7-3.5-0.9-5.1-0.4c-1.3,0.4-1.5,1.9-0.7,4.7c1.2,4.3,2.8,9.5,4.7,15.5c1.9,6,3.4,10.9,4.5,14.8
	C193,334.7,193.9,333.8,194.6,332.5 M214.1,381.5c1.7-2.3,2.7-4.9,3.1-7.8c0.4-2.9,0.2-5.9-0.7-9c-1.2-4.1-2.6-7.7-4.2-10.9
	c-1.6-3.2-3.2-5.5-4.8-7c-1.5-1.4-2.9-2.5-4.2-3.4c-1.3-0.9-2.4-1.4-3.2-1.6l-1.2-0.2l-4.7,1.4c3.8,11.6,8.2,26.2,13.3,43.9
	C210.2,385.6,212.4,383.8,214.1,381.5"/>
<path class="st0" d="M245.7,381.8c-1.2-0.5-1.9-1.4-2.3-2.5l-1-3.5c-0.3-1-0.6-1.8-0.8-2.6l-0.9-2.8c-0.4-1.4-1.3-4.2-2.8-8.4
	c-1.4-4.1-2.3-6.9-2.8-8.4c-1.4-4.9-3.1-11.4-5.1-19.5c-2-8.1-3.7-14.6-5.1-19.5c-0.3-1-0.9-2.8-1.9-5.6c-1-2.4-1.6-4.2-2-5.5
	c-1.8-6.3-0.8-9.9,2.9-11c1.7-0.5,3.9-0.8,6.6-1c2.7-0.2,5.2-0.1,7.3,0.2c2.1,0.3,3.4,1.1,3.7,2.1c0.3,0.9,0.1,1.8-0.4,2.7
	c-0.5,0.9-1.3,1.8-2.3,2.5c-4.5-0.2-8-0.1-10.8,0.4c0.7,1.8,1.3,3.7,1.8,5.7c0.7,2.6,1.6,5.8,2.5,9.6c1.1,4.7,1.9,7.9,2.4,9.6l1,2
	l2.1-0.7c0.7-0.3,1.6-0.5,2.6-0.8c4.3-1.2,6.8-0.6,7.5,1.8c0.3,1,0.1,1.9-0.5,2.8c-0.6,0.9-1.5,1.6-2.7,1.9
	c-1.3,0.4-2.6,0.6-3.8,0.8l-3.4,1c1.2,3.3,2.3,6.6,3.3,9.9c0.9,3.2,2,7.2,3.2,12.1c1.5,6,2.5,10.1,3.1,12.2c1.4,5,2.2,7.4,2.4,7.4
	l4.3-1.4l5.4-1.7c3.4-1,5.4-0.4,6,1.8c0.4,1.3,0.1,2.4-0.8,3.3c-0.9,1-2.2,1.7-3.8,2.1l-11.2,3.2C248,382.4,246.8,382.3,245.7,381.8
	"/>
<path class="st0" d="M287.6,369.1l-1.6-5.2l-1.6-5.1l-1.1-4.7c-0.7-1-4.2-10.7-10.7-29.3c-6.5-18.6-10.5-30.4-12.1-35.4
	c-5.1,1.3-8.6,1.7-10.4,1.1c-1.1-0.4-1.8-1-2-1.9c-0.2-0.8,0-1.6,0.8-2.4c0.7-0.8,1.6-1.4,2.6-1.7c2-0.6,5.1-1.2,9.2-2
	c4-0.7,7-1.3,9.2-1.9c0.4-0.1,0.7-0.2,1-0.4l1.1-0.3c2.8-0.8,4.5-0.1,5.1,2c0.3,1.1,0.1,2.1-0.6,3c-0.7,1-1.6,1.6-2.8,1.9
	c-0.9,0.3-2.1,0.4-3.6,0.5l-2.8,0.3l0,0.6l0.1,0.8c2.5,8.8,7,21.4,13.3,37.8c6.3,16.4,10.7,29,13.3,37.9c0.3,1.1,0.1,2.1-0.6,3.2
	c-0.7,1.1-1.6,1.8-2.8,2.1L287.6,369.1z"/>
<path class="st0" d="M321.8,359.4l-1.6-5.2l-1.6-5.1l-1.1-4.7c-0.7-1-4.2-10.7-10.7-29.3c-6.5-18.6-10.5-30.4-12.1-35.4
	c-5.1,1.3-8.6,1.7-10.4,1.1c-1.1-0.4-1.8-1-2-1.9c-0.2-0.8,0-1.6,0.8-2.4c0.7-0.8,1.6-1.4,2.6-1.7c2-0.6,5.1-1.2,9.2-2
	c4-0.7,7-1.3,9.2-1.9c0.4-0.1,0.7-0.2,1-0.4l1.1-0.3c2.8-0.8,4.5-0.1,5.1,2c0.3,1.1,0.1,2.1-0.6,3c-0.7,1-1.6,1.6-2.8,1.9
	c-0.9,0.3-2.1,0.4-3.6,0.5l-2.8,0.3l0,0.6l0.1,0.8c2.5,8.8,7,21.4,13.3,37.8c6.3,16.4,10.7,29,13.3,37.9c0.3,1.1,0.1,2.1-0.6,3.2
	c-0.7,1.1-1.6,1.8-2.8,2.1L321.8,359.4z"/>
<path class="st0" d="M351.5,351.4c-1.2-0.5-1.9-1.4-2.3-2.5l-1-3.5c-0.3-1-0.6-1.8-0.8-2.6l-0.9-2.8c-0.4-1.4-1.3-4.2-2.8-8.4
	c-1.4-4.1-2.3-6.9-2.8-8.4c-1.4-4.9-3.1-11.4-5.1-19.5c-2-8.1-3.7-14.6-5.1-19.5c-0.3-1-0.9-2.8-1.9-5.6c-1-2.4-1.6-4.2-2-5.5
	c-1.8-6.3-0.8-9.9,2.9-11c1.7-0.5,3.9-0.8,6.6-1c2.7-0.2,5.2-0.1,7.3,0.2c2.1,0.3,3.4,1.1,3.7,2.1c0.3,0.9,0.1,1.8-0.4,2.7
	c-0.5,0.9-1.3,1.8-2.3,2.5c-4.5-0.2-8-0.1-10.8,0.4c0.7,1.8,1.3,3.7,1.8,5.7c0.7,2.6,1.6,5.8,2.5,9.6c1.1,4.7,1.9,7.9,2.4,9.6l1,2
	l2.1-0.7c0.7-0.3,1.6-0.5,2.6-0.8c4.3-1.2,6.8-0.6,7.5,1.8c0.3,1,0.1,1.9-0.5,2.8s-1.5,1.6-2.7,1.9c-1.3,0.4-2.6,0.6-3.8,0.8l-3.4,1
	c1.2,3.3,2.3,6.6,3.3,9.9c0.9,3.2,2,7.2,3.2,12.1c1.5,6,2.5,10.1,3.1,12.2c1.4,5,2.2,7.4,2.4,7.4l4.3-1.4l5.4-1.7
	c3.4-1,5.4-0.4,6,1.8c0.4,1.3,0.1,2.4-0.8,3.3c-0.9,1-2.2,1.7-3.8,2.1l-11.2,3.2C353.8,352,352.6,351.9,351.5,351.4"/>
<path class="st0" d="M403,332.5c-2.9-3.6-5.6-7.9-8.2-12.9l-2.2-4.2c-6.1-11.9-9.8-18.7-11.1-20.3l-1.6,0.5c0.7,2.6,1.4,5,2,7.1
	c0.6,2.1,1.2,4.6,2,7.3c3.4,11.7,6.9,20.7,10.5,27l-0.5,4l-3.7,1.1l-2.3-1.4l-2.4-8.9c-2.2-7.5-6-19.5-11.5-35.9
	c-5.4-16-9.3-28-11.6-36c-1.2-4.2-0.3-6.7,2.6-7.6c3.1-0.9,6.1-1.1,8.9-0.8c2.8,0.4,5.2,1.4,7.3,3.1c2,1.7,3.5,4,4.3,6.9l2.7,9.3
	c0.4,1.3,0.5,2.8,0.6,4.6c0,1.8-0.1,3.4-0.2,4.8l-1.2,5.5l-1,4.5l6.2,11.9c3.1,6.3,5.9,11.4,8.3,15.4c2.4,4,4.9,7.5,7.6,10.6
	l1.3,1.4c0.7,0.8,1.3,1.4,1.7,2c0.4,0.6,0.7,1.2,0.9,1.8c0.3,1,0.2,1.8-0.2,2.6c-0.4,0.8-1,1.3-1.9,1.6
	C408.3,337.9,405.9,336.3,403,332.5 M380.8,283.2c0.4-2.6,0.5-5.5,0.2-8.6c-0.2-3.1-0.7-5.8-1.3-8c-0.5-1.6-0.9-3-1.4-4.1
	c-0.5-1.1-1.1-2.3-1.9-3.6c-0.8-1.3-1.9-2.1-3.1-2.6c-1.2-0.5-2.6-0.5-4.2-0.1l0,0.8c0,0.5,0,0.9,0.1,1.2c1.3,4.4,2.9,9.6,4.8,15.6
	c1.9,6,3.4,11,4.6,14.9C379.7,287.7,380.4,285.8,380.8,283.2"/>
<path class="st0" d="M31.2,432.7c-1.9-6.5-5.2-17.1-9.9-31.9c-4.7-14.7-9.2-28.1-13.4-40c-4.2-11.9-6.7-18.3-7.6-19
	c-0.4-1.4-0.5-2.7-0.2-3.9c0.3-1.2,0.8-2.3,1.6-3.2c0.6-0.7,1.6-1.5,2.9-2.2c1.3-0.7,2.5-1.2,3.6-1.6c0.6-0.2,1.9-0.6,3.7-1.1
	c2.2-0.6,3.8-0.7,5-0.3c1.2,0.4,2,1.6,2.6,3.5c0.3,1,0.1,1.9-0.5,2.6c-0.6,0.8-1.5,1.3-2.6,1.6l-1.4,0.3c-0.6,0.1-1.3,0.3-2.1,0.5
	c-2.7,0.8-3.9,1.7-3.5,2.8c1.3,4.5,3.5,10.9,6.7,19.2c3,8.1,5.2,14.4,6.6,18.8c0.1-0.1,1.1-0.6,2.9-1.7c1.9-1.1,3.4-1.8,4.6-2.1
	c1.1-0.3,2.1-0.1,3.2,0.6c1,0.7,1.7,1.6,2,2.7c0.4,1.4,0.1,2.5-1,3.4c-0.7,0.6-1.3,1.1-1.8,1.5c-0.5,0.4-1.2,0.7-2,1.1
	c-1.5,0.7-2.9,1.2-4.2,1.7l-1.6,0.5c1.4,4.9,4.1,12.6,8.1,23c3.8,9.9,6.5,17.6,8.1,23.1L41,433l0.1,0.5c0.3,0.5,0.3,1,0.5,1.7
	c0.4,1.2,0.2,2.3-0.5,3.3c-0.7,1-1.7,1.7-3.2,2.1C35.2,441.5,33,438.8,31.2,432.7"/>
<path class="st0" d="M71.3,429c-1.3-0.6-2.1-1.5-2.5-2.7l-1.1-3.8c-0.3-1-0.6-2-0.9-2.9l-1-3c-0.4-1.5-1.4-4.6-3-9.1
	c-1.5-4.5-2.5-7.5-3-9.1c-1.5-5.3-3.4-12.3-5.5-21.2c-2.2-8.8-4-15.9-5.5-21.2c-0.3-1-1-3-2.1-6c-1-2.6-1.8-4.6-2.2-5.9
	c-2-6.8-0.9-10.8,3.1-11.9c1.8-0.5,4.2-0.9,7.2-1.1c3-0.2,5.6-0.1,7.9,0.2c2.3,0.4,3.6,1.1,4,2.3c0.3,1,0.1,2-0.4,3
	c-0.6,1-1.4,1.9-2.5,2.7c-4.8-0.2-8.7-0.1-11.7,0.4c0.7,2,1.4,4,2,6.1c0.8,2.8,1.7,6.3,2.7,10.4c1.2,5.1,2.1,8.6,2.6,10.4l1.1,2.1
	l2.3-0.8c0.8-0.3,1.7-0.6,2.8-0.9c4.6-1.3,7.3-0.7,8.1,1.9c0.3,1,0.1,2.1-0.5,3.1c-0.6,1-1.6,1.7-2.9,2.1c-1.4,0.4-2.8,0.7-4.2,0.9
	l-3.7,1.1c1.3,3.6,2.5,7.2,3.6,10.8c1,3.5,2.1,7.8,3.5,13.1c1.6,6.5,2.8,10.9,3.4,13.2c1.5,5.4,2.4,8.1,2.6,8l4.6-1.6l5.9-1.8
	c3.7-1.1,5.8-0.4,6.5,1.9c0.4,1.4,0.1,2.6-0.9,3.6c-1,1-2.4,1.8-4.1,2.3l-12.2,3.5C73.8,429.7,72.5,429.6,71.3,429"/>
<path class="st0" d="M112.1,417.3c-1.3-0.6-2.1-1.5-2.5-2.7l-1.1-3.8c-0.3-1-0.6-2-0.9-2.9l-1-3c-0.4-1.5-1.4-4.6-3-9.1
	c-1.5-4.5-2.5-7.5-3-9.1c-1.5-5.3-3.4-12.3-5.5-21.2c-2.2-8.8-4-15.9-5.5-21.2c-0.3-1-1-3-2.1-6c-1-2.6-1.8-4.6-2.2-5.9
	c-2-6.8-0.9-10.8,3.1-11.9c1.8-0.5,4.2-0.9,7.2-1.1c3-0.2,5.6-0.1,7.9,0.2c2.3,0.4,3.6,1.1,4,2.3c0.3,1,0.1,2-0.4,3
	c-0.6,1-1.4,1.9-2.5,2.7c-4.8-0.2-8.7-0.1-11.7,0.4c0.7,2,1.4,4,2,6.1c0.8,2.8,1.7,6.3,2.7,10.4c1.2,5.1,2.1,8.6,2.6,10.4l1.1,2.1
	l2.3-0.8c0.8-0.3,1.7-0.6,2.8-0.9c4.6-1.3,7.3-0.7,8.1,1.9c0.3,1,0.1,2.1-0.5,3.1c-0.6,1-1.6,1.7-2.9,2.1c-1.4,0.4-2.8,0.7-4.2,0.9
	l-3.7,1.1c1.3,3.6,2.5,7.2,3.6,10.8c1,3.5,2.1,7.8,3.5,13.1c1.6,6.5,2.8,10.9,3.4,13.2c1.5,5.4,2.4,8.1,2.6,8l4.6-1.6l5.9-1.8
	c3.7-1.1,5.8-0.4,6.5,1.9c0.4,1.4,0.1,2.6-0.9,3.6c-1,1-2.4,1.8-4.1,2.3l-12.2,3.5C114.6,418,113.4,417.9,112.1,417.3"/>
<path class="st0" d="M159.1,403.8c-1.2,1.3-2.8,2.2-4.5,2.7c-1.1,0.3-2.2,0.1-3.3-0.7c-1.1-0.7-1.8-1.7-2.2-2.9
	c-2.2-7.6-5-18.5-8.3-32.4c-3.3-13.9-6.1-24.7-8.3-32.4l-0.3-1.1c-2.3-5.8-3.9-10.3-4.7-13.3c-2.6-9.1-2.3-14.1,1.1-15.1
	c1-0.3,1.9-0.2,2.9,0.3c0.9,0.5,1.5,1.2,1.8,2.2c0.4,1.4,0.8,3.2,1.1,5.6c0.3,2.4,0.7,4.3,1.1,5.6c1.1,3.8,2.8,9.6,5.2,17.2
	c2.3,7.6,4.1,13.3,5.2,17.2c-0.2,1.5,0.1,3.6,0.9,6.3l0.5,1.8c0.9,3.1,1.9,7,3,11.5c1.1,4.5,2.1,8.4,3,11.6c1.9,6.6,4.5,9.4,7.7,8.5
	l2.6-0.9c0.9-0.3,2-0.6,3.3-1c5.2-1.5,8.1-0.8,8.9,2c0.3,1,0.1,2-0.6,2.9c-0.7,1-1.6,1.7-2.7,2.1
	C168.6,401.7,164.2,402.4,159.1,403.8"/>
<path class="st0" d="M383.4,145.6c0.8,0.1,1.7,0.2,2.5,0.3c0,0.3-1.3,15.8-1.3,15.8h0c-0.6,8-1.6,15.6-2.1,24
	c-0.7,10.5-2.6,20.8-4.4,30.9c-1.7,9.4-0.1,14.6,6,16.9c5.1,1.9,9.9,4.9,15,7.2c2.5,1.1,9.4,6.4,8.9,2.5
	c-1.5-11.7-12.8-22.3-20.7-26.1c0.6-20.5,0.9-41.1,1.4-61.5c0.6-6.1,1.3-12.3,2.3-18.3c0.1-0.8,2.3-16.5,1.2-23.4
	c-0.9-5.3-2.9-10.3-5.4-15.7c2.4-3.8,5.5-7.5,8.1-11c5.7-7.9,12.9-14.8,17.9-23.1c1.7-2.8,2.5-5.6,2.1-7.9c-2.5-1.7-6-1.1-10.3,2.8
	c-5.5,5.1-11.1,8.8-17.3,11.6c-4.6,2-5.5,3.3-8.4,2.5c-1.3-2.3-2.1-5.2-2.4-8.6c20.2-13,25.9-32.8,14.7-51.1
	C383.6,0.5,367.5-3.3,352.2,3c-11.6,4.8-19.3,24.3-16.2,34.9c3.6,12.4,10.7,19.8,21.8,25.3c5.3,2.6,9.4,7.7,13.9,12.1c0,0,0,0,0,0
	c-1,3.8-7.8,8.2-12.5,11.4c-6.6,4.5-10,6.2-16.9,9.2c-5.4,2.3-7.1,5.3-6.5,8.3c0,0,0.1,0,0.1,0c0,0,0,0,0,0c1.9,1.4,4.8,1.8,8,1.5
	c9.6-1,18.9-4.5,28.5-6.3c2.1-0.4,4.6-0.3,7-0.3c4.4,20.2,7.1,27.3,0,46c0,0-1.1,3.2-1.2,4.2c-3.5,21.4-10.2,49.3-12.4,73.3
	c-8.3,4.5-20.5,9-23.7,22.1c-0.5,2,3.5,2.2,4.9,1.7c7.3-2.6,14.6-5.3,21.7-9c1.7-0.9,3.4-6.2,3.4-9.5c0.2-23.2,4.1-45.2,8.6-67.1
	L383.4,145.6z M367.4,57.3c-12.6-0.1-24.7-12.2-24.5-24.4c0.2-13.4,12-25.1,25.2-25.1c11.1,0,20.9,11,21.1,23.6
	C389.4,47.1,380.7,57.4,367.4,57.3 M371.8,92.3c-6.8,4.1-20.2,8.1-28.2,8.2c7.7-4.2,20.9-10.1,29.4-14.7c0.1,0.5,0.5,0.5,0.7,0.8
	c0.5,0.4,0.8,1.3,1.2,1.8C373.7,90,372.1,91.7,371.8,92.3 M381.3,85.4c-0.3-0.7-0.6-1.4-0.9-2.2c9.1-7,17.5-13.7,26.4-20.5
	c-6.6,8.9-10.6,16.3-18,20.8C387.9,83.4,383.3,85.3,381.3,85.4"/>
<path class="st0" d="M375.6,37.3c-0.3,4.4-1.8,9.2-6.4,10.5c-4.5,1.3-8.7-3-11.2-6.1c-2-2.5-5.4,1-3.5,3.5c4.1,5.1,10,9,16.8,7.2
	c6.5-1.8,8.8-9.1,9.3-15C380.7,34.1,375.8,34.1,375.6,37.3"/>
</svg>
