<?xml version="1.0" encoding="utf-8"?>
<!-- Generator: Adobe Illustrator 19.1.0, SVG Export Plug-In . SVG Version: 6.00 Build 0)  -->
<svg version="1.1" id="Layer_1" xmlns="http://www.w3.org/2000/svg" xmlns:xlink="http://www.w3.org/1999/xlink" x="0px" y="0px"
	 viewBox="0 0 164.4 146.5" style="enable-background:new 0 0 164.4 146.5;" xml:space="preserve">
<style type="text/css">
	.st0{fill:#FFFFFF;filter:url(#AI_Shadow_1);}
	.st1{filter:url(#AI_Shadow_1);}
	.st2{fill:#FFFFFF;}
</style>
<filter  id="AI_Shadow_1" filterUnits="objectBoundingBox">
	<feGaussianBlur  stdDeviation="3" result="blur" in="SourceAlpha"></feGaussianBlur>
	<feOffset  dx="3" dy="3" result="offsetBlurredAlpha" in="blur"></feOffset>
	<feMerge>
		<feMergeNode  in="offsetBlurredAlpha"></feMergeNode>
		<feMergeNode  in="SourceGraphic"></feMergeNode>
	</feMerge>
</filter>
<path class="st0" d="M79.2,124.4c-0.3-1.1-0.9-3.1-1.7-6.2c-0.8-3.1-1.3-5.2-1.7-6.2c-0.7-2.6-1.8-6-3.1-10.2
	c-1.3-4.2-2.4-7.6-3.1-10.2l-0.1-0.3c-0.1-0.5-0.2-0.9-0.3-1.3c-0.1-0.4-0.1-0.8-0.1-1.2c0-0.5,0.1-0.9,0.3-1.2
	c0.2-0.3,0.5-0.5,1-0.7c1.6-0.5,3-0.5,4.4-0.1c1.3,0.4,2.5,1.1,3.5,2.2c1,1.1,1.7,2.4,2.1,4c0.3,1,0.4,2.1,0.4,3.3
	c-0.1,1.2-0.3,2.4-0.6,3.5c-0.4,1.1-0.8,2-1.4,2.8c2.3,0.7,4.2,2,5.8,3.8c1.5,1.8,2.6,4,3.3,6.4c0.3,1.2,0.4,2.8,0.1,4.7
	c-0.2,1.2-0.5,2.2-0.9,3.1c-0.4,0.9-1,1.8-1.8,2.5c-0.9,0.8-1.9,1.4-3.1,1.7l-0.2,0.1C80.3,125.4,79.4,125.2,79.2,124.4 M77,101.5
	c0.3-0.5,0.5-1.1,0.6-1.8c0.2-1.1,0.4-2.4,0.4-3.8c0-0.7,0.1-1.2,0.1-1.5l-0.5-1.8c-0.2-0.7-0.6-1.3-1.1-1.8c-0.5-0.6-1.1-1-1.8-1.3
	c-0.7-0.3-1.3-0.3-1.9-0.1c-0.5,0.1-0.6,0.7-0.3,1.8c0.5,1.6,1.1,3.6,1.8,5.9c0.7,2.3,1.3,4.1,1.7,5.6C76.4,102.4,76.7,102,77,101.5
	 M84.3,120.1c0.6-0.9,1-1.9,1.2-3c0.2-1.1,0.1-2.2-0.3-3.4c-0.4-1.5-1-2.9-1.6-4.1c-0.6-1.2-1.2-2.1-1.8-2.7
	c-0.6-0.5-1.1-0.9-1.6-1.3c-0.5-0.3-0.9-0.5-1.2-0.6l-0.4-0.1l-1.8,0.5c1.4,4.4,3.1,9.9,5,16.6C82.9,121.7,83.7,121,84.3,120.1"/>
<g class="st1">
	<path class="st2" d="M96.3,120.2c-0.4-0.2-0.7-0.5-0.9-0.9l-0.4-1.3c-0.1-0.4-0.2-0.7-0.3-1l-0.4-1c-0.2-0.5-0.5-1.6-1-3.2
		c-0.5-1.6-0.9-2.6-1-3.2c-0.5-1.8-1.2-4.3-1.9-7.4c-0.8-3.1-1.4-5.5-1.9-7.4c-0.1-0.4-0.3-1.1-0.7-2.1c-0.4-0.9-0.6-1.6-0.8-2.1
		c-0.7-2.4-0.3-3.8,1.1-4.2c0.6-0.2,1.5-0.3,2.5-0.4c1-0.1,2,0,2.8,0.1c0.8,0.1,1.3,0.4,1.4,0.8c0.1,0.3,0,0.7-0.2,1
		c-0.2,0.3-0.5,0.7-0.9,1c-1.7-0.1-3,0-4.1,0.1c0.3,0.7,0.5,1.4,0.7,2.1c0.3,1,0.6,2.2,0.9,3.6c0.4,1.8,0.7,3,0.9,3.6l0.4,0.7
		l0.8-0.3c0.3-0.1,0.6-0.2,1-0.3c1.6-0.5,2.6-0.2,2.8,0.7c0.1,0.4,0,0.7-0.2,1.1c-0.2,0.4-0.6,0.6-1,0.7c-0.5,0.1-1,0.2-1.5,0.3
		l-1.3,0.4c0.5,1.2,0.9,2.5,1.2,3.8c0.3,1.2,0.7,2.7,1.2,4.6c0.6,2.3,1,3.8,1.2,4.6c0.5,1.9,0.8,2.8,0.9,2.8l1.6-0.5l2-0.6
		c1.3-0.4,2-0.1,2.3,0.7c0.1,0.5,0,0.9-0.3,1.3c-0.3,0.4-0.8,0.6-1.4,0.8l-4.2,1.2C97.2,120.5,96.7,120.4,96.3,120.2"/>
</g>
<g class="st1">
	<path class="st2" d="M112.2,115.4l-0.6-2l-0.6-1.9l-0.4-1.8c-0.2-0.4-1.6-4.1-4-11.1c-2.4-7-4-11.5-4.6-13.4
		c-1.9,0.5-3.3,0.6-3.9,0.4c-0.4-0.1-0.7-0.4-0.8-0.7c-0.1-0.3,0-0.6,0.3-0.9c0.3-0.3,0.6-0.5,1-0.6c0.8-0.2,1.9-0.5,3.5-0.8
		c1.5-0.3,2.7-0.5,3.5-0.7c0.1,0,0.3-0.1,0.4-0.1l0.4-0.1c1-0.3,1.7,0,1.9,0.8c0.1,0.4,0,0.8-0.2,1.1c-0.3,0.4-0.6,0.6-1.1,0.7
		c-0.3,0.1-0.8,0.2-1.4,0.2l-1.1,0.1l0,0.2l0,0.3c1,3.3,2.6,8.1,5,14.3c2.4,6.2,4.1,11,5,14.3c0.1,0.4,0,0.8-0.2,1.2
		c-0.3,0.4-0.6,0.7-1.1,0.8L112.2,115.4z"/>
</g>
<g class="st1">
	<path class="st2" d="M125.1,111.7l-0.6-2l-0.6-1.9l-0.4-1.8c-0.2-0.4-1.6-4.1-4-11.1c-2.4-7-4-11.5-4.6-13.4
		c-1.9,0.5-3.3,0.6-3.9,0.4c-0.4-0.1-0.7-0.4-0.8-0.7c-0.1-0.3,0-0.6,0.3-0.9c0.3-0.3,0.6-0.5,1-0.6c0.8-0.2,1.9-0.5,3.5-0.8
		c1.5-0.3,2.7-0.5,3.5-0.7c0.1,0,0.3-0.1,0.4-0.1l0.4-0.1c1-0.3,1.7,0,1.9,0.8c0.1,0.4,0,0.8-0.2,1.1c-0.3,0.4-0.6,0.6-1.1,0.7
		c-0.3,0.1-0.8,0.2-1.4,0.2l-1.1,0.1l0,0.2l0,0.3c1,3.3,2.6,8.1,5,14.3c2.4,6.2,4.1,11,5,14.3c0.1,0.4,0,0.8-0.2,1.2
		c-0.3,0.4-0.6,0.7-1.1,0.8L125.1,111.7z"/>
</g>
<g class="st1">
	<path class="st2" d="M136.3,108.7c-0.4-0.2-0.7-0.5-0.9-0.9l-0.4-1.3c-0.1-0.4-0.2-0.7-0.3-1l-0.4-1c-0.2-0.5-0.5-1.6-1-3.2
		c-0.5-1.6-0.9-2.6-1-3.2c-0.5-1.8-1.2-4.3-1.9-7.4c-0.8-3.1-1.4-5.5-1.9-7.4c-0.1-0.4-0.3-1.1-0.7-2.1c-0.4-0.9-0.6-1.6-0.8-2.1
		c-0.7-2.4-0.3-3.8,1.1-4.2c0.6-0.2,1.5-0.3,2.5-0.4c1-0.1,2,0,2.8,0.1c0.8,0.1,1.3,0.4,1.4,0.8c0.1,0.3,0,0.7-0.2,1
		c-0.2,0.3-0.5,0.7-0.9,1c-1.7-0.1-3,0-4.1,0.1c0.3,0.7,0.5,1.4,0.7,2.1c0.3,1,0.6,2.2,0.9,3.6c0.4,1.8,0.7,3,0.9,3.6l0.4,0.7
		l0.8-0.3c0.3-0.1,0.6-0.2,1-0.3c1.6-0.5,2.6-0.2,2.8,0.7c0.1,0.4,0,0.7-0.2,1.1s-0.6,0.6-1,0.7c-0.5,0.1-1,0.2-1.5,0.3l-1.3,0.4
		c0.5,1.2,0.9,2.5,1.2,3.8c0.3,1.2,0.7,2.7,1.2,4.6c0.6,2.3,1,3.8,1.2,4.6c0.5,1.9,0.8,2.8,0.9,2.8l1.6-0.5l2-0.6
		c1.3-0.4,2-0.1,2.3,0.7c0.1,0.5,0,0.9-0.3,1.3c-0.3,0.4-0.8,0.6-1.4,0.8l-4.2,1.2C137.2,108.9,136.8,108.9,136.3,108.7"/>
</g>
<path class="st0" d="M155.9,101.5c-1.1-1.4-2.1-3-3.1-4.9l-0.8-1.6c-2.3-4.5-3.7-7.1-4.2-7.7l-0.6,0.2c0.3,1,0.5,1.9,0.7,2.7
	c0.2,0.8,0.5,1.7,0.8,2.8c1.3,4.4,2.6,7.8,4,10.2l-0.2,1.5l-1.4,0.4l-0.9-0.5l-0.9-3.4c-0.8-2.8-2.3-7.4-4.4-13.6
	c-2.1-6.1-3.5-10.6-4.4-13.6c-0.5-1.6-0.1-2.5,1-2.9c1.2-0.3,2.3-0.4,3.4-0.3c1.1,0.1,2,0.5,2.7,1.2c0.8,0.6,1.3,1.5,1.6,2.6l1,3.5
	c0.1,0.5,0.2,1.1,0.2,1.7c0,0.7,0,1.3-0.1,1.8l-0.4,2.1l-0.4,1.7l2.3,4.5c1.2,2.4,2.2,4.3,3.1,5.8c0.9,1.5,1.9,2.8,2.9,4l0.5,0.5
	c0.3,0.3,0.5,0.5,0.6,0.8c0.2,0.2,0.3,0.4,0.3,0.7c0.1,0.4,0.1,0.7-0.1,1c-0.1,0.3-0.4,0.5-0.7,0.6C157.9,103.6,157,103,155.9,101.5
	 M147.5,82.9c0.1-1,0.2-2.1,0.1-3.3c-0.1-1.2-0.3-2.2-0.5-3c-0.2-0.6-0.4-1.1-0.5-1.6c-0.2-0.4-0.4-0.9-0.7-1.4
	c-0.3-0.5-0.7-0.8-1.2-1c-0.5-0.2-1-0.2-1.6,0l0,0.3c0,0.2,0,0.3,0,0.4c0.5,1.7,1.1,3.6,1.8,5.9c0.7,2.3,1.3,4.2,1.7,5.6
	C147,84.6,147.3,83.9,147.5,82.9"/>
<g class="st1">
	<path class="st2" d="M15.1,139.5c-0.7-2.5-2-6.5-3.8-12.1c-1.8-5.6-3.5-10.6-5.1-15.1c-1.6-4.5-2.5-6.9-2.9-7.2
		c-0.2-0.5-0.2-1-0.1-1.5c0.1-0.5,0.3-0.9,0.6-1.2c0.2-0.3,0.6-0.6,1.1-0.8c0.5-0.3,0.9-0.5,1.4-0.6c0.2-0.1,0.7-0.2,1.4-0.4
		c0.8-0.2,1.4-0.3,1.9-0.1c0.4,0.2,0.8,0.6,1,1.3c0.1,0.4,0,0.7-0.2,1c-0.2,0.3-0.6,0.5-1,0.6L9,103.5c-0.2,0-0.5,0.1-0.8,0.2
		c-1,0.3-1.5,0.6-1.3,1c0.5,1.7,1.3,4.1,2.5,7.3c1.2,3.1,2,5.4,2.5,7.1c0,0,0.4-0.2,1.1-0.6c0.7-0.4,1.3-0.7,1.8-0.8
		c0.4-0.1,0.8,0,1.2,0.2c0.4,0.3,0.6,0.6,0.8,1c0.1,0.5,0,0.9-0.4,1.3c-0.3,0.2-0.5,0.4-0.7,0.6c-0.2,0.1-0.4,0.3-0.7,0.4
		c-0.6,0.3-1.1,0.5-1.6,0.6l-0.6,0.2c0.5,1.9,1.6,4.8,3.1,8.7c1.4,3.7,2.5,6.6,3.1,8.7l0,0.2l0.1,0.2c0.1,0.2,0.1,0.4,0.2,0.6
		c0.1,0.5,0.1,0.9-0.2,1.3c-0.3,0.4-0.7,0.6-1.2,0.8C16.7,142.8,15.8,141.8,15.1,139.5"/>
</g>
<g class="st1">
	<path class="st2" d="M30.3,138.1c-0.5-0.2-0.8-0.6-0.9-1l-0.4-1.4c-0.1-0.4-0.2-0.8-0.3-1.1l-0.4-1.1c-0.2-0.6-0.5-1.7-1.1-3.4
		c-0.6-1.7-1-2.8-1.1-3.4c-0.6-2-1.3-4.7-2.1-8c-0.8-3.3-1.5-6-2.1-8c-0.1-0.4-0.4-1.1-0.8-2.3c-0.4-1-0.7-1.7-0.8-2.2
		c-0.7-2.6-0.3-4.1,1.2-4.5c0.7-0.2,1.6-0.3,2.7-0.4c1.1-0.1,2.1-0.1,3,0.1c0.9,0.1,1.4,0.4,1.5,0.9c0.1,0.4,0.1,0.7-0.2,1.1
		c-0.2,0.4-0.5,0.7-0.9,1c-1.8-0.1-3.3,0-4.4,0.1c0.3,0.7,0.5,1.5,0.8,2.3c0.3,1.1,0.6,2.4,1,3.9c0.5,1.9,0.8,3.3,1,3.9l0.4,0.8
		l0.9-0.3c0.3-0.1,0.6-0.2,1.1-0.3c1.8-0.5,2.8-0.3,3.1,0.7c0.1,0.4,0,0.8-0.2,1.2c-0.2,0.4-0.6,0.7-1.1,0.8
		c-0.5,0.2-1.1,0.3-1.6,0.3l-1.4,0.4c0.5,1.4,1,2.7,1.3,4.1c0.4,1.3,0.8,3,1.3,5c0.6,2.5,1,4.1,1.3,5c0.6,2,0.9,3,1,3l1.8-0.6
		l2.2-0.7c1.4-0.4,2.2-0.2,2.5,0.7c0.1,0.5,0,1-0.3,1.4c-0.4,0.4-0.9,0.7-1.5,0.9l-4.6,1.3C31.3,138.3,30.8,138.3,30.3,138.1"/>
</g>
<g class="st1">
	<path class="st2" d="M45.8,133.6c-0.5-0.2-0.8-0.6-0.9-1l-0.4-1.4c-0.1-0.4-0.2-0.8-0.3-1.1l-0.4-1.1c-0.2-0.6-0.5-1.7-1.1-3.4
		c-0.6-1.7-1-2.8-1.1-3.4c-0.6-2-1.3-4.7-2.1-8c-0.8-3.3-1.5-6-2.1-8c-0.1-0.4-0.4-1.1-0.8-2.3c-0.4-1-0.7-1.7-0.8-2.2
		c-0.7-2.6-0.3-4.1,1.2-4.5c0.7-0.2,1.6-0.3,2.7-0.4c1.1-0.1,2.1-0.1,3,0.1c0.9,0.1,1.4,0.4,1.5,0.9c0.1,0.4,0.1,0.7-0.2,1.1
		c-0.2,0.4-0.5,0.7-0.9,1c-1.8-0.1-3.3,0-4.4,0.1c0.3,0.7,0.5,1.5,0.8,2.3c0.3,1.1,0.6,2.4,1,3.9c0.5,1.9,0.8,3.3,1,3.9l0.4,0.8
		l0.9-0.3c0.3-0.1,0.6-0.2,1.1-0.3c1.8-0.5,2.8-0.3,3.1,0.7c0.1,0.4,0,0.8-0.2,1.2c-0.2,0.4-0.6,0.7-1.1,0.8
		c-0.5,0.2-1.1,0.3-1.6,0.3l-1.4,0.4c0.5,1.4,1,2.7,1.3,4.1c0.4,1.3,0.8,3,1.3,5c0.6,2.5,1,4.1,1.3,5c0.6,2,0.9,3,1,3l1.8-0.6
		l2.2-0.7c1.4-0.4,2.2-0.2,2.5,0.7c0.1,0.5,0,1-0.3,1.4c-0.4,0.4-0.9,0.7-1.5,0.9l-4.6,1.3C46.7,133.9,46.2,133.9,45.8,133.6"/>
</g>
<g class="st1">
	<path class="st2" d="M63.5,128.6c-0.5,0.5-1,0.8-1.7,1c-0.4,0.1-0.8,0-1.2-0.2c-0.4-0.3-0.7-0.6-0.8-1.1c-0.8-2.9-1.9-7-3.2-12.3
		c-1.3-5.3-2.3-9.3-3.1-12.3l-0.1-0.4c-0.9-2.2-1.5-3.9-1.8-5c-1-3.4-0.9-5.3,0.4-5.7c0.4-0.1,0.7-0.1,1.1,0.1
		c0.4,0.2,0.6,0.5,0.7,0.8c0.1,0.5,0.3,1.2,0.4,2.1c0.1,0.9,0.3,1.6,0.4,2.1c0.4,1.5,1.1,3.6,2,6.5c0.9,2.9,1.5,5,2,6.5
		c-0.1,0.6,0,1.4,0.3,2.4l0.2,0.7c0.3,1.2,0.7,2.6,1.1,4.3c0.4,1.7,0.8,3.2,1.1,4.4c0.7,2.5,1.7,3.6,2.9,3.2l1-0.3
		c0.3-0.1,0.7-0.2,1.2-0.4c2-0.6,3.1-0.3,3.4,0.8c0.1,0.4,0,0.7-0.2,1.1c-0.3,0.4-0.6,0.6-1,0.8C67.1,127.7,65.5,128,63.5,128.6"/>
</g>
<path class="st0" d="M148,43.7c0.2,0,0.5,0,0.7,0.1c0,0.1-0.4,4.4-0.4,4.4h0c-0.2,2.2-0.4,4.3-0.6,6.6c-0.2,2.9-0.7,5.8-1.2,8.6
	c-0.5,2.6,0,4.1,1.7,4.7c1.4,0.5,2.8,1.4,4.1,2c0.7,0.3,2.6,1.8,2.5,0.7c-0.4-3.2-3.6-6.2-5.7-7.2c0.2-5.7,0.2-11.4,0.4-17
	c0.2-1.7,0.3-3.4,0.6-5.1c0-0.2,0.6-4.6,0.3-6.5c-0.2-1.5-0.8-2.9-1.5-4.4c0.7-1.1,1.5-2.1,2.2-3.1c1.6-2.2,3.6-4.1,4.9-6.4
	c0.5-0.8,0.7-1.5,0.6-2.2c-0.7-0.5-1.7-0.3-2.9,0.8c-1.5,1.4-3.1,2.4-4.8,3.2c-1.3,0.6-1.5,0.9-2.3,0.7c-0.4-0.6-0.6-1.4-0.7-2.4
	c5.6-3.6,7.2-9.1,4.1-14.1c-2.1-3.5-6.6-4.6-10.9-2.8c-3.2,1.3-5.3,6.7-4.5,9.7c1,3.4,3,5.5,6,7c1.5,0.7,2.6,2.1,3.9,3.4
	c0,0,0,0,0,0c-0.3,1.1-2.2,2.3-3.5,3.2c-1.8,1.3-2.8,1.7-4.7,2.5c-1.5,0.6-2,1.5-1.8,2.3c0,0,0,0,0,0c0,0,0,0,0,0
	c0.5,0.4,1.3,0.5,2.2,0.4c2.7-0.3,5.2-1.2,7.9-1.7c0.6-0.1,1.3-0.1,1.9-0.1c1.2,5.6,2,7.6,0,12.7c0,0-0.3,0.9-0.3,1.2
	c-1,5.9-2.8,13.6-3.4,20.3c-2.3,1.3-5.7,2.5-6.6,6.1c-0.1,0.5,1,0.6,1.4,0.5c2-0.7,4-1.5,6-2.5c0.5-0.2,0.9-1.7,1-2.6
	c0.1-6.4,1.1-12.5,2.4-18.6L148,43.7z M143.5,19.3c-3.5,0-6.8-3.4-6.8-6.8c0.1-3.7,3.3-7,7-6.9c3.1,0,5.8,3.1,5.8,6.5
	C149.6,16.5,147.2,19.3,143.5,19.3 M144.8,29c-1.9,1.1-5.6,2.2-7.8,2.3c2.1-1.2,5.8-2.8,8.1-4.1c0,0.1,0.1,0.1,0.2,0.2
	c0.1,0.1,0.2,0.4,0.3,0.5C145.3,28.3,144.8,28.8,144.8,29 M147.4,27.1c-0.1-0.2-0.2-0.4-0.2-0.6c2.5-1.9,4.8-3.8,7.3-5.7
	c-1.8,2.5-2.9,4.5-5,5.8C149.2,26.5,147.9,27.1,147.4,27.1"/>
<g class="st1">
	<path class="st2" d="M141.4,11.1c-0.1,1.2-0.5,2.6-1.8,2.9c-1.2,0.3-2.4-0.8-3.1-1.7c-0.5-0.7-1.5,0.3-1,1c1.1,1.4,2.8,2.5,4.6,2
		c1.8-0.5,2.4-2.5,2.6-4.2C142.8,10.2,141.4,10.2,141.4,11.1"/>
</g>
</svg>
