<?xml version="1.0" encoding="utf-8"?>
<!-- Generator: Adobe Illustrator 19.1.0, SVG Export Plug-In . SVG Version: 6.00 Build 0)  -->
<svg version="1.1" id="Layer_1" xmlns="http://www.w3.org/2000/svg" xmlns:xlink="http://www.w3.org/1999/xlink" x="0px" y="0px"
	 viewBox="0 0 185.5 163" style="enable-background:new 0 0 185.5 163;" xml:space="preserve">
<style type="text/css">
	.st0{fill:#FFFFFF;filter:url(#AI_Shadow_1);}
	.st1{filter:url(#AI_Shadow_1);}
	.st2{fill:#FFFFFF;}
</style>
<filter  id="AI_Shadow_1" filterUnits="objectBoundingBox">
	<feGaussianBlur  stdDeviation="2" result="blur" in="SourceAlpha"></feGaussianBlur>
	<feOffset  dx="2" dy="2" result="offsetBlurredAlpha" in="blur"></feOffset>
	<feMerge>
		<feMergeNode  in="offsetBlurredAlpha"></feMergeNode>
		<feMergeNode  in="SourceGraphic"></feMergeNode>
	</feMerge>
</filter>
<path class="st0" d="M93.5,137.3c-0.3-1.1-0.9-3.1-1.7-6.2c-0.8-3.1-1.3-5.2-1.7-6.2c-0.7-2.6-1.8-6-3.1-10.2
	c-1.3-4.2-2.4-7.6-3.1-10.2l-0.1-0.3c-0.1-0.5-0.2-0.9-0.3-1.3c-0.1-0.4-0.1-0.8-0.1-1.2c0-0.5,0.1-0.9,0.3-1.2
	c0.2-0.3,0.5-0.5,1-0.7c1.6-0.5,3-0.5,4.4-0.1c1.3,0.4,2.5,1.1,3.5,2.2c1,1.1,1.7,2.4,2.1,4c0.3,1,0.4,2.1,0.4,3.3
	c-0.1,1.2-0.3,2.4-0.6,3.5c-0.4,1.1-0.8,2-1.4,2.8c2.3,0.7,4.2,2,5.8,3.8c1.5,1.8,2.6,4,3.3,6.4c0.3,1.2,0.4,2.8,0.1,4.7
	c-0.2,1.2-0.5,2.2-0.9,3.1c-0.4,0.9-1,1.8-1.8,2.5c-0.9,0.8-1.9,1.4-3.1,1.7l-0.2,0.1C94.6,138.3,93.7,138.1,93.5,137.3 M91.3,114.5
	c0.3-0.5,0.5-1.1,0.6-1.8c0.2-1.1,0.4-2.4,0.4-3.8c0-0.7,0.1-1.2,0.1-1.5l-0.5-1.8c-0.2-0.7-0.6-1.3-1.1-1.8c-0.5-0.6-1.1-1-1.8-1.3
	c-0.7-0.3-1.3-0.3-1.9-0.1c-0.5,0.1-0.6,0.7-0.3,1.8c0.5,1.6,1.1,3.6,1.8,5.9c0.7,2.3,1.3,4.1,1.7,5.6
	C90.7,115.3,91,114.9,91.3,114.5 M98.6,133c0.6-0.9,1-1.9,1.2-3c0.2-1.1,0.1-2.2-0.3-3.4c-0.4-1.5-1-2.9-1.6-4.1
	c-0.6-1.2-1.2-2.1-1.8-2.7c-0.6-0.5-1.1-0.9-1.6-1.3c-0.5-0.3-0.9-0.5-1.2-0.6l-0.4-0.1l-1.8,0.5c1.4,4.4,3.1,9.9,5,16.6
	C97.2,134.6,98,133.9,98.6,133"/>
<g class="st1">
	<path class="st2" d="M110.6,133.1c-0.4-0.2-0.7-0.5-0.9-0.9l-0.4-1.3c-0.1-0.4-0.2-0.7-0.3-1l-0.4-1c-0.2-0.5-0.5-1.6-1-3.2
		c-0.5-1.6-0.9-2.6-1-3.2c-0.5-1.8-1.2-4.3-1.9-7.4c-0.8-3.1-1.4-5.5-1.9-7.4c-0.1-0.4-0.3-1.1-0.7-2.1c-0.4-0.9-0.6-1.6-0.8-2.1
		c-0.7-2.4-0.3-3.8,1.1-4.2c0.6-0.2,1.5-0.3,2.5-0.4c1-0.1,2,0,2.8,0.1c0.8,0.1,1.3,0.4,1.4,0.8c0.1,0.3,0,0.7-0.2,1
		c-0.2,0.3-0.5,0.7-0.9,1c-1.7-0.1-3,0-4.1,0.1c0.3,0.7,0.5,1.4,0.7,2.1c0.3,1,0.6,2.2,0.9,3.6c0.4,1.8,0.7,3,0.9,3.6l0.4,0.7
		l0.8-0.3c0.3-0.1,0.6-0.2,1-0.3c1.6-0.5,2.6-0.2,2.8,0.7c0.1,0.4,0,0.7-0.2,1.1c-0.2,0.4-0.6,0.6-1,0.7c-0.5,0.1-1,0.2-1.5,0.3
		l-1.3,0.4c0.5,1.2,0.9,2.5,1.2,3.8c0.3,1.2,0.7,2.7,1.2,4.6c0.6,2.3,1,3.8,1.2,4.6c0.5,1.9,0.8,2.8,0.9,2.8l1.6-0.5l2-0.6
		c1.3-0.4,2-0.1,2.3,0.7c0.1,0.5,0,0.9-0.3,1.3c-0.3,0.4-0.8,0.6-1.4,0.8l-4.2,1.2C111.5,133.4,111,133.3,110.6,133.1"/>
</g>
<g class="st1">
	<path class="st2" d="M126.5,128.3l-0.6-2l-0.6-1.9l-0.4-1.8c-0.2-0.4-1.6-4.1-4-11.1c-2.4-7-4-11.5-4.6-13.4
		c-1.9,0.5-3.3,0.6-3.9,0.4c-0.4-0.1-0.7-0.4-0.8-0.7c-0.1-0.3,0-0.6,0.3-0.9c0.3-0.3,0.6-0.5,1-0.6c0.8-0.2,1.9-0.5,3.5-0.8
		c1.5-0.3,2.7-0.5,3.5-0.7c0.1,0,0.3-0.1,0.4-0.1l0.4-0.1c1-0.3,1.7,0,1.9,0.8c0.1,0.4,0,0.8-0.2,1.1c-0.3,0.4-0.6,0.6-1.1,0.7
		c-0.3,0.1-0.8,0.2-1.4,0.2l-1.1,0.1l0,0.2l0,0.3c1,3.3,2.6,8.1,5,14.3c2.4,6.2,4.1,11,5,14.3c0.1,0.4,0,0.8-0.2,1.2
		c-0.3,0.4-0.6,0.7-1.1,0.8L126.5,128.3z"/>
</g>
<g class="st1">
	<path class="st2" d="M139.4,124.7l-0.6-2l-0.6-1.9l-0.4-1.8c-0.2-0.4-1.6-4.1-4-11.1c-2.4-7-4-11.5-4.6-13.4
		c-1.9,0.5-3.3,0.6-3.9,0.4c-0.4-0.1-0.7-0.4-0.8-0.7c-0.1-0.3,0-0.6,0.3-0.9c0.3-0.3,0.6-0.5,1-0.6c0.8-0.2,1.9-0.5,3.5-0.8
		c1.5-0.3,2.7-0.5,3.5-0.7c0.1,0,0.3-0.1,0.4-0.1l0.4-0.1c1-0.3,1.7,0,1.9,0.8c0.1,0.4,0,0.8-0.2,1.1c-0.3,0.4-0.6,0.6-1.1,0.7
		c-0.3,0.1-0.8,0.2-1.4,0.2l-1.1,0.1l0,0.2l0,0.3c1,3.3,2.6,8.1,5,14.3c2.4,6.2,4.1,11,5,14.3c0.1,0.4,0,0.8-0.2,1.2
		c-0.3,0.4-0.6,0.7-1.1,0.8L139.4,124.7z"/>
</g>
<g class="st1">
	<path class="st2" d="M150.6,121.6c-0.4-0.2-0.7-0.5-0.9-0.9l-0.4-1.3c-0.1-0.4-0.2-0.7-0.3-1l-0.4-1c-0.2-0.5-0.5-1.6-1-3.2
		c-0.5-1.6-0.9-2.6-1-3.2c-0.5-1.8-1.2-4.3-1.9-7.4c-0.8-3.1-1.4-5.5-1.9-7.4c-0.1-0.4-0.3-1.1-0.7-2.1c-0.4-0.9-0.6-1.6-0.8-2.1
		c-0.7-2.4-0.3-3.8,1.1-4.2c0.6-0.2,1.5-0.3,2.5-0.4c1-0.1,2,0,2.8,0.1c0.8,0.1,1.3,0.4,1.4,0.8c0.1,0.3,0,0.7-0.2,1
		c-0.2,0.3-0.5,0.7-0.9,1c-1.7-0.1-3,0-4.1,0.1c0.3,0.7,0.5,1.4,0.7,2.1c0.3,1,0.6,2.2,0.9,3.6c0.4,1.8,0.7,3,0.9,3.6l0.4,0.7
		l0.8-0.3c0.3-0.1,0.6-0.2,1-0.3c1.6-0.5,2.6-0.2,2.8,0.7c0.1,0.4,0,0.7-0.2,1.1c-0.2,0.4-0.6,0.6-1,0.7c-0.5,0.1-1,0.2-1.5,0.3
		l-1.3,0.4c0.5,1.2,0.9,2.5,1.2,3.8c0.3,1.2,0.7,2.7,1.2,4.6c0.6,2.3,1,3.8,1.2,4.6c0.5,1.9,0.8,2.8,0.9,2.8l1.6-0.5l2-0.6
		c1.3-0.4,2-0.1,2.3,0.7c0.1,0.5,0,0.9-0.3,1.3c-0.3,0.4-0.8,0.6-1.4,0.8l-4.2,1.2C151.5,121.9,151.1,121.8,150.6,121.6"/>
</g>
<path class="st0" d="M170.2,114.5c-1.1-1.4-2.1-3-3.1-4.9l-0.8-1.6c-2.3-4.5-3.7-7.1-4.2-7.7l-0.6,0.2c0.3,1,0.5,1.9,0.7,2.7
	c0.2,0.8,0.5,1.7,0.8,2.8c1.3,4.4,2.6,7.8,4,10.2l-0.2,1.5l-1.4,0.4l-0.9-0.5l-0.9-3.4c-0.8-2.8-2.3-7.4-4.4-13.6
	c-2.1-6.1-3.5-10.6-4.4-13.6c-0.5-1.6-0.1-2.5,1-2.9c1.2-0.3,2.3-0.4,3.4-0.3c1.1,0.1,2,0.5,2.7,1.2c0.8,0.6,1.3,1.5,1.6,2.6l1,3.5
	c0.1,0.5,0.2,1.1,0.2,1.7c0,0.7,0,1.3-0.1,1.8l-0.4,2.1l-0.4,1.7l2.3,4.5c1.2,2.4,2.2,4.3,3.1,5.8c0.9,1.5,1.9,2.8,2.9,4l0.5,0.5
	c0.3,0.3,0.5,0.5,0.6,0.8c0.2,0.2,0.3,0.4,0.3,0.7c0.1,0.4,0.1,0.7-0.1,1c-0.1,0.3-0.4,0.5-0.7,0.6
	C172.2,116.5,171.3,115.9,170.2,114.5 M161.8,95.8c0.1-1,0.2-2.1,0.1-3.3c-0.1-1.2-0.3-2.2-0.5-3c-0.2-0.6-0.4-1.1-0.5-1.6
	c-0.2-0.4-0.4-0.9-0.7-1.4c-0.3-0.5-0.7-0.8-1.2-1c-0.5-0.2-1-0.2-1.6,0l0,0.3c0,0.2,0,0.3,0,0.4c0.5,1.7,1.1,3.6,1.8,5.9
	c0.7,2.3,1.3,4.2,1.7,5.6C161.3,97.5,161.6,96.8,161.8,95.8"/>
<g class="st1">
	<path class="st2" d="M29.4,152.4c-0.7-2.5-2-6.5-3.8-12.1c-1.8-5.6-3.5-10.6-5.1-15.1c-1.6-4.5-2.5-6.9-2.9-7.2
		c-0.2-0.5-0.2-1-0.1-1.5c0.1-0.5,0.3-0.9,0.6-1.2c0.2-0.3,0.6-0.6,1.1-0.8c0.5-0.3,0.9-0.5,1.4-0.6c0.2-0.1,0.7-0.2,1.4-0.4
		c0.8-0.2,1.4-0.3,1.9-0.1c0.4,0.2,0.8,0.6,1,1.3c0.1,0.4,0,0.7-0.2,1c-0.2,0.3-0.6,0.5-1,0.6l-0.5,0.1c-0.2,0-0.5,0.1-0.8,0.2
		c-1,0.3-1.5,0.6-1.3,1c0.5,1.7,1.3,4.1,2.5,7.3c1.2,3.1,2,5.4,2.5,7.1c0,0,0.4-0.2,1.1-0.6c0.7-0.4,1.3-0.7,1.8-0.8
		c0.4-0.1,0.8,0,1.2,0.2c0.4,0.3,0.6,0.6,0.8,1c0.1,0.5,0,0.9-0.4,1.3c-0.3,0.2-0.5,0.4-0.7,0.6c-0.2,0.1-0.4,0.3-0.7,0.4
		c-0.6,0.3-1.1,0.5-1.6,0.6l-0.6,0.2c0.5,1.9,1.6,4.8,3.1,8.7c1.4,3.7,2.5,6.6,3.1,8.7l0,0.2l0.1,0.2c0.1,0.2,0.1,0.4,0.2,0.6
		c0.1,0.5,0.1,0.9-0.2,1.3c-0.3,0.4-0.7,0.6-1.2,0.8C31,155.7,30.1,154.7,29.4,152.4"/>
</g>
<g class="st1">
	<path class="st2" d="M44.6,151c-0.5-0.2-0.8-0.6-0.9-1l-0.4-1.4c-0.1-0.4-0.2-0.8-0.3-1.1l-0.4-1.1c-0.2-0.6-0.5-1.7-1.1-3.4
		c-0.6-1.7-1-2.8-1.1-3.4c-0.6-2-1.3-4.7-2.1-8c-0.8-3.3-1.5-6-2.1-8c-0.1-0.4-0.4-1.1-0.8-2.3c-0.4-1-0.7-1.7-0.8-2.2
		c-0.7-2.6-0.3-4.1,1.2-4.5c0.7-0.2,1.6-0.3,2.7-0.4c1.1-0.1,2.1-0.1,3,0.1c0.9,0.1,1.4,0.4,1.5,0.9c0.1,0.4,0.1,0.7-0.2,1.1
		c-0.2,0.4-0.5,0.7-0.9,1c-1.8-0.1-3.3,0-4.4,0.1c0.3,0.7,0.5,1.5,0.8,2.3c0.3,1.1,0.6,2.4,1,3.9c0.5,1.9,0.8,3.3,1,3.9l0.4,0.8
		l0.9-0.3c0.3-0.1,0.6-0.2,1.1-0.3c1.8-0.5,2.8-0.3,3.1,0.7c0.1,0.4,0,0.8-0.2,1.2c-0.2,0.4-0.6,0.7-1.1,0.8
		c-0.5,0.2-1.1,0.3-1.6,0.3l-1.4,0.4c0.5,1.4,1,2.7,1.3,4.1c0.4,1.3,0.8,3,1.3,5c0.6,2.5,1,4.1,1.3,5c0.6,2,0.9,3,1,3l1.8-0.6
		l2.2-0.7c1.4-0.4,2.2-0.2,2.5,0.7c0.1,0.5,0,1-0.3,1.4c-0.4,0.4-0.9,0.7-1.5,0.9l-4.6,1.3C45.6,151.3,45.1,151.2,44.6,151"/>
</g>
<g class="st1">
	<path class="st2" d="M60.1,146.6c-0.5-0.2-0.8-0.6-0.9-1l-0.4-1.4c-0.1-0.4-0.2-0.8-0.3-1.1l-0.4-1.1c-0.2-0.6-0.5-1.7-1.1-3.4
		c-0.6-1.7-1-2.8-1.1-3.4c-0.6-2-1.3-4.7-2.1-8c-0.8-3.3-1.5-6-2.1-8c-0.1-0.4-0.4-1.1-0.8-2.3c-0.4-1-0.7-1.7-0.8-2.2
		c-0.7-2.6-0.3-4.1,1.2-4.5c0.7-0.2,1.6-0.3,2.7-0.4c1.1-0.1,2.1-0.1,3,0.1c0.9,0.1,1.4,0.4,1.5,0.9c0.1,0.4,0.1,0.7-0.2,1.1
		c-0.2,0.4-0.5,0.7-0.9,1c-1.8-0.1-3.3,0-4.4,0.1c0.3,0.7,0.5,1.5,0.8,2.3c0.3,1.1,0.6,2.4,1,3.9c0.5,1.9,0.8,3.3,1,3.9l0.4,0.8
		l0.9-0.3c0.3-0.1,0.6-0.2,1.1-0.3c1.8-0.5,2.8-0.3,3.1,0.7c0.1,0.4,0,0.8-0.2,1.2c-0.2,0.4-0.6,0.7-1.1,0.8
		c-0.5,0.2-1.1,0.3-1.6,0.3l-1.4,0.4c0.5,1.4,1,2.7,1.3,4.1c0.4,1.3,0.8,3,1.3,5c0.6,2.5,1,4.1,1.3,5c0.6,2,0.9,3,1,3l1.8-0.6
		l2.2-0.7c1.4-0.4,2.2-0.2,2.5,0.7c0.1,0.5,0,1-0.3,1.4c-0.4,0.4-0.9,0.7-1.5,0.9l-4.6,1.3C61,146.8,60.5,146.8,60.1,146.6"/>
</g>
<g class="st1">
	<path class="st2" d="M77.8,141.5c-0.5,0.5-1,0.8-1.7,1c-0.4,0.1-0.8,0-1.2-0.2c-0.4-0.3-0.7-0.6-0.8-1.1c-0.8-2.9-1.9-7-3.2-12.3
		c-1.3-5.3-2.3-9.3-3.1-12.3l-0.1-0.4c-0.9-2.2-1.5-3.9-1.8-5c-1-3.4-0.9-5.3,0.4-5.7c0.4-0.1,0.7-0.1,1.1,0.1
		c0.4,0.2,0.6,0.5,0.7,0.8c0.1,0.5,0.3,1.2,0.4,2.1c0.1,0.9,0.3,1.6,0.4,2.1c0.4,1.5,1.1,3.6,2,6.5c0.9,2.9,1.5,5,2,6.5
		c-0.1,0.6,0,1.4,0.3,2.4l0.2,0.7c0.3,1.2,0.7,2.6,1.1,4.3c0.4,1.7,0.8,3.2,1.1,4.4c0.7,2.5,1.7,3.6,2.9,3.2l1-0.3
		c0.3-0.1,0.7-0.2,1.2-0.4c2-0.6,3.1-0.3,3.4,0.8c0.1,0.4,0,0.7-0.2,1.1c-0.3,0.4-0.6,0.6-1,0.8C81.4,140.7,79.8,140.9,77.8,141.5"
		/>
</g>
<path class="st0" d="M158,51.3c0.3,0,0.5,0.1,0.8,0.1c0,0.1-0.4,5.1-0.4,5.1h0c-0.2,2.6-0.5,5-0.7,7.7c-0.2,3.3-0.8,6.6-1.4,9.9
	c-0.5,3,0,4.7,1.9,5.4c1.6,0.6,3.2,1.6,4.8,2.3c0.8,0.4,3,2.1,2.9,0.8c-0.5-3.7-4.1-7.1-6.6-8.4c0.2-6.5,0.3-13.1,0.5-19.7
	c0.2-2,0.4-3.9,0.7-5.9c0-0.2,0.7-5.3,0.4-7.5c-0.3-1.7-0.9-3.3-1.7-5c0.8-1.2,1.8-2.4,2.6-3.5c1.8-2.5,4.1-4.7,5.7-7.4
	c0.5-0.9,0.8-1.8,0.7-2.5c-0.8-0.6-1.9-0.4-3.3,0.9c-1.8,1.6-3.6,2.8-5.5,3.7c-1.5,0.6-1.7,1-2.7,0.8c-0.4-0.7-0.7-1.6-0.8-2.7
	c6.5-4.1,8.3-10.5,4.7-16.3c-2.5-4.1-7.6-5.3-12.5-3.3c-3.7,1.5-6.2,7.8-5.2,11.2c1.2,4,3.4,6.3,7,8.1c1.7,0.8,3,2.5,4.5,3.9
	c0,0,0,0,0,0c-0.3,1.2-2.5,2.6-4,3.6c-2.1,1.4-3.2,2-5.4,2.9c-1.7,0.7-2.3,1.7-2.1,2.6c0,0,0,0,0,0c0,0,0,0,0,0
	c0.6,0.4,1.5,0.6,2.6,0.5c3.1-0.3,6.1-1.4,9.1-2c0.7-0.1,1.5-0.1,2.2-0.1c1.4,6.5,2.3,8.7,0,14.7c0,0-0.3,1-0.4,1.3
	c-1.1,6.9-3.3,15.8-4,23.4c-2.6,1.4-6.6,2.9-7.6,7.1c-0.2,0.6,1.1,0.7,1.6,0.6c2.3-0.8,4.7-1.7,6.9-2.9c0.5-0.3,1.1-2,1.1-3
	c0.1-7.4,1.3-14.4,2.7-21.5L158,51.3z M152.8,23.1c-4,0-7.9-3.9-7.8-7.8c0.1-4.3,3.8-8,8.1-8c3.5,0,6.7,3.5,6.7,7.6
	C159.9,19.8,157.1,23.1,152.8,23.1 M154.3,34.3c-2.2,1.3-6.4,2.6-9,2.6c2.5-1.4,6.7-3.2,9.4-4.7c0,0.2,0.2,0.1,0.2,0.3
	c0.2,0.1,0.3,0.4,0.4,0.6C154.9,33.5,154.3,34.1,154.3,34.3 M157.3,32.1c-0.1-0.2-0.2-0.5-0.3-0.7c2.9-2.2,5.6-4.4,8.4-6.6
	c-2.1,2.9-3.4,5.2-5.7,6.6C159.4,31.4,157.9,32,157.3,32.1"/>
<g class="st1">
	<path class="st2" d="M155,15.9c-0.1,1.4-0.6,2.9-2.1,3.4c-1.4,0.4-2.8-1-3.6-2c-0.6-0.8-1.7,0.3-1.1,1.1c1.3,1.6,3.2,2.9,5.4,2.3
		c2.1-0.6,2.8-2.9,3-4.8C156.6,14.9,155,14.9,155,15.9"/>
</g>
</svg>
