<?xml version="1.0" encoding="utf-8"?>
<!-- Generator: Adobe Illustrator 21.1.0, SVG Export Plug-In . SVG Version: 6.00 Build 0)  -->
<svg version="1.1" id="Layer_1" xmlns="http://www.w3.org/2000/svg" xmlns:xlink="http://www.w3.org/1999/xlink" x="0px" y="0px"
	 viewBox="0 0 196 356" style="enable-background:new 0 0 196 356;" xml:space="preserve">
<style type="text/css">
	.st0{fill-rule:evenodd;clip-rule:evenodd;fill:#662878;}
</style>
<path class="st0" d="M128.7,96.7c29.3-18.9,37.6-47.9,21.4-74.5c-11.3-18.6-34.6-24.3-57-15c-16.9,7-28,35.4-23.5,50.9
	c5.3,18.2,15.6,28.9,31.7,36.9c8.6,4.3,15.1,13,22.5,19.8c-1,1.5-2.1,2.9-3.1,4.4c-33.9-5.2-67.8-10.3-100.9-15.3
	c-5.3-13.7,1.9-33.1-23-37C-2,85-0.9,101.2,0.3,118.6c37.8-10,74,6.6,111.4,7.2c12.8,0.2,17.9,7.4,20.7,19.2
	c8.7,37.5,4.4,72.1-14.4,106.5c-17.1,31.4-18.5,22,11.6,47.3c-5.7,15.3-11.7,31.5-18.8,50.7c17.9,11.2,41.5,4.3,64.2,6
	c6.6,0.5-2.4-10.6-4.6-12.4c-6.9-5.5-7.8-11.2-4.3-19.4c5.3-12.5-4.1-18.1-12.7-21.6c-13.2-5.4-13-14.3-11.3-26.6
	c3.4-24.1,3.4-48.8,7.7-72.8c1.8-10,10.4-19.1,16.8-27.9c8.4-11.5,18.9-21.5,26.2-33.5c5.6-9.2,5.1-18.8-10-19.4
	c-10.9-0.4-21.7-3.4-32.6-3.8C135.7,117.9,129.9,110.1,128.7,96.7 M116.3,14.2c16.1,0.1,30.3,16.1,30.6,34.5
	c0.4,22.7-12.4,37.8-31.7,37.7c-18.3-0.1-35.9-17.8-35.6-35.6C79.9,31.2,97,14.2,116.3,14.2 M134.2,124.3
	c20.6,2.7,36.1,4.8,56.6,7.5c-13.4,15.3-23.3,26.7-33.2,38c-2-0.2-4.1-0.4-6.1-0.7C146.4,155.6,141.1,142.1,134.2,124.3
	 M136.1,234.9c1.2,0.1,2.4,0.2,3.7,0.4c-2.6,16.7-5.1,33.4-8,52.3c-6.8-5.2-11.3-8.7-16.1-12.4C122.8,261.2,129.5,248.1,136.1,234.9
	 M133.6,334.9c-1.1-1.1-2.3-2.2-3.4-3.2c2.1-8.8,4.3-17.7,6.8-28.2c6,4.1,10.5,7.1,17.3,11.7C146.4,322.7,140,328.8,133.6,334.9"/>
</svg>
