<?xml version="1.0" encoding="utf-8"?>
<!-- Generator: Adobe Illustrator 19.1.0, SVG Export Plug-In . SVG Version: 6.00 Build 0)  -->
<svg version="1.1" id="Layer_1" xmlns="http://www.w3.org/2000/svg" xmlns:xlink="http://www.w3.org/1999/xlink" x="0px" y="0px"
	 viewBox="643.2 -76.4 1737.5 854.3" style="enable-background:new 643.2 -76.4 1737.5 854.3;" xml:space="preserve">
<style type="text/css">
	.st0{fill:none;}
</style>
    
<style type="text/css"><![CDATA[
    .g1_1{
    fill: #fff;
    }
]]></style>
    
<path class="st0" d="M603-119.4v977h1818v-977L603-119.4L603-119.4z"/>
<path d="M1129,742c7.3-6.1,12.9-13.9,17-23.2c3.9-9.3,5.8-19.6,5.8-30.9c0-14.7-1.2-28.3-3.5-40.5c-2.2-12.4-5.2-21.7-8.7-28.1
	c-3.5-6-6.8-11.2-10.3-15.3c-3.5-4.3-6.4-7-8.7-8.6l-3.6-1.5h-16.3c1.5,42.3,2.2,95.5,2.2,159.6C1112.8,752,1121.5,748.2,1129,742
	 M1111.9,559c3.5-3.7,6.5-8.4,9.3-14.1c4.4-9.3,8.7-20.3,12.6-33c2-6.3,3.5-10.7,4.5-13.1v-17.1c0-6.3-1.6-12.7-4.7-19.1
	c-3.2-6.4-7.3-11.8-12.4-15.9s-10.3-6.3-15.8-6.3c-4.4,0-6.5,5-6.5,15.1c0,15.6,0.3,34.4,0.9,56.4s0.9,39.9,0.9,53.8
	C1104.7,564.8,1108.5,562.5,1111.9,559 M1075.2,766.8c0-10.2,0.3-30,1-59.3c0.7-29.4,1.2-49.1,1.2-59.3c0-24.6-0.6-57.2-1.6-97.8
	c-1-40.7-1.6-73.2-1.6-97.8v-2.9c0-4.6,0.1-8.7,0.4-11.9c0.4-3.4,1-7,2-11c0.9-4.3,2.6-7.6,5.2-9.9c2.5-2.3,5.7-3.5,9.6-3.5
	c14.2,0,26.6,3.4,37.1,9.9c10.5,6.7,18.5,16.1,24,28s8.3,25.5,8.3,41.1c0,9.5-1.7,19.6-5.1,30.3c-3.3,10.5-7.9,20.3-13.5,29.2
	c-5.7,9-11.8,15.9-18.6,20.9c17.9,12.5,31,28.7,39.3,48.8c8.4,19.9,12.6,41.6,12.6,65.3c0,11.6-3.5,25.5-10.6,41.7
	c-4.5,9.6-9.6,18-15.3,25.1c-5.7,7.2-12.8,13-21.2,17.7c-9.3,5-19.3,7.5-30,7.5h-1.9C1082.3,778.8,1075.2,774.8,1075.2,766.8
	L1075.2,766.8z" class="g1_1"/>
<path d="M1229.3,773.3c-3.2-2.9-4.8-6.4-4.9-10.4v-12.7c0-3.5-0.1-6.7-0.3-9.6l-0.4-10.2c0-5-0.3-15.4-1-30.7
	c-0.9-15.3-1.2-25.5-1.2-30.9c0-17.7,0.4-41.1,1.6-70.3c1-29.2,1.5-52.6,1.5-70.3c0-3.4-0.3-10.2-1-20.5c-0.9-8.9-1.5-15.6-1.5-20.2
	c0-22.8,6.5-34.1,19.3-34.1c5.8,0,13.1,0.9,22,2.9s16.6,4.6,23.1,7.8c6.4,3.2,9.7,6.7,9.7,10.7c0,3.2-1.3,6.3-3.8,8.9
	c-2.6,2.4-5.8,4.6-9.7,6.1c-14-4.7-25.4-7.8-34.6-9.2c0.4,6.7,0.7,13.8,0.7,20.8c0,9.3-0.3,20.9-1,34.5c-0.7,17-1,28.4-1,34.5
	l1.3,7.5l7.4-0.5c2.5-0.2,5.5-0.2,8.9-0.2c14.8,0,22.2,4.3,22.2,13.1c0,3.4-1.5,6.4-4.2,9c-2.8,2.6-6.3,4-10.3,4
	c-4.5,0-8.9-0.3-13.1-1.1h-11.6c1,12.2,1.5,24.5,1.5,36.5c0,11.6-0.3,26.1-1,43.6c-0.7,21.6-1,36.1-1,43.7c0,18,0.3,27.1,0.9,27.1
	l15-0.8l18.8-0.5c11.6,0,17.4,4,17.4,11.8c0,4.6-1.9,7.9-5.7,10.4c-3.8,2.3-8.4,3.5-14,3.5h-38.7
	C1236.3,777.8,1232.6,776.2,1229.3,773.3L1229.3,773.3z" class="g1_1"/>
<path d="M1374.7,771.3l-0.4-19l-0.4-18.8l0.6-16.7c-1.2-3.8-3.5-40.1-7.1-108.5c-3.6-68.5-5.5-111.9-6-130.1
	c-17.7-0.5-29.1-2.6-34.3-6.3c-3.1-2.3-4.7-5-4.7-8.4c0-2.9,1.6-5.4,4.7-7.5c3.2-2,6.4-3.1,9.9-3.1c6.8,0,17.2,0.8,31.1,2.1
	c13.2,1.7,23.6,2.4,31.1,2.4c1.3,0,2.5-0.2,3.5-0.3h3.8c9.6,0,14.4,4,14.4,11.8c0,3.8-1.6,7-4.7,9.6s-6.5,3.8-10.6,3.8
	c-3.1,0-7.1-0.6-11.8-1.7l-9.2-1.7l-0.6,2.1l-0.4,2.9c0,31.9,2.6,78.4,7.7,139.3c5.1,61,7.6,107.5,7.6,139.6c0,4-1.6,7.3-4.8,10.2
	c-3.2,2.9-6.8,4.4-10.9,4.4L1374.7,771.3z" class="g1_1"/>
<path d="M1492.4,771.7l-0.4-19l-0.4-18.7l0.6-16.8c-1.2-3.8-3.5-40.1-7.1-108.5c-3.6-68.5-5.5-111.9-6-130.1
	c-17.7-0.5-29.1-2.4-34.3-6.3c-3.1-2.1-4.7-4.9-4.7-8.3c0-2.9,1.6-5.4,4.7-7.5c3.2-2.1,6.4-3.1,9.9-3.1c6.8,0,17.2,0.6,31.1,2.1
	c13.2,1.5,23.6,2.3,31.1,2.3c1.3,0,2.5,0,3.5-0.2h3.8c9.6,0,14.4,3.8,14.4,11.8c0,3.8-1.6,7-4.7,9.5c-3.1,2.6-6.5,3.8-10.6,3.8
	c-3.1,0-7.1-0.5-11.8-1.5l-9.2-1.7l-0.6,2.1l-0.4,2.8c0,32.1,2.6,78.4,7.7,139.4c5.1,60.8,7.6,107.5,7.6,139.6
	c0,3.8-1.6,7.2-4.8,10.2c-3.2,2.9-6.8,4.4-10.9,4.4L1492.4,771.7z" class="g1_1"/>
<path d="M1594.2,773.3c-3.2-2.9-4.9-6.4-5.1-10.4v-12.7c0-3.5,0-6.7-0.1-9.6l-0.4-10.2c0-5-0.4-15.4-1.2-30.7
	c-0.7-15.3-1.2-25.5-1.2-30.9c0-17.7,0.6-41.1,1.6-70.3s1.6-52.6,1.6-70.3c0-3.4-0.4-10.2-1.2-20.5c-0.9-8.9-1.3-15.6-1.3-20.2
	c0-22.8,6.4-34.1,19.2-34.1c5.8,0,13.2,0.9,22.1,2.9s16.6,4.6,23,7.8c6.5,3.2,9.7,6.7,9.7,10.7c0,3.2-1.2,6.3-3.8,8.9
	c-2.5,2.4-5.7,4.6-9.6,6.1c-14-4.7-25.6-7.8-34.6-9.2c0.4,6.7,0.6,13.8,0.6,20.8c0,9.3-0.3,20.9-0.9,34.5c-0.7,17-1.2,28.4-1.2,34.5
	l1.5,7.5l7.3-0.5c2.6-0.2,5.5-0.2,9-0.2c14.7,0,22.1,4.3,22.1,13.1c0,3.4-1.3,6.4-4.1,9c-2.8,2.6-6.3,4-10.5,4
	c-4.5,0-8.7-0.3-12.9-1.1h-11.6c0.9,12.2,1.3,24.5,1.3,36.5c0,11.6-0.3,26.1-0.9,43.6c-0.7,21.6-1.2,36.1-1.2,43.7
	c0,18,0.3,27.1,1,27.1l15-0.8l18.8-0.5c11.6,0,17.4,4,17.4,11.8c0,4.6-1.9,7.9-5.7,10.4c-3.9,2.3-8.6,3.5-14.1,3.5h-38.7
	C1601.2,777.8,1597.4,776.2,1594.2,773.3L1594.2,773.3z" class="g1_1"/>
<path d="M1750.2,573c3.6-8.4,6.4-18,8.6-28.6c2-10.5,3.1-19.9,3.1-28.1c0-6-0.1-11-0.6-15.1c-0.4-4.1-1.3-8.7-2.8-13.8
	s-3.9-8.9-7.4-11.6c-3.5-2.8-8-4.3-13.4-4.4l-0.6,2.9c-0.7,1.7-1,3.1-1,4c0,16.1,0.3,35,1,56.9c0.6,22.2,0.9,40.4,0.9,54.4
	C1742.4,587,1746.5,581.7,1750.2,573 M1775.8,759.5c-5.8-14.8-10.6-31.9-14.4-51.2l-3.1-16.2c-8.6-45.7-14.1-72-16.9-78.9h-5.5
	c0,9.5-0.1,18-0.3,25.7c-0.1,7.6-0.1,16.5-0.1,26.6c0,42.5,2.9,76,8.7,100.4l-5.2,13h-12.6l-6.1-7.2l0.4-32.1
	c0-27.2-1.2-71.1-3.8-131.6c-2.6-58.7-4.1-102.6-4.1-131.6c0-15.3,5.1-22.9,15.3-22.9c10.8,0,20.4,2.1,28.9,6.1
	c8.6,4,15.4,9.8,20.4,17.4c4.8,7.5,7.3,16.7,7.3,27.4v33.8c0,4.6-0.7,9.9-2.5,16.1c-1.6,6.1-3.3,11.3-5.1,15.7l-8.7,17.4l-7.1,14.1
	l8.7,45.9c4.1,24,8.3,43.9,12.2,59.5c4.1,15.6,8.9,29.8,14.5,42.7l2.9,6.1c1.7,3.4,2.9,6.1,3.6,8.4c0.7,2.3,1.2,4.4,1.2,6.7
	c0,3.4-1,6.3-2.9,8.7c-2,2.3-4.5,3.5-7.4,3.5C1787.8,783,1781.6,775.2,1775.8,759.5L1775.8,759.5z" class="g1_1"/>
<path d="M787.6,729.7c2.6-2.6,5.2-5.2,7.9-7.8c-4.9-21.6-9.9-43-15.7-68.5c-14,9.8-24.3,17.1-40,28.3
	C758.2,700.2,772.9,715,787.6,729.7 M781.7,487c-2.8,0.3-5.7,0.6-8.4,0.9c6,40.5,11.8,81,18.5,126.9c15.8-12.7,26.2-20.9,37.5-30
	C812.9,551,797.3,519,781.7,487 M786.2,218.4c-47.8,6.7-83.6,11.6-131.3,18.2c31,37.3,53.9,64.8,76.9,92.5c4.7-0.6,9.5-1.1,14.2-1.7
	C758.2,294.5,770.3,261.6,786.2,218.4 M827.7-48.7c-37.2,0.2-70.2,39-70.8,83.8c-0.9,55,28.5,91.7,73.4,91.4
	c42.3-0.3,83.2-43.1,82.4-86.5C912-7.6,872.5-48.8,827.7-48.7 M799,151.6c-67.9-46-87.1-116.2-49.6-181c26-45.2,80.1-58.9,132-36.4
	c39.1,17,64.8,85.9,54.4,123.5c-12.2,44-36.2,70.2-73.4,89.4c-19.8,10.4-34.9,31.6-52.1,48c2.5,3.5,4.8,7.2,7.3,10.7
	c78.5-12.5,156.9-25.1,233.7-37.3c12.4-33.3-4.4-80.3,53.2-89.9c-2.8,44.3-5.4,83.8-8,126.1c-87.4-24.3-171.4,16.1-257.9,17.4
	c-29.7,0.6-41.6,18-47.8,46.8C770.6,360,780.5,443.8,824,527.4c39.7,76.3,43,53.4-26.8,115c13.1,37,27,76.6,43.6,122.9
	c-41.6,27.2-96.3,10.4-148.7,14.7c-15.3,1.2,5.7-25.7,10.8-30.1c16-13.3,18-27.2,10-46.9c-12.2-30.4,9.5-43.9,29.4-52.4
	c30.5-13.1,30-34.9,26-64.5c-7.9-58.7-8-118.6-17.9-176.7c-4.2-24.5-24.1-46.3-39-67.7c-19.5-27.8-43.8-52.1-60.6-81.5
	c-13-22.4-11.8-45.6,23.2-47c25.2-1.1,50.3-8.4,75.5-9.2C782.8,202.9,796.3,184.1,799,151.6L799,151.6z" class="g1_1"/>
<path d="M1095.2,343.8c-2.6-4.7-3.8-10.4-3.8-17c0-7.5,0.6-20.3,1.7-38.7c1.2-18.3,1.7-31,1.7-38.4c0-15.3-1-40.4-3.1-75.1
	c-2.2-34.5-3.2-59.6-3.2-74.9l0.4-18.3c0.1-6.6,0.3-14.4,0.3-23.8c0-23.4-1.5-38.4-4.2-44.9l-11.9,1.4c-6.3,0.9-10.6,1.2-12.9,1.2
	c-4.1,0-7.6-1.2-10.5-3.7c-3.1-2.6-4.5-5.7-4.5-9.5s3.6-7,10.9-9.9c11.1-4,29.1-6.9,54.2-8.4c7.9-0.5,14.1-0.8,18.9-0.8
	c3.9,0,7.4,1.4,10.3,4c3.1,2.8,4.5,6,4.5,9.8c0,3.7-1.3,6.7-3.9,9.2c-2.6,2.3-6,3.5-9.9,3.5l-8.3-0.5l-8.1-0.5c-2.3,0-3.9,0-4.7,0.2
	c2,19.3,3.1,39,3.1,59.3l-0.4,30.7l-0.4,31.3c0,12.5,0.7,31,2,55.3c1.3,24.2,2,42.7,2,55.5c0,9.6,0.7,24.2,2,43.3
	c1.2,20.3,1.7,34.9,1.7,43.3c0,15.7-4.4,23.5-13.2,23.5C1101.3,351,1097.7,348.6,1095.2,343.8L1095.2,343.8z" class="g1_1"/>
<path d="M1257.3,271.8l0.3-20.9c0.1-1.5,0.3-3.8,0.3-6.9l0.1-21.9v-2c0-1.7,0.1-3.2,0.3-4.4c0.3-5,0.4-8.1,0.4-9.3
	c0-0.5-0.4-1.4-1.5-2.4c-0.9-0.9-1.3-1.5-1.3-2.1v-0.5c-2.2,0.6-4.9,1.1-8.3,1.1c-3.2,0-8.1-0.8-14.7-2.1c-6-1.4-10.9-2.1-14.8-2.4
	v55.3c0,8.6,0.4,21.9,1.3,39.6c1,17.4,1.5,30.7,1.5,39.7c0,4.9-1.2,8.9-3.5,12.4c-2.3,3.4-5.5,5-9.6,5c-6.1,0-10.2-6-12.5-17.7
	c-2.3-11.2-3.5-27.1-3.5-47.7c0-9,0.1-21.9,0.6-38.8c0.4-16.8,0.7-28.3,0.7-34.7c0-3.1,0-5.8,0.1-8.1v-6.9c0-4.9-0.3-8.3-0.9-10.1
	v-2.4l0.7-9.2l1.2-19c0-13.6-0.6-31.8-1.6-54.4c-1-22.5-1.6-40.7-1.6-54.3c0-3.8,1.3-7.2,3.8-10.1c2.6-2.8,5.7-4.3,9.2-4.3
	c9.7,0,14.5,9.6,14.5,28.7c0,16.2-0.3,36.2-0.9,59.9c-0.6,23.8-0.9,43.9-0.9,60.2c5.4,1.5,13.7,2.3,25,2.3h16.6
	c0.7-1.5,1.2-3.5,1.2-6.1c0-16.4-1-39.3-2.9-68.3c-2.2-31.6-3.2-54.4-3.2-68.5c0-3.7,1.3-6.6,3.9-9s5.7-3.7,9.3-3.7
	c2.5,0,5.5,0.8,9.2,2.6c2.8,1.1,4.1,1.5,4.2,1.5c0,39.6,1.6,100.6,4.5,182.8l4.2,121.7c0,4.4-1.5,7.9-4.7,10.5
	c-3.1,2.8-6.8,4-11.2,4C1262.6,351,1257.3,324.5,1257.3,271.8L1257.3,271.8z" class="g1_1"/>
<path d="M1327,336c0-7.6,4.7-11.6,13.8-11.6c2.2,0,3.9,0.2,5.4,0.3l4.4,0.5c2.3,0,4.1-0.8,5.1-2.4s1.6-4.6,1.6-8.9
	c0-7.8-0.3-13.9-0.6-18c-0.4-4.3-0.6-6.9-0.6-7.6c-1.3-14.7-2.3-28.4-3.1-41.1c-2.9-48.2-4.4-85.3-4.4-111.3l0.4-24.6l0.4-24.6
	c0-9.5-0.3-18.5-1-26.8c-4.1,1.4-7.7,2.1-10.8,2.1c-7.1,0-10.8-3.8-10.8-11.5c0-3.8,2.2-7.2,6.7-10.1s10.3-5,17.4-6.4
	c12.4-2.4,23.3-3.5,32.4-3.5c3.6,0,6.7,1.2,9.5,3.8c2.6,2.6,4.1,5.7,4.1,9.3c0,3.4-1,6.4-3.1,9c-2,2.6-4.7,4-7.7,4
	c-1.9,0-3.3-0.2-4.5-0.3h-3.6c-3.1,0-5.4,0.8-6.7,2.1c-1.3,1.4-2,4-2,7.8c0,32.6,1.9,79.5,5.7,140.8c1.2,19.9,2.3,37,3.5,51.8
	c0.7,7.6,1.2,14.8,1.5,21.6c0.4,6.6,0.6,14.2,0.6,22.9v18.5c3.2-0.5,6.3-0.6,9.5-0.6c12.6,0,19,5.7,19,17v2.8l-11.5,8.3l-12.1,0.5
	c-7.3,0.5-13.7,0.8-19,0.8C1340.2,350.4,1327,345.5,1327,336L1327,336z" class="g1_1"/>
<path d="M1566.6,352.5c0,0-0.9-1.1-2.6-3.2c-1.9-2.1-3.3-5.7-4.4-10.7c-1-4.6-1.9-7.8-2.6-9.5l0.1-0.9V327c0-7.3-5.1-27.2-15.1-59.5
	c-10.2-32.4-21.8-67.1-35-104.4c-13.2-37.5-23.3-64.5-30.4-81.5v242.6l1.9,3.2c1.9,3.4,2.9,6,2.9,8.1c0,4-1.5,7.5-4.2,10.5
	c-2.8,2.9-6,4.4-9.7,4.4c-9.9,0-15-9.8-15-29.4l-0.4-82.5l-0.4-82.7c0-9.9,0.4-24.9,1.3-44.8c0.9-20.2,1.5-35.2,1.5-44.9
	c0-15.1,4.9-25.5,16.1-34.2c0,0,1.6-1.1,2.2-1.1c1.6,0,1.3,0.5,2.3,0.9c7,3.2,15.6,13.6,26.3,39.4c8.3,20.3,16.1,42.3,23.3,66.3
	c7.3,24,15.6,53.5,25,88.5l6.7,24.8c8.4,31,13.7,49.5,15.8,55.6c6.1-68,9.3-149.5,9.3-244.4c0-2.1-0.1-4.3-0.3-6.3l-0.4-6.6
	c0-9.6,3.8-14.4,11.3-14.4c4.2,0,7.4,1.8,9.7,5.4c2.2,3.7,3.3,8.1,3.3,13.5v36.5c-0.3,28.3-1.2,61.9-2.6,100.9
	c-1.5,38.8-3.3,73.5-5.8,104.1c-2.5,30.4-5.2,48.3-8.1,53.2c-8.6,2.8-14,4.1-16.1,4.1L1566.6,352.5z" class="g1_1"/>
<path d="M1752.3,332c-6.8-14.4-13.2-32.3-19.2-53.7c-6-21.6-11.3-43.4-15.8-65.4c-3.5-15.7-6.3-29.8-8.3-42.2
	c-11.1,23.2-16.6,51.2-16.6,83.8v89.1c0,7.6-3.2,11.3-9.5,11.3c-4.7,0-8.3-1.4-11.1-4.1c-2.8-2.8-4.2-6.4-4.2-11.2V193.4
	c0-16.7,1.6-42.7,4.5-78.1c2.9-33.6,4.2-59.6,4.2-77.7c2.8-6.1,7.3-9.2,13.7-9.2c3.9,0,7.3,1.5,10,4.4c2.8,2.9,4.1,6.4,4.1,10.4v1.4
	c-3.9,7.3-6,36.5-6,87.7v17.3l16.7-35.3c10.8-22.9,20.6-42.5,29.5-58.5c9-16.2,15.3-24.3,18.9-24.3c4.7,0,8.9,1.2,12.4,3.5
	c3.5,2.1,5.2,5.4,5.2,9.5c0,0.5-3.6,6.9-10.9,19.3c-23.1,40.2-35.9,62.7-38.2,67.7l-0.6,14.4l-0.4,14.4c0,8.7,2.6,23.8,7.6,45.2
	c4.9,21.4,10.9,42.7,17.6,63.7c6.8,21.1,12.5,35.6,17,43.4l6,8.7c3.2,4.6,5.4,8.4,6.7,11.6c1.5,3.2,2,6.7,2,10.2
	c0,3.7-1.3,6.7-3.8,9.2c-2.5,2.4-5.5,3.7-9.2,3.7C1767.7,356,1760.1,348,1752.3,332L1752.3,332z" class="g1_1"/>
<path d="M1889.1,580c0-8.1-0.3-21.7-0.7-40.4c-0.6-18.8-1.3-35.8-2.2-51.1c-0.7-15.3-1.6-23.4-2.3-24.6c0-1.8,0.4-3.4,1.2-4.6
	c0.6-1.4,1.6-2.4,2.6-3.2c1-0.6,2.3-1.2,3.9-1.5c1.7-0.5,3.2-0.6,4.5-0.8c0.9,0,2.3,0,4.5,0c2.6,0,4.5,0.5,5.7,1.4
	c1.2,0.8,1.6,2.4,1.6,4.7c0,1.4-0.4,2.3-1.3,2.9c-0.9,0.8-2,1.1-3.5,1.1l-1.6-0.2c-0.7,0-1.6,0-2.6,0c-3.2,0-4.8,0.6-4.8,2
	c0,5.7,0.4,13.8,1.3,24.6c0.9,10.4,1.3,18.5,1.3,24.2c0.1-0.2,1.5-0.5,3.8-1.1c2.5-0.6,4.4-0.9,5.8-0.9c1.3,0,2.5,0.6,3.3,1.7
	c1,1.2,1.5,2.4,1.5,3.8c0,1.8-0.7,3.1-2.2,3.7c-1,0.5-1.7,0.9-2.5,1.1c-0.7,0.3-1.5,0.5-2.5,0.6c-1.9,0.3-3.6,0.5-5.2,0.6h-2
	c0,6.3,0.6,16.1,1.7,29.5c1,12.7,1.6,22.6,1.6,29.7l-0.1,0.6v0.5c0,0.6,0,1.4,0,2.3c0,1.5-0.4,2.8-1.6,3.7c-1,0.9-2.5,1.4-4.2,1.4
	C1890.8,591.5,1889.1,587.8,1889.1,580L1889.1,580z" class="g1_1"/>
<path d="M1935,589.2c-1.3-1.1-1.9-2.3-2-3.8v-4.9c0-1.2,0-2.4,0-3.5l-0.1-3.8c0-2-0.1-5.8-0.4-11.6s-0.4-9.6-0.4-11.6
	c0-6.7,0.1-15.4,0.6-26.4c0.4-11,0.6-19.9,0.6-26.4c0-1.4-0.1-4-0.4-7.8c-0.3-3.4-0.4-5.8-0.4-7.6c0-8.6,2.3-12.8,7.3-12.8
	c2.2,0,4.9,0.5,8.3,1.2c3.3,0.6,6.1,1.7,8.6,2.9c2.5,1.2,3.6,2.4,3.6,4c0,1.2-0.4,2.3-1.3,3.4c-1,0.9-2.2,1.7-3.6,2.3
	c-5.4-1.8-9.7-2.9-13.1-3.4c0.1,2.4,0.3,5,0.3,7.8c0,3.5-0.1,7.8-0.4,13c-0.3,6.3-0.4,10.7-0.4,13l0.6,2.8l2.8-0.2c1,0,2,0,3.3,0
	c5.5,0,8.4,1.5,8.4,4.9c0,1.4-0.6,2.4-1.6,3.4c-1,1.1-2.3,1.5-3.9,1.5c-1.7,0-3.3-0.2-4.9-0.3h-4.4c0.3,4.6,0.6,9.2,0.6,13.6
	c0,4.4-0.1,9.9-0.4,16.5c-0.3,8.1-0.4,13.6-0.4,16.4c0,6.9,0.1,10.2,0.4,10.2l5.7-0.3l7-0.2c4.4,0,6.5,1.5,6.5,4.4
	c0,1.7-0.7,3.1-2,3.8c-1.5,0.9-3.2,1.4-5.4,1.4h-14.5C1937.5,590.8,1936.2,590.3,1935,589.2L1935,589.2z" class="g1_1"/>
<path d="M1983.6,589.2c-1.2-1.1-1.9-2.3-1.9-3.8v-4.9c0-1.2,0-2.4-0.1-3.5l-0.1-3.8c0-2-0.1-5.8-0.4-11.6s-0.4-9.6-0.4-11.6
	c0-6.7,0.3-15.4,0.6-26.4c0.4-11,0.6-19.9,0.6-26.4c0-1.4-0.1-4-0.3-7.8c-0.4-3.4-0.6-5.8-0.6-7.6c0-8.6,2.5-12.8,7.3-12.8
	c2.2,0,4.9,0.5,8.3,1.2c3.3,0.6,6.3,1.7,8.7,2.9c2.3,1.2,3.6,2.4,3.6,4c0,1.2-0.4,2.3-1.5,3.4c-1,0.9-2.2,1.7-3.6,2.3
	c-5.2-1.8-9.6-2.9-13.1-3.4c0.1,2.4,0.3,5,0.3,7.8c0,3.5-0.1,7.8-0.3,13c-0.3,6.3-0.4,10.7-0.4,13l0.4,2.8l2.8-0.2c1,0,2.2,0,3.5,0
	c5.5,0,8.3,1.5,8.3,4.9c0,1.4-0.6,2.4-1.6,3.4c-1,1.1-2.3,1.5-3.9,1.5s-3.3-0.2-4.8-0.3h-4.4c0.3,4.6,0.4,9.2,0.4,13.6
	c0,4.4-0.1,9.9-0.3,16.5c-0.3,8.1-0.4,13.6-0.4,16.4c0,6.9,0.1,10.2,0.3,10.2l5.7-0.3l7.1-0.2c4.4,0,6.5,1.5,6.5,4.4
	c0,1.7-0.7,3.1-2.2,3.8c-1.5,0.9-3.2,1.4-5.2,1.4H1988C1986.2,590.8,1984.8,590.3,1983.6,589.2L1983.6,589.2z" class="g1_1"/>
<path d="M2039.9,589.2c-1.7,1.1-3.8,1.7-5.8,1.7c-1.3,0-2.5-0.6-3.5-1.8c-1-1.4-1.5-2.6-1.5-4.1c0-9.6,0.3-23.1,1-40.5
	c0.9-17.4,1.2-30.9,1.2-40.5v-1.4c-0.7-7.5-1-13.1-1-17c0-11.5,2-17.1,6-17.1c1.2,0,2.2,0.5,3.1,1.2c0.9,0.9,1.3,2,1.3,3.2
	c0,1.7-0.1,4-0.6,6.9c-0.3,2.9-0.6,5.2-0.6,7c0,4.7,0.1,12.1,0.3,21.7c0.1,9.6,0.3,16.8,0.3,21.9c-0.7,1.5-1,4.1-1,7.5v2.3
	c0,4-0.1,8.7-0.4,14.4c-0.1,5.5-0.3,10.4-0.3,14.5c0,8.3,1.9,12.4,5.8,12.4l3.2-0.2c1,0,2.3,0,3.9,0c6.3,0,9.3,1.7,9.3,5.2
	c0,1.2-0.6,2.3-1.6,3.2s-2.2,1.4-3.6,1.7C2051.1,590,2046,589.2,2039.9,589.2L2039.9,589.2z" class="g1_1"/>
<path d="M2126.5,579c2.8-2.3,4.9-5.2,6.4-8.7c1.6-3.5,2.3-7.3,2.3-11.6c0-5.5-0.4-10.5-1.3-15.3c-0.9-4.6-2-8.1-3.3-10.5
	c-1.3-2.3-2.6-4.1-3.9-5.8c-1.3-1.5-2.3-2.6-3.2-3.1l-1.5-0.6h-6.1c0.6,15.9,0.9,35.9,0.9,60.1
	C2120.6,582.8,2123.8,581.5,2126.5,579 M2120.1,510.2c1.3-1.4,2.5-3.2,3.5-5.4c1.7-3.5,3.3-7.6,4.8-12.4c0.7-2.3,1.3-4,1.7-4.9V481
	c0-2.3-0.6-4.7-1.7-7.2c-1.2-2.3-2.8-4.3-4.7-6c-1.9-1.5-3.9-2.3-6-2.3c-1.6,0-2.5,1.8-2.5,5.7c0,6,0.1,13,0.3,21.2
	c0.3,8.3,0.4,15,0.4,20.3C2117.5,512.5,2118.8,511.6,2120.1,510.2 M2106.3,588.3c0-3.8,0.1-11.2,0.4-22.3c0.3-11,0.4-18.5,0.4-22.3
	c0-9.2-0.1-21.6-0.6-36.8c-0.4-15.3-0.6-27.5-0.6-36.8v-0.9c0-1.8,0-3.4,0.1-4.6s0.3-2.6,0.7-4.1c0.3-1.7,1-2.9,1.9-3.8
	c1-0.8,2.2-1.2,3.6-1.2c5.4,0,10,1.2,14,3.7c4.1,2.6,7,6.1,9,10.5c2.2,4.4,3.2,9.6,3.2,15.4c0,3.7-0.6,7.5-1.9,11.5
	c-1.3,4-2.9,7.6-5.1,11c-2.2,3.4-4.5,6-7,7.8c6.7,4.7,11.6,10.9,14.7,18.3c3.2,7.5,4.8,15.7,4.8,24.6c0,4.4-1.3,9.6-4.1,15.7
	c-1.6,3.7-3.5,6.7-5.7,9.5c-2.2,2.6-4.8,4.9-8,6.6c-3.5,2-7.3,2.9-11.3,2.9h-0.6C2109.1,593,2106.3,591.5,2106.3,588.3L2106.3,588.3
	z" class="g1_1"/>
<path d="M2164.3,589.2c-1.2-1.1-1.7-2.3-1.9-3.8v-4.9c0-1.2,0-2.4,0-3.5l-0.1-3.8c0-2-0.1-5.8-0.4-11.6s-0.4-9.6-0.4-11.6
	c0-6.7,0.1-15.4,0.6-26.4c0.4-11,0.6-19.9,0.6-26.4c0-1.4-0.1-4-0.4-7.8c-0.3-3.4-0.4-5.8-0.4-7.6c0-8.6,2.3-12.8,7.1-12.8
	c2.2,0,4.9,0.5,8.3,1.2c3.3,0.6,6.3,1.7,8.7,2.9c2.5,1.2,3.6,2.4,3.6,4c0,1.2-0.4,2.3-1.5,3.4c-0.9,0.9-2,1.7-3.5,2.3
	c-5.4-1.8-9.7-2.9-13.1-3.4c0.1,2.4,0.3,5,0.3,7.8c0,3.5-0.1,7.8-0.4,13c-0.3,6.3-0.4,10.7-0.4,13l0.6,2.8l2.8-0.2c0.9,0,2,0,3.3,0
	c5.5,0,8.3,1.5,8.3,4.9c0,1.4-0.4,2.4-1.5,3.4c-1,1.1-2.3,1.5-3.9,1.5c-1.7,0-3.3-0.2-4.9-0.3h-4.4c0.3,4.6,0.6,9.2,0.6,13.6
	c0,4.4-0.1,9.9-0.4,16.5c-0.3,8.1-0.4,13.6-0.4,16.4c0,6.9,0.1,10.2,0.4,10.2l5.5-0.3l7.1-0.2c4.4,0,6.5,1.5,6.5,4.4
	c0,1.7-0.7,3.1-2,3.8c-1.5,0.9-3.2,1.4-5.4,1.4h-14.5C2167,590.8,2165.6,590.3,2164.3,589.2L2164.3,589.2z" class="g1_1"/>
<path d="M2219.2,588.5l-0.3-7l-0.1-6.9l0.3-6.3c-0.4-1.4-1.3-14.7-2.6-40.1c-1.5-25.2-2.2-41.3-2.3-48c-6.7-0.2-10.9-0.9-12.9-2.3
	c-1.2-0.8-1.7-1.8-1.7-3.1c0-1.1,0.6-2,1.7-2.8s2.5-1.2,3.8-1.2c2.6,0,6.4,0.3,11.6,0.8c5.1,0.6,8.9,0.9,11.8,0.9c0.4,0,0.9,0,1.3,0
	h1.5c3.6,0,5.4,1.4,5.4,4.3c0,1.4-0.6,2.6-1.7,3.5c-1.2,0.9-2.5,1.5-3.9,1.5c-1.3,0-2.8-0.3-4.5-0.8l-3.5-0.6l-0.1,0.9l-0.1,1.1
	c0,11.8,0.9,28.9,2.9,51.4c1.9,22.5,2.8,39.7,2.8,51.5c0,1.4-0.6,2.8-1.7,3.8c-1.3,1.1-2.6,1.7-4.1,1.7L2219.2,588.5z" class="g1_1"/>
<path d="M2263.4,588.5l-0.1-7l-0.3-6.9l0.3-6.3c-0.4-1.4-1.3-14.7-2.6-40.1c-1.5-25.2-2.2-41.3-2.3-48c-6.7-0.2-10.9-0.9-12.9-2.3
	c-1.2-0.8-1.7-1.8-1.7-3.1c0-1.1,0.6-2,1.7-2.8c1.2-0.8,2.5-1.2,3.8-1.2c2.6,0,6.4,0.3,11.6,0.8c5.1,0.6,9,0.9,11.8,0.9
	c0.4,0,0.9,0,1.3,0h1.5c3.6,0,5.4,1.4,5.4,4.3c0,1.4-0.6,2.6-1.7,3.5s-2.5,1.5-3.9,1.5c-1.2,0-2.8-0.3-4.5-0.8l-3.5-0.6l-0.1,0.9
	l-0.1,1.1c0,11.8,0.9,28.9,2.9,51.4c1.9,22.5,2.8,39.7,2.8,51.5c0,1.4-0.6,2.8-1.7,3.8c-1.2,1.1-2.6,1.7-4.1,1.7L2263.4,588.5z" class="g1_1"/>
<path d="M2301.7,589.2c-1.2-1.1-1.9-2.3-1.9-3.8v-4.9c0-1.2,0-2.4,0-3.5l-0.3-3.8c0-2-0.1-5.8-0.4-11.6c-0.1-5.8-0.3-9.6-0.3-11.6
	c0-6.7,0.1-15.4,0.6-26.4c0.3-11,0.6-19.9,0.6-26.4c0-1.4-0.1-4-0.4-7.8c-0.4-3.4-0.6-5.8-0.6-7.6c0-8.6,2.5-12.8,7.3-12.8
	c2.2,0,4.9,0.5,8.3,1.2c3.3,0.6,6.3,1.7,8.7,2.9c2.5,1.2,3.6,2.4,3.6,4c0,1.2-0.4,2.3-1.5,3.4c-0.9,0.9-2.2,1.7-3.6,2.3
	c-5.2-1.8-9.6-2.9-13.1-3.4c0.3,2.4,0.3,5,0.3,7.8c0,3.5-0.1,7.8-0.3,13c-0.3,6.3-0.4,10.7-0.4,13l0.4,2.8l2.9-0.2c0.9,0,2,0,3.3,0
	c5.5,0,8.3,1.5,8.3,4.9c0,1.4-0.4,2.4-1.6,3.4c-1,1.1-2.3,1.5-3.9,1.5s-3.2-0.2-4.8-0.3h-4.4c0.3,4.6,0.4,9.2,0.4,13.6
	c0,4.4-0.1,9.9-0.3,16.5c-0.3,8.1-0.4,13.6-0.4,16.4c0,6.9,0.1,10.2,0.3,10.2l5.7-0.3l7.1-0.2c4.4,0,6.5,1.5,6.5,4.4
	c0,1.7-0.7,3.1-2.2,3.8c-1.5,0.9-3.2,1.4-5.2,1.4H2306C2304.4,590.8,2302.9,590.3,2301.7,589.2L2301.7,589.2z" class="g1_1"/>
<path d="M2360.5,515.7c1.3-3.2,2.5-6.9,3.2-10.9c0.9-4,1.2-7.5,1.2-10.5c0-2.3,0-4.1-0.1-5.7c-0.3-1.7-0.6-3.4-1-5.2
	c-0.6-2-1.6-3.4-2.9-4.4c-1.3-1.1-2.9-1.5-4.9-1.7l-0.3,1.1c-0.3,0.8-0.3,1.2-0.3,1.5c0,6.1,0,13.1,0.3,21.4
	c0.1,8.4,0.3,15.1,0.3,20.5C2357.6,520.8,2359,518.7,2360.5,515.7 M2370.1,585.8c-2.2-5.7-3.9-12.1-5.4-19.3l-1.2-6.1
	c-3.2-17.3-5.4-27.1-6.3-29.7h-2.2c0,3.5,0,6.7-0.1,9.6c0,2.9,0,6.3,0,9.9c0,16.1,1,28.6,3.2,37.9l-1.9,4.7h-4.8l-2.2-2.6l0.1-12.1
	c0-10.2-0.6-26.8-1.5-49.5c-1-22.2-1.6-38.7-1.6-49.5c0-5.8,2-8.7,5.8-8.7c4.1,0,7.7,0.8,10.9,2.3s5.7,3.7,7.6,6.6
	c1.9,2.9,2.8,6.3,2.8,10.2v12.8c0,1.7-0.3,3.7-0.9,6c-0.6,2.3-1.3,4.3-1.9,6l-3.3,6.6l-2.6,5.4l3.2,17.3c1.6,9,3.2,16.4,4.7,22.3
	c1.5,5.8,3.3,11.2,5.5,16.1l1,2.3c0.6,1.2,1,2.3,1.3,3.2c0.3,0.8,0.4,1.7,0.4,2.4c0,1.4-0.3,2.4-1,3.4c-0.7,0.8-1.7,1.2-2.8,1.2
	C2374.6,594.5,2372.3,591.5,2370.1,585.8L2370.1,585.8z" class="g1_1"/>
<path d="M1917.7,740.3c-0.1-2.4-0.9-8.9-1.9-19c-2.9-26.9-4.4-43-4.4-48.2c0-0.9,0.1-1.4,0.1-1.5c-1.2,1.1-2.9,6.4-5.1,15.7
	s-4.2,19.4-6.1,30.1c-1.9,10.7-2.9,17.9-3.1,21.4c5.2,1.2,10.8,1.8,16.6,1.8C1915,740.8,1916.3,740.7,1917.7,740.3 M1919.2,777.3
	c-0.9-0.8-1.3-1.8-1.3-3.5V751c-1.6-1.1-4.7-2-9-2.8c-4.4-0.9-8.6-1.4-12.6-1.7c-1.2,2-2.3,4.9-3.1,8.9l-0.6,2.6
	c-1,4.7-1.9,8.4-2.6,11.3c-0.9,2.9-1.7,5.4-2.9,7c-4.8,0-7.6-1.2-8.1-3.5c1.2-1.5,2.8-6.9,4.5-16.4c1.7-7.9,3.8-18.7,6.1-31.8
	c2.8-15.4,5.4-28.4,7.7-39c2.3-10.5,4.7-19.4,7.3-26.6c2.8-8.1,5.5-12.1,8.1-12.1s4.7,0.5,6,1.5c0,4.3,1.2,15.6,3.6,33.6
	c2.5,18,3.6,30,3.6,35.8c0,5.4,0.7,14.2,2,26.3c1.3,12.5,1.9,21.9,1.9,28.1c0,3.8-2,5.8-6.3,5.8
	C1921.7,778.2,1920.2,778,1919.2,777.3L1919.2,777.3z" class="g1_1"/>
<path d="M1968.3,777.3c-3.2-0.8-5.5-1.5-7-2.4c-8.3-5-12.4-18.7-12.4-41v-4.6c-0.1-1.5-0.1-3.5-0.1-5.7v-4.1c0-5.5,0-9.9,0.1-13
	s0.4-6.9,0.7-11.5c0.4-4.4,1-8.1,1.7-11c0.9-2.9,2-6.1,3.6-9.6c1.5-3.4,3.3-6,5.5-7.8s4.9-3.5,8.4-4.7c3.3-1.2,7.1-2,11.6-2
	c1.7,0,3.2,0.5,4.2,1.4c1,0.8,1.5,1.8,1.5,3.1c0,1.2-0.4,2.3-1.2,3.2c-0.9,0.9-1.7,1.4-2.9,1.4h-8.7c-2.3,0-4.5,1.5-6.4,4.4
	s-3.2,6.7-4.1,11.3c-1.6,8.7-2.3,15.6-2.3,20.9v0.9c0,4.6-0.1,10.2-0.4,16.8c-0.3,8.3-0.4,13.9-0.4,16.8c0,4,0.3,7.5,0.7,10.9
	c0.3,2.1,0.6,4,1,5.7c0.4,1.5,1.2,3.2,2,4.7c0.9,1.7,1.9,3.1,3.2,4.1c1.2,1.1,2.6,2,4.5,2.6c1.7,0.8,3.8,1.2,6.1,1.2
	c1.6,0,2.9-0.6,4.1-1.5c1.6,0,2.9,0.3,3.9,0.9c1.2,0.6,1.7,1.7,1.7,2.9c0,4.6-3.5,6.9-10.3,6.9
	C1974.3,778.5,1971.4,778,1968.3,777.3L1968.3,777.3z" class="g1_1"/>
<path d="M2014.3,775.7l-0.1-6.7l-0.1-6.7l0.3-6c-0.6-1.4-1.5-14.4-2.9-39c-1.5-24.5-2.3-40.1-2.5-46.6c-7.1-0.2-11.8-0.9-14-2.1
	c-1.3-0.8-1.9-1.8-1.9-3.1c0-1.1,0.6-1.8,1.9-2.6s2.6-1.2,4.1-1.2c2.8,0,7,0.3,12.5,0.8c5.4,0.6,9.6,0.9,12.6,0.9c0.6,0,1,0,1.5-0.2
	h1.6c3.8,0,5.8,1.5,5.8,4.3c0,1.4-0.6,2.6-1.9,3.5s-2.6,1.4-4.4,1.4c-1.2,0-2.8-0.3-4.8-0.6l-3.6-0.6l-0.3,0.8l-0.1,0.9
	c0,11.5,1,28.1,3.1,50c2.2,21.9,3.2,38.5,3.2,50c0,1.4-0.7,2.6-2,3.7c-1.3,1.1-2.8,1.7-4.4,1.7L2014.3,775.7z" class="g1_1"/>
<path d="M2107.5,765.5c2.9-2.1,5.2-5,6.8-8.4s2.5-7,2.5-11.2c0-5.4-0.6-10.2-1.5-14.7c-1-4.4-2.2-7.8-3.6-10.2
	c-1.3-2.1-2.8-4-4.2-5.5c-1.3-1.5-2.5-2.4-3.5-3.1l-1.5-0.6h-6.5c0.6,15.3,0.9,34.5,0.9,57.8
	C2100.9,769.2,2104.4,767.7,2107.5,765.5 M2100.5,699.3c1.5-1.4,2.6-3.1,3.8-5c1.7-3.4,3.5-7.3,5.2-11.9c0.7-2.3,1.3-4,1.7-4.9v-6.1
	c0-2.3-0.6-4.6-1.9-6.9c-1.3-2.3-2.9-4.3-4.9-5.8c-2.2-1.5-4.2-2.3-6.5-2.3c-1.7,0-2.6,1.8-2.6,5.5c0,5.7,0.1,12.5,0.4,20.5
	c0.1,7.9,0.3,14.4,0.3,19.4C2097.6,701.5,2099.1,700.5,2100.5,699.3 M2085.5,774.5c0-3.7,0.1-10.7,0.4-21.4
	c0.4-10.5,0.6-17.7,0.6-21.4c0-8.9-0.3-20.8-0.7-35.5s-0.6-26.4-0.6-35.3v-1.1c0-1.7,0-3.1,0.1-4.3s0.4-2.6,0.9-4
	c0.3-1.5,1-2.8,2-3.7c1-0.8,2.3-1.2,3.9-1.2c5.8,0,10.8,1.2,15.1,3.5c4.2,2.4,7.4,5.8,9.6,10.1c2.3,4.4,3.3,9.3,3.3,15
	c0,3.4-0.6,7-2,10.9c-1.3,3.8-3.2,7.5-5.4,10.7c-2.3,3.2-4.8,5.7-7.6,7.5c7.1,4.6,12.5,10.4,15.8,17.6c3.5,7.3,5.2,15.1,5.2,23.7
	c0,4.3-1.5,9.2-4.4,15.1c-1.9,3.5-3.9,6.6-6.3,9c-2.3,2.6-5.1,4.7-8.6,6.4c-3.8,1.8-7.9,2.8-12.2,2.8h-0.7
	C2088.4,778.8,2085.5,777.3,2085.5,774.5z" class="g1_1"/>
<path d="M2148.2,776.5c-1.3-1.1-2-2.3-2-3.8v-4.6c0-1.2,0-2.3-0.1-3.4l-0.1-3.7c0-2-0.1-5.7-0.4-11.2s-0.4-9.3-0.4-11.2
	c0-6.4,0.1-15,0.6-25.5s0.6-19,0.6-25.4c0-1.2-0.1-3.7-0.4-7.3c-0.3-3.4-0.4-5.8-0.4-7.3c0-8.3,2.5-12.4,7.7-12.4
	c2.3,0,5.4,0.3,9,1.1s6.7,1.7,9.3,2.8c2.6,1.2,3.9,2.4,3.9,4c0,1.1-0.4,2.1-1.5,3.2c-1,0.9-2.3,1.7-3.9,2.1
	c-5.7-1.7-10.5-2.8-14.1-3.2c0.1,2.4,0.3,4.9,0.3,7.5c0,3.4-0.1,7.5-0.4,12.4c-0.3,6.1-0.4,10.4-0.4,12.5l0.6,2.8l3.1-0.2
	c1,0,2.2-0.2,3.6-0.2c6,0,8.9,1.7,8.9,4.7c0,1.4-0.4,2.4-1.6,3.4c-1.2,0.9-2.6,1.4-4.2,1.4c-1.9,0-3.6-0.2-5.2-0.3h-4.8
	c0.4,4.4,0.6,8.9,0.6,13.1s-0.1,9.5-0.4,15.7c-0.3,7.8-0.4,13.1-0.4,15.9c0,6.4,0.1,9.8,0.4,9.8l6.1-0.3l7.6-0.2
	c4.8,0,7.1,1.4,7.1,4.3c0,1.5-0.9,2.9-2.3,3.7c-1.6,0.9-3.5,1.4-5.7,1.4h-15.7C2151,778,2149.5,777.5,2148.2,776.5L2148.2,776.5z" class="g1_1"/>
<path d="M2207.1,775.7l-0.1-6.7l-0.1-6.7l0.3-6c-0.6-1.4-1.5-14.4-2.9-39c-1.5-24.5-2.3-40.1-2.5-46.6c-7.1-0.2-11.8-0.9-14-2.1
	c-1.2-0.8-1.9-1.8-1.9-3.1c0-1.1,0.7-1.8,1.9-2.6c1.3-0.8,2.6-1.2,4.1-1.2c2.8,0,7,0.3,12.6,0.8c5.4,0.6,9.6,0.9,12.5,0.9
	c0.6,0,1.2,0,1.5-0.2h1.6c3.9,0,5.8,1.5,5.8,4.3c0,1.4-0.6,2.6-1.9,3.5c-1.2,0.9-2.6,1.4-4.2,1.4c-1.3,0-2.9-0.3-4.9-0.6l-3.6-0.6
	l-0.1,0.8l-0.3,0.9c0,11.5,1,28.1,3.2,50c2,21.9,3.1,38.5,3.1,50c0,1.4-0.7,2.6-2,3.7c-1.3,1.1-2.8,1.7-4.4,1.7L2207.1,775.7z" class="g1_1"/>
<path d="M2254.8,775.7l-0.1-6.7l-0.1-6.7l0.3-6c-0.6-1.4-1.5-14.4-2.9-39c-1.5-24.5-2.3-40.1-2.5-46.6c-7.1-0.2-11.8-0.9-14-2.1
	c-1.3-0.8-1.9-1.8-1.9-3.1c0-1.1,0.6-1.8,1.9-2.6c1.3-0.8,2.6-1.2,4.1-1.2c2.8,0,7,0.3,12.5,0.8c5.5,0.6,9.6,0.9,12.6,0.9
	c0.6,0,1,0,1.5-0.2h1.6c3.8,0,5.8,1.5,5.8,4.3c0,1.4-0.6,2.6-1.9,3.5c-1.3,0.9-2.6,1.4-4.4,1.4c-1.2,0-2.8-0.3-4.8-0.6l-3.6-0.6
	l-0.3,0.8l-0.1,0.9c0,11.5,1,28.1,3.1,50c2.2,21.9,3.2,38.5,3.2,50c0,1.4-0.7,2.6-2,3.7c-1.3,1.1-2.8,1.7-4.4,1.7L2254.8,775.7z" class="g1_1"/>
<path d="M2296.2,776.5c-1.3-1.1-1.9-2.3-2-3.8v-4.6c0-1.2,0-2.3,0-3.4l-0.3-3.7c0-2-0.1-5.7-0.4-11.2c-0.3-5.5-0.4-9.3-0.4-11.2
	c0-6.4,0.3-15,0.6-25.5c0.4-10.5,0.7-19,0.7-25.4c0-1.2-0.1-3.7-0.4-7.3c-0.4-3.4-0.6-5.8-0.6-7.3c0-8.3,2.6-12.4,7.9-12.4
	c2.3,0,5.2,0.3,8.9,1.1s6.7,1.7,9.3,2.8c2.8,1.2,4.1,2.4,4.1,4c0,1.1-0.6,2.1-1.6,3.2c-1,0.9-2.3,1.7-3.9,2.1
	c-5.7-1.7-10.3-2.8-14.1-3.2c0.3,2.4,0.3,4.9,0.3,7.5c0,3.4-0.1,7.5-0.3,12.4c-0.3,6.1-0.4,10.4-0.4,12.5l0.4,2.8l3.1-0.2
	c1,0,2.2-0.2,3.6-0.2c6,0,9,1.7,9,4.7c0,1.4-0.6,2.4-1.7,3.4c-1,0.9-2.5,1.4-4.2,1.4s-3.5-0.2-5.2-0.3h-4.8
	c0.4,4.4,0.6,8.9,0.6,13.1s-0.1,9.5-0.3,15.7c-0.3,7.8-0.4,13.1-0.4,15.9c0,6.4,0,9.8,0.3,9.8l6.1-0.3l7.6-0.2
	c4.8,0,7.1,1.4,7.1,4.3c0,1.5-0.7,2.9-2.3,3.7c-1.5,0.9-3.3,1.4-5.7,1.4h-15.7C2299.1,778,2297.5,777.5,2296.2,776.5L2296.2,776.5z" class="g1_1"
	/>
<path d="M2357.2,700.1c1.3-3.2,2.5-6.9,3.2-10.9c0.9-4,1.2-7.5,1.2-10.5c0-2.3,0-4.1-0.1-5.7c-0.3-1.7-0.6-3.4-1-5.2
	c-0.6-2-1.6-3.4-2.9-4.4c-1.3-1.1-2.9-1.5-4.9-1.7l-0.3,1.1c-0.3,0.8-0.3,1.2-0.3,1.5c0,6.1,0,13.1,0.3,21.4
	c0.1,8.4,0.3,15.1,0.3,20.5C2354.3,705.3,2355.7,703.1,2357.2,700.1 M2366.8,770.2c-2.2-5.7-3.9-12.1-5.4-19.3l-1.2-6.1
	c-3.2-17.3-5.4-27.1-6.3-29.7h-2.2c0,3.5,0,6.7-0.1,9.6c0,2.9,0,6.3,0,9.9c0,16.1,1,28.6,3.2,37.9l-1.9,4.7h-4.8l-2.2-2.6l0.1-12.1
	c0-10.2-0.6-26.8-1.5-49.5c-1-22.2-1.6-38.7-1.6-49.5c0-5.8,2-8.7,5.8-8.7c4.1,0,7.7,0.8,10.9,2.3s5.7,3.7,7.6,6.6
	c1.9,2.9,2.8,6.3,2.8,10.2v12.8c0,1.7-0.3,3.7-0.9,6c-0.6,2.3-1.3,4.3-1.9,6l-3.3,6.6l-2.6,5.4l3.2,17.3c1.6,9,3.2,16.4,4.7,22.3
	c1.5,5.8,3.3,11.2,5.5,16.1l1,2.3c0.6,1.2,1,2.3,1.3,3.2c0.3,0.8,0.4,1.7,0.4,2.4c0,1.4-0.3,2.4-1,3.4c-0.7,0.8-1.7,1.2-2.8,1.2
	C2371.3,778.9,2369,776,2366.8,770.2L2366.8,770.2z" class="g1_1"/>
</svg>
