<?xml version="1.0" encoding="utf-8"?>
<!-- Generator: Adobe Illustrator 21.1.0, SVG Export Plug-In . SVG Version: 6.00 Build 0)  -->
<svg version="1.1" id="Layer_1" xmlns="http://www.w3.org/2000/svg" xmlns:xlink="http://www.w3.org/1999/xlink" x="0px" y="0px"
	 viewBox="0 0 24 60" style="enable-background:new 0 0 24 60;" xml:space="preserve">
<style type="text/css">
	.st0{fill-rule:evenodd;clip-rule:evenodd;fill:#662878;}
</style>
<path class="st0" d="M14.8,37.9c0.1-1.3,0.3-2.7,0.5-4c0-0.2,0.1-0.4,0.1-0.5c0.5-1.4,1.7-2.5,2.6-3.7c1.4-1.9,3.1-3.5,4.3-5.5
	c0.9-1.5,0.9-3.1-1.6-3.2c-1.8-0.1-3.6-0.6-5.4-0.7c-1.3,0-1.9-0.4-2.5-1.2c-0.4-0.4-1-1.5-1.1-2.7c4.8-3.1,6.2-7.9,3.5-12.3
	c-1.9-3.1-5.7-4-9.4-2.5C3.8,2.6,2.2,5.6,2,8.1c-2.1,1-1.7,2.8-1.4,4.5c0,0.2,0.1,0.4,0.2,0.6C1,14.5,1,15.9,1.1,17.2
	c0.2,2.3-0.1,4.7,0.3,7c0.3,1.8,1.4,2.9,3.3,1.3c1.4-1.1,3.1-1.9,4.5-3c0.6-0.5,1.2-0.8,1.7-0.9c0,0.1,0.1,0.2,0.2,0.3
	c0.6,0.7,1.1,1.4,1.3,2.5c1.1,4.6,0.9,9-0.5,13.3c-0.5,1.4-1.1,2.8-1.9,4.2C7.3,47.1,7,45.5,12,49.7c-0.9,2.5-1.9,5.2-3.1,8.3
	c3,1.8,6.1,0.4,10.6,1c1.1,0.1-0.4-1.7-0.8-2c-1.1-0.9-1.3-1.8-0.7-3.2c0.9-2.1-0.7-3-2.1-3.5c-2.2-0.9-2.1-2.4-1.9-4.4
	C14.4,43.2,14.6,40.5,14.8,37.9 M9.8,2.9c2.7,0,5,2.6,5,5.7c0.1,3.7-2,6.2-5.2,6.2c-3,0-5.9-2.9-5.9-5.9C3.8,5.7,6.6,2.9,9.8,2.9
	 M2.7,25.2c0-3.3,0.1-5.8,0.1-8.3c0.2-0.1,0.4-0.3,0.6-0.4c0.2,0,0.3,0,0.2-0.2c0,0-0.1-1.5-0.6-3.1c-0.4-1.5-1.4-0.8-1.5-0.6
	c0,0-0.1-0.1-0.1-0.1c0-1.1,0.2-2.1,0.6-2.9c0,0.2,0.1,0.4,0.1,0.5c0.9,3,2.6,4.7,5.2,6.1c1.4,0.7,2.5,2.1,3.7,3.3
	c0,0.1-0.1,0.2-0.1,0.4C8.1,21.6,5.5,23.3,2.7,25.2 M9.7,45.8c1.2-2.3,2.3-4.5,3.4-6.6c0.2,0,0.4,0,0.6,0.1
	c-0.4,2.7-0.8,5.5-1.3,8.6C11.3,46.9,10.5,46.4,9.7,45.8 M16.1,52.3c-1.3,1.3-2.4,2.3-3.4,3.3c-0.2-0.2-0.4-0.4-0.6-0.5
	c0.4-1.5,0.7-2.9,1.1-4.6C14.2,51.1,15,51.6,16.1,52.3 M12.9,21.2c3.3,0.5,5.9,0.9,9.3,1.4c-2.2,2.5-3.9,4.4-5.5,6.2
	c-0.1,0-0.6,0.1-1,0.2c0-0.2,0-0.5-0.1-0.7C15.1,26,14,24,12.9,21.2"/>
</svg>
