<?xml version="1.0" encoding="utf-8"?>
<!-- Generator: Adobe Illustrator 19.1.0, SVG Export Plug-In . SVG Version: 6.00 Build 0)  -->
<svg version="1.1" id="Layer_1" xmlns="http://www.w3.org/2000/svg" xmlns:xlink="http://www.w3.org/1999/xlink" x="0px" y="0px"
	 viewBox="878.2 -33.7 1175.1 855.9" style="enable-background:new 878.2 -33.7 1175.1 855.9;" xml:space="preserve">
<style type="text/css">
	.st0{fill:none;}
	.st1{fill:#FFFFFF;}
</style>
<path class="st0" d="M878.2-33.7v855.9h1175.1V-33.7L878.2-33.7L878.2-33.7z"/>
<path class="st1" d="M1364,784.7c7.3-6.1,12.9-13.9,17-23.2c3.9-9.3,5.8-19.6,5.8-30.9c0-14.7-1.2-28.3-3.5-40.5
	c-2.2-12.4-5.2-21.7-8.7-28.1c-3.5-6-6.8-11.2-10.3-15.3c-3.5-4.3-6.4-7-8.7-8.6l-3.6-1.5h-16.3c1.5,42.3,2.2,95.5,2.2,159.6
	C1347.8,794.7,1356.5,790.9,1364,784.7 M1346.9,601.7c3.5-3.7,6.5-8.4,9.3-14.1c4.4-9.3,8.7-20.3,12.6-33c2-6.3,3.5-10.7,4.5-13.1
	v-17.1c0-6.3-1.6-12.7-4.7-19.1c-3.2-6.4-7.3-11.8-12.4-15.9s-10.3-6.3-15.8-6.3c-4.4,0-6.5,5-6.5,15.1c0,15.6,0.3,34.4,0.9,56.4
	s0.9,39.9,0.9,53.8C1339.7,607.5,1343.5,605.2,1346.9,601.7 M1310.2,809.5c0-10.2,0.3-30,1-59.3c0.7-29.4,1.2-49.1,1.2-59.3
	c0-24.6-0.6-57.2-1.6-97.8c-1-40.7-1.6-73.2-1.6-97.8v-2.9c0-4.6,0.1-8.7,0.4-11.9c0.4-3.4,1-7,2-11c0.9-4.3,2.6-7.6,5.2-9.9
	c2.5-2.3,5.7-3.5,9.6-3.5c14.2,0,26.6,3.4,37.1,9.9c10.5,6.7,18.5,16.1,24,28s8.3,25.5,8.3,41.1c0,9.5-1.7,19.6-5.1,30.3
	c-3.3,10.5-7.9,20.3-13.5,29.2c-5.7,9-11.8,15.9-18.6,20.9c17.9,12.5,31,28.7,39.3,48.8c8.4,19.9,12.6,41.6,12.6,65.3
	c0,11.6-3.5,25.5-10.6,41.7c-4.5,9.6-9.6,18-15.3,25.1c-5.7,7.2-12.8,13-21.2,17.7c-9.3,5-19.3,7.5-30,7.5h-1.9
	C1317.3,821.5,1310.2,817.5,1310.2,809.5L1310.2,809.5z"/>
<path class="st1" d="M1464.3,816c-3.2-2.9-4.8-6.4-4.9-10.4v-12.7c0-3.5-0.1-6.7-0.3-9.6l-0.4-10.2c0-5-0.3-15.4-1-30.7
	c-0.9-15.3-1.2-25.5-1.2-30.9c0-17.7,0.4-41.1,1.6-70.3c1-29.2,1.5-52.6,1.5-70.3c0-3.4-0.3-10.2-1-20.5c-0.9-8.9-1.5-15.6-1.5-20.2
	c0-22.8,6.5-34.1,19.3-34.1c5.8,0,13.1,0.9,22,2.9s16.6,4.6,23.1,7.8c6.4,3.2,9.7,6.7,9.7,10.7c0,3.2-1.3,6.3-3.8,8.9
	c-2.6,2.4-5.8,4.6-9.7,6.1c-14-4.7-25.4-7.8-34.6-9.2c0.4,6.7,0.7,13.8,0.7,20.8c0,9.3-0.3,20.9-1,34.5c-0.7,17-1,28.4-1,34.5
	l1.3,7.5l7.4-0.5c2.5-0.2,5.5-0.2,8.9-0.2c14.8,0,22.2,4.3,22.2,13.1c0,3.4-1.5,6.4-4.2,9c-2.8,2.6-6.3,4-10.3,4
	c-4.5,0-8.9-0.3-13.1-1.1h-11.6c1,12.2,1.5,24.5,1.5,36.5c0,11.6-0.3,26.1-1,43.6c-0.7,21.6-1,36.1-1,43.7c0,18,0.3,27.1,0.9,27.1
	l15-0.8l18.8-0.5c11.6,0,17.4,4,17.4,11.8c0,4.6-1.9,7.9-5.7,10.4c-3.8,2.3-8.4,3.5-14,3.5h-38.7
	C1471.3,820.5,1467.6,818.9,1464.3,816L1464.3,816z"/>
<path class="st1" d="M1609.7,814l-0.4-19l-0.4-18.8l0.6-16.7c-1.2-3.8-3.5-40.1-7.1-108.5c-3.6-68.5-5.5-111.9-6-130.1
	c-17.7-0.5-29.1-2.6-34.3-6.3c-3.1-2.3-4.7-5-4.7-8.4c0-2.9,1.6-5.4,4.7-7.5c3.2-2,6.4-3.1,9.9-3.1c6.8,0,17.2,0.8,31.1,2.1
	c13.2,1.7,23.6,2.4,31.1,2.4c1.3,0,2.5-0.2,3.5-0.3h3.8c9.6,0,14.4,4,14.4,11.8c0,3.8-1.6,7-4.7,9.6c-3.1,2.6-6.5,3.8-10.6,3.8
	c-3.1,0-7.1-0.6-11.8-1.7l-9.2-1.7l-0.6,2.1l-0.4,2.9c0,31.9,2.6,78.4,7.7,139.3c5.1,61,7.6,107.5,7.6,139.6c0,4-1.6,7.3-4.8,10.2
	c-3.2,2.9-6.8,4.4-10.9,4.4L1609.7,814z"/>
<path class="st1" d="M1727.4,814.4l-0.4-19l-0.4-18.7l0.6-16.8c-1.2-3.8-3.5-40.1-7.1-108.5c-3.6-68.5-5.5-111.9-6-130.1
	c-17.7-0.5-29.1-2.4-34.3-6.3c-3.1-2.1-4.7-4.9-4.7-8.3c0-2.9,1.6-5.4,4.7-7.5c3.2-2.1,6.4-3.1,9.9-3.1c6.8,0,17.2,0.6,31.1,2.1
	c13.2,1.5,23.6,2.3,31.1,2.3c1.3,0,2.5,0,3.5-0.2h3.8c9.6,0,14.4,3.8,14.4,11.8c0,3.8-1.6,7-4.7,9.5c-3.1,2.6-6.5,3.8-10.6,3.8
	c-3.1,0-7.1-0.5-11.8-1.5l-9.2-1.7l-0.6,2.1l-0.4,2.8c0,32.1,2.6,78.4,7.7,139.4c5.1,60.8,7.6,107.5,7.6,139.6
	c0,3.8-1.6,7.2-4.8,10.2c-3.2,2.9-6.8,4.4-10.9,4.4L1727.4,814.4z"/>
<path class="st1" d="M1829.2,816c-3.2-2.9-4.9-6.4-5.1-10.4v-12.7c0-3.5,0-6.7-0.1-9.6l-0.4-10.2c0-5-0.4-15.4-1.2-30.7
	c-0.7-15.3-1.2-25.5-1.2-30.9c0-17.7,0.6-41.1,1.6-70.3s1.6-52.6,1.6-70.3c0-3.4-0.4-10.2-1.2-20.5c-0.9-8.9-1.3-15.6-1.3-20.2
	c0-22.8,6.4-34.1,19.2-34.1c5.8,0,13.2,0.9,22.1,2.9s16.6,4.6,23,7.8c6.5,3.2,9.7,6.7,9.7,10.7c0,3.2-1.2,6.3-3.8,8.9
	c-2.5,2.4-5.7,4.6-9.6,6.1c-14-4.7-25.6-7.8-34.6-9.2c0.4,6.7,0.6,13.8,0.6,20.8c0,9.3-0.3,20.9-0.9,34.5c-0.7,17-1.2,28.4-1.2,34.5
	l1.5,7.5l7.3-0.5c2.6-0.2,5.5-0.2,9-0.2c14.7,0,22.1,4.3,22.1,13.1c0,3.4-1.3,6.4-4.1,9c-2.8,2.6-6.3,4-10.5,4
	c-4.5,0-8.7-0.3-12.9-1.1h-11.6c0.9,12.2,1.3,24.5,1.3,36.5c0,11.6-0.3,26.1-0.9,43.6c-0.7,21.6-1.2,36.1-1.2,43.7
	c0,18,0.3,27.1,1,27.1l15-0.8l18.8-0.5c11.6,0,17.4,4,17.4,11.8c0,4.6-1.9,7.9-5.7,10.4c-3.9,2.3-8.6,3.5-14.1,3.5h-38.7
	C1836.2,820.5,1832.4,818.9,1829.2,816L1829.2,816z"/>
<path class="st1" d="M1985.2,615.7c3.6-8.4,6.4-18,8.6-28.6c2-10.5,3.1-19.9,3.1-28.1c0-6-0.1-11-0.6-15.1
	c-0.4-4.1-1.3-8.7-2.8-13.8s-3.9-8.9-7.4-11.6c-3.5-2.8-8-4.3-13.4-4.4l-0.6,2.9c-0.7,1.7-1,3.1-1,4c0,16.1,0.3,35,1,56.9
	c0.6,22.2,0.9,40.4,0.9,54.4C1977.4,629.7,1981.5,624.4,1985.2,615.7 M2010.8,802.2c-5.8-14.8-10.6-31.9-14.4-51.2l-3.1-16.2
	c-8.6-45.7-14.1-72-16.9-78.9h-5.5c0,9.5-0.1,18-0.3,25.7c-0.1,7.6-0.1,16.5-0.1,26.6c0,42.5,2.9,76,8.7,100.4l-5.2,13h-12.6
	l-6.1-7.2l0.4-32.1c0-27.2-1.2-71.1-3.8-131.6c-2.6-58.7-4.1-102.6-4.1-131.6c0-15.3,5.1-22.9,15.3-22.9c10.8,0,20.4,2.1,28.9,6.1
	c8.6,4,15.4,9.8,20.4,17.4c4.8,7.5,7.3,16.7,7.3,27.4v33.8c0,4.6-0.7,9.9-2.5,16.1c-1.6,6.1-3.3,11.3-5.1,15.7l-8.7,17.4l-7.1,14.1
	l8.7,45.9c4.1,24,8.3,43.9,12.2,59.5c4.1,15.6,8.9,29.8,14.5,42.7l2.9,6.1c1.7,3.4,2.9,6.1,3.6,8.4c0.7,2.3,1.2,4.4,1.2,6.7
	c0,3.4-1,6.3-2.9,8.7c-2,2.3-4.5,3.5-7.4,3.5C2022.8,825.7,2016.6,817.9,2010.8,802.2L2010.8,802.2z"/>
<path class="st1" d="M1022.6,772.4c2.6-2.6,5.2-5.2,7.9-7.8c-4.9-21.6-9.9-43-15.7-68.5c-14,9.8-24.3,17.1-40,28.3
	C993.2,742.9,1007.9,757.7,1022.6,772.4 M1016.7,529.7c-2.8,0.3-5.7,0.6-8.4,0.9c6,40.5,11.8,81,18.5,126.9
	c15.8-12.7,26.2-20.9,37.5-30C1047.9,593.7,1032.3,561.7,1016.7,529.7 M1021.2,261.1c-47.8,6.7-83.6,11.6-131.3,18.2
	c31,37.3,53.9,64.8,76.9,92.5c4.7-0.6,9.5-1.1,14.2-1.7C993.2,337.2,1005.3,304.3,1021.2,261.1 M1062.7-6
	c-37.2,0.2-70.2,39-70.8,83.8c-0.9,55,28.5,91.7,73.4,91.4c42.3-0.3,83.2-43.1,82.4-86.5C1147,35.1,1107.5-6.1,1062.7-6 M1034,194.3
	c-67.9-46-87.1-116.2-49.6-181c26-45.2,80.1-58.9,132-36.4c39.1,17,64.8,85.9,54.4,123.5c-12.2,44-36.2,70.2-73.4,89.4
	c-19.8,10.4-34.9,31.6-52.1,48c2.5,3.5,4.8,7.2,7.3,10.7c78.5-12.5,156.9-25.1,233.7-37.3c12.4-33.3-4.4-80.3,53.2-89.9
	c-2.8,44.3-5.4,83.8-8,126.1c-87.4-24.3-171.4,16.1-257.9,17.4c-29.7,0.6-41.6,18-47.8,46.8c-20.2,91.1-10.3,174.9,33.2,258.5
	c39.7,76.3,43,53.4-26.8,115c13.1,37,27,76.6,43.6,122.9c-41.6,27.2-96.3,10.4-148.7,14.7c-15.3,1.2,5.7-25.7,10.8-30.1
	c16-13.3,18-27.2,10-46.9c-12.2-30.4,9.5-43.9,29.4-52.4c30.5-13.1,30-34.9,26-64.5c-7.9-58.7-8-118.6-17.9-176.7
	c-4.2-24.5-24.1-46.3-39-67.7c-19.5-27.8-43.8-52.1-60.6-81.5c-13-22.4-11.8-45.6,23.2-47c25.2-1.1,50.3-8.4,75.5-9.2
	C1017.8,245.6,1031.3,226.8,1034,194.3L1034,194.3z"/>
<path class="st1" d="M1330.2,386.5c-2.6-4.7-3.8-10.4-3.8-17c0-7.5,0.6-20.3,1.7-38.7c1.2-18.3,1.7-31,1.7-38.4
	c0-15.3-1-40.4-3.1-75.1c-2.2-34.5-3.2-59.6-3.2-74.9l0.4-18.3c0.1-6.6,0.3-14.4,0.3-23.8c0-23.4-1.5-38.4-4.2-44.9l-11.9,1.4
	c-6.3,0.9-10.6,1.2-12.9,1.2c-4.1,0-7.6-1.2-10.5-3.7c-3.1-2.6-4.5-5.7-4.5-9.5s3.6-7,10.9-9.9c11.1-4,29.1-6.9,54.2-8.4
	c7.9-0.5,14.1-0.8,18.9-0.8c3.9,0,7.4,1.4,10.3,4c3.1,2.8,4.5,6,4.5,9.8c0,3.7-1.3,6.7-3.9,9.2c-2.6,2.3-6,3.5-9.9,3.5l-8.3-0.5
	l-8.1-0.5c-2.3,0-3.9,0-4.7,0.2c2,19.3,3.1,39,3.1,59.3l-0.4,30.7l-0.4,31.3c0,12.5,0.7,31,2,55.3c1.3,24.2,2,42.7,2,55.5
	c0,9.6,0.7,24.2,2,43.3c1.2,20.3,1.7,34.9,1.7,43.3c0,15.7-4.4,23.5-13.2,23.5C1336.3,393.7,1332.7,391.3,1330.2,386.5L1330.2,386.5
	z"/>
<path class="st1" d="M1492.3,314.5l0.3-20.9c0.1-1.5,0.3-3.8,0.3-6.9l0.1-21.9v-2c0-1.7,0.1-3.2,0.3-4.4c0.3-5,0.4-8.1,0.4-9.3
	c0-0.5-0.4-1.4-1.5-2.4c-0.9-0.9-1.3-1.5-1.3-2.1v-0.5c-2.2,0.6-4.9,1.1-8.3,1.1c-3.2,0-8.1-0.8-14.7-2.1c-6-1.4-10.9-2.1-14.8-2.4
	V296c0,8.6,0.4,21.9,1.3,39.6c1,17.4,1.5,30.7,1.5,39.7c0,4.9-1.2,8.9-3.5,12.4c-2.3,3.4-5.5,5-9.6,5c-6.1,0-10.2-6-12.5-17.7
	c-2.3-11.2-3.5-27.1-3.5-47.7c0-9,0.1-21.9,0.6-38.8c0.4-16.8,0.7-28.3,0.7-34.7c0-3.1,0-5.8,0.1-8.1v-6.9c0-4.9-0.3-8.3-0.9-10.1
	v-2.4l0.7-9.2l1.2-19c0-13.6-0.6-31.8-1.6-54.4c-1-22.5-1.6-40.7-1.6-54.3c0-3.8,1.3-7.2,3.8-10.1c2.6-2.8,5.7-4.3,9.2-4.3
	c9.7,0,14.5,9.6,14.5,28.7c0,16.2-0.3,36.2-0.9,59.9c-0.6,23.8-0.9,43.9-0.9,60.2c5.4,1.5,13.7,2.3,25,2.3h16.6
	c0.7-1.5,1.2-3.5,1.2-6.1c0-16.4-1-39.3-2.9-68.3c-2.2-31.6-3.2-54.4-3.2-68.5c0-3.7,1.3-6.6,3.9-9s5.7-3.7,9.3-3.7
	c2.5,0,5.5,0.8,9.2,2.6c2.8,1.1,4.1,1.5,4.2,1.5c0,39.6,1.6,100.6,4.5,182.8l4.2,121.7c0,4.4-1.5,7.9-4.7,10.5
	c-3.1,2.8-6.8,4-11.2,4C1497.6,393.7,1492.3,367.2,1492.3,314.5L1492.3,314.5z"/>
<path class="st1" d="M1562,378.7c0-7.6,4.7-11.6,13.8-11.6c2.2,0,3.9,0.2,5.4,0.3l4.4,0.5c2.3,0,4.1-0.8,5.1-2.4s1.6-4.6,1.6-8.9
	c0-7.8-0.3-13.9-0.6-18c-0.4-4.3-0.6-6.9-0.6-7.6c-1.3-14.7-2.3-28.4-3.1-41.1c-2.9-48.2-4.4-85.3-4.4-111.3l0.4-24.6l0.4-24.6
	c0-9.5-0.3-18.5-1-26.8c-4.1,1.4-7.7,2.1-10.8,2.1c-7.1,0-10.8-3.8-10.8-11.5c0-3.8,2.2-7.2,6.7-10.1s10.3-5,17.4-6.4
	c12.4-2.4,23.3-3.5,32.4-3.5c3.6,0,6.7,1.2,9.5,3.8c2.6,2.6,4.1,5.7,4.1,9.3c0,3.4-1,6.4-3.1,9c-2,2.6-4.7,4-7.7,4
	c-1.9,0-3.3-0.2-4.5-0.3h-3.6c-3.1,0-5.4,0.8-6.7,2.1c-1.3,1.4-2,4-2,7.8c0,32.6,1.9,79.5,5.7,140.8c1.2,19.9,2.3,37,3.5,51.8
	c0.7,7.6,1.2,14.8,1.5,21.6c0.4,6.6,0.6,14.2,0.6,22.9v18.5c3.2-0.5,6.3-0.6,9.5-0.6c12.6,0,19,5.7,19,17v2.8l-11.5,8.3l-12.1,0.5
	c-7.3,0.5-13.7,0.8-19,0.8C1575.2,393.1,1562,388.2,1562,378.7L1562,378.7z"/>
<path class="st1" d="M1801.6,395.2c0,0-0.9-1.1-2.6-3.2c-1.9-2.1-3.3-5.7-4.4-10.7c-1-4.6-1.9-7.8-2.6-9.5l0.1-0.9v-1.2
	c0-7.3-5.1-27.2-15.1-59.5c-10.2-32.4-21.8-67.1-35-104.4c-13.2-37.5-23.3-64.5-30.4-81.5v242.6l1.9,3.2c1.9,3.4,2.9,6,2.9,8.1
	c0,4-1.5,7.5-4.2,10.5c-2.8,2.9-6,4.4-9.7,4.4c-9.9,0-15-9.8-15-29.4l-0.4-82.5l-0.4-82.7c0-9.9,0.4-24.9,1.3-44.8
	c0.9-20.2,1.5-35.2,1.5-44.9c0-15.1,4.9-25.5,16.1-34.2c0,0,1.6-1.1,2.2-1.1c1.6,0,1.3,0.5,2.3,0.9c7,3.2,15.6,13.6,26.3,39.4
	c8.3,20.3,16.1,42.3,23.3,66.3c7.3,24,15.6,53.5,25,88.5l6.7,24.8c8.4,31,13.7,49.5,15.8,55.6c6.1-68,9.3-149.5,9.3-244.4
	c0-2.1-0.1-4.3-0.3-6.3l-0.4-6.6c0-9.6,3.8-14.4,11.3-14.4c4.2,0,7.4,1.8,9.7,5.4c2.2,3.7,3.3,8.1,3.3,13.5v36.5
	c-0.3,28.3-1.2,61.9-2.6,100.9c-1.5,38.8-3.3,73.5-5.8,104.1c-2.5,30.4-5.2,48.3-8.1,53.2c-8.6,2.8-14,4.1-16.1,4.1L1801.6,395.2z"
	/>
<path class="st1" d="M1987.3,374.7c-6.8-14.4-13.2-32.3-19.2-53.7c-6-21.6-11.3-43.4-15.8-65.4c-3.5-15.7-6.3-29.8-8.3-42.2
	c-11.1,23.2-16.6,51.2-16.6,83.8v89.1c0,7.6-3.2,11.3-9.5,11.3c-4.7,0-8.3-1.4-11.1-4.1c-2.8-2.8-4.2-6.4-4.2-11.2V236.1
	c0-16.7,1.6-42.7,4.5-78.1c2.9-33.6,4.2-59.6,4.2-77.7c2.8-6.1,7.3-9.2,13.7-9.2c3.9,0,7.3,1.5,10,4.4c2.8,2.9,4.1,6.4,4.1,10.4v1.4
	c-3.9,7.3-6,36.5-6,87.7v17.3l16.7-35.3c10.8-22.9,20.6-42.5,29.5-58.5c9-16.2,15.3-24.3,18.9-24.3c4.7,0,8.9,1.2,12.4,3.5
	c3.5,2.1,5.2,5.4,5.2,9.5c0,0.5-3.6,6.9-10.9,19.3c-23.1,40.2-35.9,62.7-38.2,67.7l-0.6,14.4l-0.4,14.4c0,8.7,2.6,23.8,7.6,45.2
	c4.9,21.4,10.9,42.7,17.6,63.7c6.8,21.1,12.5,35.6,17,43.4l6,8.7c3.2,4.6,5.4,8.4,6.7,11.6c1.5,3.2,2,6.7,2,10.2
	c0,3.7-1.3,6.7-3.8,9.2c-2.5,2.4-5.5,3.7-9.2,3.7C2002.7,398.7,1995.1,390.7,1987.3,374.7L1987.3,374.7z"/>
</svg>
